/* XPM */
static char *_8green[] = {
/* columns rows colors chars-per-pixel */
"48 48 13 1 ",
"  c #4FC636",
". c #4DCC36",
"X c #4FC738",
"o c #4FCD38",
"O c #50C637",
"+ c #50C937",
"@ c #52C639",
"# c #51CB39",
"$ c #4BD236",
"% c #49D836",
"& c #4DD239",
"* c #4CD839",
"= c #50D13B",
/* pixels */
".$*o=&o.oo#*o.&o&*X..%.$.o&o&$...%&%Xo%$%$..#*$%",
"o$*&o&&o&==#oo&=&&$.$$$$.o$$$*o.o$$...$$$$$.$&*#",
"o&&=#*#o##&&o&&&&*X$$$%$o&&$$*##.$%$.$%$$%X&.$*=",
"&&***&o&&&&ooo&*&=o$%%$.o**%%$$.&$$..%%%%$o&**$#",
"==*&*%$**.o.oo&&&&**%$.&#&*$$%$$%...$$%$%$%$%%.$",
"&&$$&..&##o$&&$.&oX&##+o$&&#%$$$.. o$$$.$..$..#.",
"&&*#..#.##o$&&*&&X#o##o&*#$&........$.%o......$.",
"%Xo##+###oo$$X.$$o*#=.&&*&#&$.$$$..$. ....$$$$$$",
".X##&.&..#.$oXo&$o&&.$.*&#&$$$*$...$.oo&$.$$.$.%",
"&&#&.%$.&$..&*#o&*&o&%.o*$&$%%$#*$$.&&..$%%.$%$$",
"$&#=$$$..$$..oo#&.&oo$.&&$$$%$$=$$.o$$o&$$$$.$$$",
".oX#X......#.ooo.ooXX..o.#######X..oXo.$o&$X.oXo",
"XX#@## ..$....oo#.++Xoo.@@@###@@... @##.$$. $ooo",
"X##@##@@..#.  .Xo.O..oo.@@@@##@#.... @X.......o#",
"#@###=##.#&+X.o##$O...o##@###$O+ .$. ....$O+..$o",
"X#=&=####..O .$&=+..$oo###=#=#+....  ..$$.O+ooo.",
"##$o$%.%$..o#o&o$$.%$..  +##=&o$$. . O.X$.##oX..",
"$.$.$..$...ooooo&.......#.###++.+@  X#. . .#@@ o",
"$.$$..o...oooX&#++O......o=#@@#+@@@.#@@@OOO @+##",
"$..ooO=#$.o#&X#####.$$.$$...#####@#.X@ @..+.####",
"&oo#==&#.##&ooX###=$$$$%$$#===&. ...O#.#.... +@#",
"*&#&===#o&##$*o&==$#$$$$%%=====#%$..&$##.$$+####",
"&&#&&&=####&$$$o*=*&$$$$$$=#===$$$$$..X##$$+####",
"###oo=#####&$$$$=*##$$$$$.=##==#.$.$..#@#++##@@#",
"##oo$o@@#=#$$.$$&=###&.%..=#==#@o$....o### @@@@@",
"@@$.$&##..#...$o&=#@#&&.Xo&#&&o#.&&. @o#..O@###@",
"oo$.&*@#..%$.$&&=&###&%$oo*&&%#o#o&o#X###$###o&#",
"Xo$**##X$.. .&*&*=##&*$..**%*&o&&### X&&&#Xooo..",
"..$.o$o&%...#$$&&*&*%$.$.o*&**&*$o@o++##o&.$..XX",
"..$.o......$$$$.*..$...$$$$#o+#.##@X..#O#.+..@@#",
"$.$.  ......$.$$..o....$$.&#@##.+.#o###@@OO.O#@.",
"..... ..$..$$..$.+&$$.$$&.###+#.$.XX@OOO@@@@#@#o",
" ..........$...%$#$$..#=#ooo##*...+#@@Xo###O .+.",
".$@ ..$.....$$..&&=#=$##=&#&&&&+..@@ooXX#&#O#..+",
"oX#@.....$..$$.=&&$#..###oo#.$.#..##X..@X+..$.oX",
"#@#+. .. ....#.###+..##@@####@@O..O@ ...#@ ..$X#",
"@Xo.o.O+o...+.X#&...o=@@@@####O@#.O @ . ++  .$.X",
"@@...$+OXo###.$o#$..o#@@@@o#X#@@ .. @@oX.. ...#@",
"@X$$$$O#o#&.o.&o#$+$&###@@##&&@#...O@@@X......&o",
"Xo*$*+##=#ooo.&**$#o&o#@@#=&&###....O oo&.+.$$oX",
"+.$.$&#=&o#oo&*$*$&*$o####$$$%$&$..XO++..$.$$...",
"$$$.$o#####oo&%.%..&o###$o$.$....#@##o.....##+.o",
"o.%.oX##@###&$*..ooo.&o$&$*#..o. @##oo&#..+++#..",
"$o.$.#####&&*oooo#&&&#*$%.&$#+&&###ooO.#...$&.o#",
"&o.&&&&o...$$.$&&&&&oo.*$$&&&&&.o##$.#o&&.$$..#&",
"*&o.&&&#&*.$%%o&&*&&&*&o$*o&$**o*$o.&&o$$$*o**&$",
"$$$&*$$$$$.$%%$&*$*&&&$$$*&&*$%$$$$o&$$$%$*oo&$&",
"$$$$&&..$o..$$.&&*.Xoo.o..o&.$$.$..o..$$$$o##&.."
};
