/* XPM */
static char *_8lava[] = {
/* columns rows colors chars-per-pixel */
"48 48 105 2 ",
"   c #432E00",
".  c #4C2E00",
"X  c #562F00",
"o  c #5A2D00",
"O  c #453100",
"+  c #4C3400",
"@  c #4E3800",
"#  c #533500",
"$  c #5B3500",
"%  c #543A00",
"&  c #5B3B00",
"*  c #633400",
"=  c #6B3500",
"-  c #633B00",
";  c #6C3C00",
":  c #733600",
">  c #7A3700",
",  c #733C00",
"<  c #7B3D00",
"1  c #554000",
"2  c #5C4200",
"3  c #634300",
"4  c #6B4300",
"5  c #644A00",
"6  c #6C4A00",
"7  c #744300",
"8  c #7C4300",
"9  c #744B00",
"0  c #7C4B00",
"q  c #685100",
"w  c #755300",
"e  c #7C5300",
"r  c #735900",
"t  c #7C5B00",
"y  c #833D00",
"u  c #8B3E00",
"i  c #903E00",
"p  c #834300",
"a  c #8B4500",
"s  c #844B00",
"d  c #8C4B00",
"f  c #924500",
"g  c #9A4500",
"h  c #934C00",
"j  c #9A4E00",
"k  c #845300",
"l  c #8C5300",
"z  c #845B00",
"x  c #8B5B00",
"c  c #935300",
"v  c #9C5300",
"b  c #945B00",
"n  c #9A5C00",
"m  c #A24B00",
"M  c #A35400",
"N  c #A85600",
"B  c #A45B00",
"V  c #AB5C00",
"C  c #B35D00",
"Z  c #856400",
"A  c #8C6200",
"S  c #846800",
"D  c #8C6C00",
"F  c #946300",
"G  c #9B6300",
"H  c #946C00",
"J  c #9D6A00",
"K  c #947400",
"L  c #9E7300",
"P  c #957900",
"I  c #997C00",
"U  c #A36400",
"Y  c #AB6400",
"T  c #A46B00",
"R  c #AC6C00",
"E  c #B36400",
"W  c #BA6200",
"Q  c #B36B00",
"!  c #A57300",
"~  c #AA7300",
"^  c #A57D00",
"/  c #AD7B00",
"(  c #B37300",
")  c #BA7300",
"_  c #B37900",
"`  c #BB7C00",
"'  c #C17500",
"]  c #C37A00",
"[  c #9C8000",
"{  c #A38400",
"}  c #AC8300",
"|  c #A78800",
" . c #AA8B00",
".. c #B48400",
"X. c #BC8300",
"o. c #B28B00",
"O. c #BC8900",
"+. c #B49000",
"@. c #C28400",
"#. c #C48C00",
"$. c #CB8A00",
"%. c #CC9300",
"&. c #CD9900",
"*. c #D19700",
"=. c #D39D00",
/* pixels */
", + Y 8 + < & % 7 # s B # ; , @ ; - $ E - % < % & , + n d + , - % , $ ; C % - , % - ; + E , @ y ",
"_ v E , # < - + A B V h X - , + 6 R m Y * # y $ # ! v E y # , ; + e U B B $ $ > # & ~ v E = # y ",
"#.H % p u h Q M ( / 5 ; m > E V B O.t & g y B R j ` L 2 7 g p Q B Y ..9 & m > E Y M @.A & d u d ",
"8 + , j d G 4 ; < & $ h h n e 3 < ; # 8 v d b 3 , 8 % * g h G 7 4 8 - # a g b z & < 7 @ , j d U ",
"R 9 l % & ~ 7 2 G 0 c 4 + F b & k F 0 k + 4 T ; 5 U 7 b & + ! s & b k l 9 + k G - 9 U 9 l % & _ ",
"Q G [ # = b d B ) c  .5 o d z v ) B ! D + < F d Y ( b  .& * c k B ) b } w # s x h Q Y J I % = G ",
"; & ! l s 9 O & 7 & z U 8 l # + ; ; 3 _ 0 l - O - , & J n 0 0 + % , - w Q 9 l $ + ; 4 2 ~ s d 9 ",
"l 0 a $ & R , s n 0 d ; + x c ; F d 0 p % ; R = x c 0 a $ % J p 8 b 0 d , # e U - b d 0 a # & _ ",
", & T p * U 7 4 y % z N * d c - p ; 5 Y > ; Y - 8 < % G h * n s - p & w Y = 8 B - 8 , 2 T p = Y ",
"b : W ; O , # + 0 8 m v O - ; O & l < W $ + : + + z : C p O ; $ O 9 p f V + % = + % l , W ; + , ",
"=.( 0 p > a n p _ #.z 8 u > V s c *.U 9 a : j n p #._ e p < y B p T %.b 7 u : M l d %.~ 0 y : f ",
"k 2 $ h h c b c d 6 # 8 M s b l d k % - v a b l h d 5 $ s g l b c d 9 % , N p G l h s 2 $ v f c ",
"c & d 7 4 ~ $ + d - 8 p ; J 0 + ; 0 - d ; k J # % l & p p 4 ~ - + 8 7 4 d - F l + - s & d 7 9 / ",
"` n K O X T h G @.b } 1   k U h ` R T t   * ! h T @.l ^ O . n n b @.n / 5   8 T d ( _ G D O o ! ",
"p 9 } s a 0 % , p 7 K G y h & - p 8 t / 8 h 4 & < p 9 { l p s % ; p 7 D ! < h 3 - < p 9 } p a 9 ",
"e 4 h - 3 x $ 4 l 6 p 0 % z 7 % z 0 4 c & 6 l # 0 k 4 d 7 & x - 3 l 9 8 s % e 8 % z 0 4 h - 5 n ",
"p 4 n , * ) p s d ; x d * b Y , h 7 w n : , ` , l p 4 F y * R h 8 h 4 z h * s ) , c < 9 n , = @.",
"8 # E 7 % , & + 7 % d N # - ; + - , * C - % > % % 8 # B d + , - + 7 - 7 C $ * , + & 7 # E , # 8 ",
"#.Y B < $ y 8 $ T ( U d * : p - 9 @.V n : $ a 4 $ _ E U p * < 8 & x ` B c = * a - 4 @.V B > * p ",
"/ t # d f c R N Y H & 4 m < Q V B ~ 6 % j y B Y M R Z % 8 g s Q B B ! 3 & M < Y U M ! t % d a d ",
"8 # < h s U & & < & * h p U 9 % , ; % a f l G # * 8 + , h p T - % > - $ f s n k # ; 7 # y h d R ",
"_ s F + # ~ s 9 ( k J & O z n 9 H T l e O - ~ 8 e _ s J # + J l 9 ! x G 4 O 0 T 7 x ~ k x + % / ",
"n A { - > z 7 c Y d | e * h 9 d B j H K - y k 8 n B l  .4 ; l 9 h V d ^ Z - a e p B n F [ - < z ",
"4 & U s 0 8 + & 9 2 k n 4 l % + 9 4 3 R 7 e 4 O ; 9 & F l 7 s # % 9 3 9 U 4 k - O 7 4 & T 8 0 s ",
"h 0 d & * _ y l c 0 c ; # b V , b d s s $ 4 ) : b d 0 h - $ R d 0 n p l , # e Q , n d 0 d $ - ` ",
", % Y p $ c ; & < # k V * 8 s % < - 2 E , - c & ; < + G h $ d 7 & < % 9 E = , h % , ; % Y p * n ",
"T a W , . , & O z h V j + - = + 3 G f E * # : # + H a W p + ; * O e c M N # $ , + & U a W ; + > ",
"&.L 3 p y h Q h _ O.9 4 g > E n B %.A - f > B Y h #./ 3 8 i p Q v R #.e - g , V n v %.H 2 a y f ",
"8 % = j f b 0 0 y - % p j h z 9 p 7 + , v d n 9 p 8 & * h f b 0 8 p 3 % p v h x 9 p 7 # ; v a G ",
"G ; l - - ~ ; % b 7 s 8 % H d # 9 l 7 d & 9 T $ & G - l ; & R 9 % l 0 8 8 $ z F % 4 b ; d - 3 _ ",
"_ G I + o G l U @.b o.2 . d b v ` R ! t + = J h R ` b | # # b c B @.n } q + 8 G h ) ( J P + * G ",
", 3 / l d 9 + * , - Z R 8 l # % , ; q ..8 c - + ; , - L b s 0 + $ , - t ( 8 c % # ; , 3 / d d 9 ",
"l 9 a & & G = e b 9 d ; # z d - b k 8 p % 5 U * z c 9 a - % G , 7 b 0 s , # e c $ b l 9 a % 2 R ",
"< 2 U y = R 8 8 a & z v = l B ; d ; 6 U : , Q ; p 8 2 G a * U d 4 a - t B = s Y ; s , 3 U y = ) ",
"l * W , + : % @ 8 = h v + * - + - 0 = W $ # , @ + s * V p O ; & + 4 7 p V X & = O & 0 * C ; + , ",
"*.Q z y = a l , / @.n s > , j 9 l %.Y k y = f s 7 O.) b p : y c 4 T $.n s y = j 0 0 %.Q c y = a ",
"F 5 % d f c G v c t # 7 M p U n j b 2 $ v p n G v c q % s g d U v v z & - N 8 U n j b 5 $ c a c ",
"d % p p 8 ~ $ # p - ; d , T 9 + = 9 $ d 8 l G + $ s $ 8 a 7 ~ - + < - - a 7 n l + - p # a p 8 / ",
"` c H O + T c z X.l ~ 1   z U s / R G t   - ~ a F X.l L + + G c l X.b ! 5   0 T p ! _ b D   # ~ ",
"d e | 8 a 0 - p h p I F , h 3 , d a Z ^ , a 9 ; a h 0 { k < s 3 8 h p K H , h 5 ; d d e } 7 a e ",
"0 3 n 4 4 k # 3 e 3 s l & l - # k 9 3 n - 9 0 + 9 0 - c 8 3 l $ & k 4 9 c & e 7 + 0 0 3 n 4 4 l ",
"p 9 c = * ) p d h 9 x 8 $ b Y , c 8 e d * 7 ] , l a 9 b , $ ~ c 0 h 8 z s * s ) : b p 9 c ; - @.",
"7 # Y p % p & % < # s V % , 7 % ; ; $ E ; $ p % & 8 . n h # 8 ; % , $ 7 C $ ; 8 % - , # E < % a ",
"_ B E > % < ; + H V V h o - < # 6 ( N Y = $ y & % ! B E p # , , # z R V v * $ y % - _ v Y : # y ",
"O.A & s i h Q B R ^ 3 - m < Q V B ..t % h y B Q m _ H & 8 g s Q B Y ..5 & m > Y Y N ..Z % d u h ",
"< + , j a G 3 ; < & $ h h n 0 & > ; # y j h F & ; 8 # ; g d G 4 - < - $ a h b l & , , + < j d T ",
"~ 8 x % & ! 8 3 T 0 b 4 + F b - z G s k + 4 R ; 6 R 9 b & + T s 3 G k l 9 + e U - e T 8 l # & / ",
"Q T I   * F d C ] v +.1 . h x v ) Y / Z   , F d Q ' n  .+ o b l N ] n o.q   a A g ) Q T P   = G "
};
