/* XPM */
static char *_8megaman[] = {
/* columns rows colors chars-per-pixel */
"48 47 208 2 ",
"   c #010304",
".  c #010709",
"X  c #010A0E",
"o  c #130B05",
"O  c #14120D",
"+  c #020E13",
"@  c #021116",
"#  c #03141C",
"$  c #0E191C",
"%  c #0A171E",
"&  c #181B19",
"*  c #2A1609",
"=  c #331208",
"-  c #251A15",
";  c #331F10",
":  c #3E260D",
">  c #362819",
",  c #041720",
"<  c #041A25",
"1  c #051E2A",
"2  c #091B25",
"3  c #101D26",
"4  c #05202E",
"5  c #042B2A",
"6  c #08222A",
"7  c #1D2021",
"8  c #16272B",
"9  c #062433",
"0  c #062A33",
"q  c #062738",
"w  c #072A3C",
"e  c #092433",
"r  c #192B34",
"t  c #073639",
"y  c #1C3639",
"u  c #242525",
"i  c #232629",
"p  c #302F22",
"a  c #373727",
"s  c #273438",
"d  c #3C3D3D",
"f  c #34393A",
"g  c #262E31",
"h  c #41361F",
"j  c #46290F",
"k  c #67350D",
"l  c #423621",
"z  c #663320",
"x  c #5A5131",
"c  c #504B35",
"v  c #6E422F",
"b  c #7E5826",
"n  c #675635",
"m  c #714A37",
"M  c #072E41",
"N  c #082E42",
"B  c #073442",
"V  c #083045",
"C  c #09354C",
"Z  c #093A4B",
"A  c #073C42",
"S  c #143747",
"D  c #093B53",
"F  c #0A3F59",
"G  c #103E57",
"H  c #3E3E41",
"J  c #283F42",
"K  c #09414C",
"L  c #0B4C49",
"P  c #154448",
"I  c #0A4353",
"U  c #0A4E52",
"Y  c #0B435D",
"T  c #0A4A5C",
"R  c #114159",
"E  c #1A4559",
"W  c #0A5454",
"Q  c #08575E",
"!  c #11565D",
"~  c #244548",
"^  c #3E504B",
"/  c #224553",
"(  c #344856",
")  c #2E5058",
"_  c #3B5657",
"`  c #0B645C",
"'  c #3F675A",
"]  c #0B4663",
"[  c #0C4965",
"{  c #0C4B6B",
"}  c #184C66",
"|  c #0C5A64",
" . c #0C5669",
".. c #12566B",
"X. c #0D4F70",
"o. c #0E5374",
"O. c #0D5C73",
"+. c #0F5A7D",
"@. c #0E5579",
"#. c #145677",
"$. c #20506C",
"%. c #245773",
"&. c #235E76",
"*. c #2B5467",
"=. c #0C6366",
"-. c #0D626C",
";. c #0D6A6F",
":. c #136168",
">. c #0D7268",
",. c #0E6779",
"<. c #106578",
"1. c #116772",
"2. c #0D7273",
"3. c #0E7B74",
"4. c #0E727B",
"5. c #0F7B7F",
"6. c #117C77",
"7. c #376478",
"8. c #286E6A",
"9. c #434343",
"0. c #4C4C4C",
"q. c #41424B",
"w. c #494E57",
"e. c #475359",
"r. c #545454",
"t. c #55585C",
"y. c #505251",
"u. c #445F6C",
"i. c #436161",
"p. c #566D75",
"a. c #5D7473",
"s. c #636363",
"d. c #6C6C6C",
"f. c #716E64",
"g. c #747373",
"h. c #7B7C7C",
"j. c #737A79",
"k. c #62757E",
"l. c #875231",
"z. c #8C622B",
"x. c #96682D",
"c. c #96682B",
"v. c #8F6832",
"b. c #BD7F31",
"n. c #B27C38",
"m. c #905750",
"M. c #9C574B",
"N. c #B05E46",
"B. c #896949",
"V. c #987B52",
"C. c #0E847C",
"Z. c #468979",
"A. c #BE8337",
"S. c #CC8B39",
"D. c #D59748",
"F. c #CB9450",
"G. c #CBA16A",
"H. c #0F5D84",
"J. c #115E84",
"K. c #0F608A",
"L. c #116087",
"P. c #11638C",
"I. c #106F8D",
"U. c #1D6487",
"Y. c #0E7682",
"T. c #107A89",
"R. c #116691",
"E. c #116995",
"W. c #136E9B",
"Q. c #196E96",
"!. c #12709E",
"~. c #1373A4",
"^. c #147AAE",
"/. c #1377A9",
"(. c #147CB1",
"). c #4B7286",
"_. c #777E81",
"`. c #0E8482",
"'. c #0E8E8B",
"]. c #12968D",
"[. c #118B96",
"{. c #119798",
"}. c #10908E",
"|. c #12A49A",
" X c #13AC9F",
".X c #1684BB",
"XX c #1581B6",
"oX c #129AA0",
"OX c #14B6AB",
"+X c #13A9A0",
"@X c #7C888D",
"#X c #1789C2",
"$X c #868989",
"%X c #8F8F90",
"&X c #979797",
"*X c #9A9487",
"=X c #8196A0",
"-X c #9DA3A6",
";X c #A4A5A5",
":X c #B9B8B9",
">X c #C7AC8A",
",X c #BEC3C6",
"<X c #CBCBCB",
"1X c #C4C3C3",
"2X c #D0CFCF",
"3X c #D7D7D7",
"4X c #E1E0DF",
"5X c None",
/* pixels */
"5X5X5X5X5X5X5X5X5X5X5X5X5X5X5X5X5X5X5X5X5X5X5X5X5X5X5X5X5X5X5X5X5X5X5X5X5X5X5X5X5X5X5X5X5X5X5X5X",
"5X5X5X5X5X5X5X5X5X5X5X5X5X5X5X5X5X5X5X5X5X5X5X5X5X5X5X5X5X5X5X5X5X5X5X5X5X5X5X5X5X5X5X5X5X5X5X5X",
"5X5X5X5X5X5X5X5X5X5X5X5X5X5X5X5X5X5X5X5X5X5X5X5X5X5 5 5 5 5X5X5X5X5X5X5X5X5X5X5X5X5X5X5X5X5X5X5X",
"5X5X5X5X5X5X5X5X5X5X5X5X5X5X5X5X5X5X5X5X5X5X5X# F O.2.2.W 0 < 5X5X5X5X5X5X5X5X5X5X5X5X5X5X5X5X5X",
"5X5X5X5X5X5X5X5X5X5X5X5X5X5X5X5X5X5X5X5X5X5X1 w [ 1.,.T.5.| Z w 5X5X5X5X5X5X5X5X5X5X5X5X5X5X5X5X",
"5X5X5X5X5X5X5X5X5X5X5X5X5X5X5X5X5X5X5X5X5X9 N Y +.X.[ O.T.[.Y.Z # 5X5X5X5X5X5X5X5X5X5X5X5X5X5X5X",
"5X5X5X5X5X5X5X5X5X5X5X5X5X5X5X5X5X5X5X5X@ M Y o.J.H.[ F | Y.{.=.9 5X5X5X5X5X5X5X5X5X5X5X5X5X5X5X",
"5X5X5X5X5X5X5X5X5X5X5X5X5X5X5X5X5X5X5X@ 1 D [ o.+.H.+.F ~ _ Z.' a - 5X5X5X5X5X5X5X5X5X5X5X5X5X5X",
"5X5X5X5X5X5X5X5X5X5X5X5X5X5X5X5X5X5X5X1 q D F [ o.R.Q.$.H z B.m.z = 5X5X5X5X5X5X5X5X5X5X5X5X5X5X",
"5X5X5X5X5X5X5X5X5X5X5X5X5X5X5X5X5X5X. , e 1 w ] E.(.(.P.( m N.N.l.= 5X5X5X5X5X5X5X5X5X5X5X5X5X5X",
"5X5X5X5X5X5X5X5X5X5X5X5X5X5X5X5X5X5X. + , & 7 P L.Q.U.J.$.w.m.M.m - 5X5X5X5X5X5X5X5X5X5X5X5X5X5X",
"5X5X5X5X5X5X5X5X5X5X5X5X5X5X5X5X5X5X    o ; > g / ) _ _ %.%.t.t.q.3 5X5X5X5X5X5X5X5X5X5X5X5X5X5X",
"5X5X5X5X5X5X5X5X5X5X5X5X5X5X5X5X5X5X5Xo * k j O > n V.*Xp.G $.%.} e 5X5X5X5X5X5X5X5X5X5X5X5X5X5X",
"5X5X5X5X5X5X5X5X5X5X5X5X5X5X5X5X5X5X5X8 > k ; o j z.F.>Xf.g } } F q 5X5X5X5X5X5X5X5X5X5X5X5X5X5X",
"5X5X5X5X5X5X5X5X5X5X5X5X5X5X5X5X5X5XD S s > - $ l x.D.G.B.l c J M 5X5X5X5X5X5X5X5X5X5X5X5X5X5X5X",
"5X5X5X5X5X5X5X5X5X5X5X5X5X5X5XN C D C [ O.y 6 $ l x.S.D.n.v.l.n 5X5X5X5X5X5X5X5X5X5X5X5X5X5X5X5X",
"5X5X5X5X5X5X5X5X5X5X5X5X5X5X5X[  .| Z o.H.{ M , p b A.A.S.A.c.5X5X5X5X5X5X5X5X5X5X5X5X5X5X5X5X5X",
"5X5X5X5X5X5X5X5X5X5X5X5X5XV Y I.oX].W T H.+.C 1 8 x x.v.n.A.z.5X5X5X5X5X5X5X5X5X5X5X5X5X5X5X5X5X",
"5X5X5X5X5X5X5X5X5X5X5X# 9 Y <.oXOX|.W I { [ C V Y 0.n v.z.z.j 5X5X5X5X7 & 7 g 5X5X5X5X5X5X5X5X5X",
"5X5X5X5X5X5X5X5X5X5X# 1 Z o.I.[.{.`.t w V M D [ R.&.0.n x a & 5X5X5Xd H f l 0.5X5X5X5X5X5X5X5X5X",
"5X5X5X5X5X5X5X5X5X5X1 N +.J.J.<.1.! 5 , 1 e D H.^.Q...S P L t 5 5Xi 0.d.s._.@Xl 5X5X5X5X5X5X5X5X",
"5X5X5X5X5X5X5X5X5X5X9 N X.J.L.&.7.p.e.f 8 K T o.P.L.+.| C.C.` t 1 s w.d.s.&X;Xr.5X5X5X5X5X5X5X5X",
"5X5X5X5X5X5X5X5X5X5X< 9 D X.J.).@X-X%Xt.y =.,.-...T T ;.|.OXC.L C G u.g.s.$X;Xr.5X5X5X5X5X5X5X5X",
"5X5X5X5X5X5X5X5X5X5X5X< w G 7.=X,X3X1Xj.~ C.].5.U 9 0 | ]. XC.2.#.#.).$Xg.h.d.9.5X5X5X5X5X5X5X5X",
"5X5X5X5X5X5X5X5X5X5X5X5X< S 7.;X3X4X2X_.~ | 4.1.t 1 5XZ | 4.1.<.J.+.7.k._.d.r.5X5X5X5X5X5X5X5X5X",
"5X5X5X5X5X5X5X5X5X5X5X5X@ 8 e.-X2X3X1X_./  .H.O.V 5X5X4 w Z D [ X.[ E ( t.r.9.5X5X5X5X5X5X5X5X5X",
"5X5X5X5X5X5X5X5X5X5X5X5X5Xi H $X:X1X;Xa.} J.E.P.T K 5X5X+ @ 1 q N w 1 % 7 u 5X5X5X5X5X5X5X5X5X5X",
"5X5X5X5X5X5X5X5X5X5X5X5X5X5X5X0.g.$Xa.*.} +.P.I.T.3.>.5X5X5X5X# # @ + 5X5X5X5X5X5X5X5X5X5X5X5X5X",
"5X5X5X5X5X5X5X5X5X5X5X5X5X5X5X7 f i.8.:.X.{ O.T.|.].C.5X5X5X5X5X    5X5X5X5X5X5X5X5X5X5X5X5X5X5X",
"5X5X5X5X5X5X5X5X5X5X5X5X5X5X5X% t | ].[.O.C T T. XOXOX>.0 X 5X5X5X5X5X5X5X5X5X5X5X5X5X5X5X5X5X5X",
"5X5X5X5X5X5X5X5X5X5X5X5X5X5X# 9 A Q `.2.I 6 t | ].OX|.` t 9 6 5X5X5X5X5X5X5X5X5X5X5X5X5X5X5X5X5X",
"5X5X5X5X5X5X5X5X5X5X5X5X5X# 1 C Y [ :.L 5 @ 1 T 4.`.3.W T ] M 5X5X5X5X5X5X5X5X5X5X5X5X5X5X5X5X5X",
"5X5X5X5X5X5X5X5X5X5X5X5X# 4 C ] o.o.Z < X 5X5X5XI K A Z X.R.[ Y 5X5X5X5X5X5X5X5X5X5X5X5X5X5X5X5X",
"5X5X5X5X5X5X5X5X5X5X5X, 9 M ] H.~.E.D 1 5X5X5X5X, 4 w F R.(.R.F 5X5X5X5X5X5X5X5X5X5X5X5X5X5X5X5X",
"5X5X5X5X5X5X5X5X5X5X# < N F o.~.#X^.Y 5X5X5X5X5X. # V [ !.#X/.] 1 5X5X5X5X5X5X5X5X5X5X5X5X5X5X5X",
"5X5X5X5X5X5X5X5X5X5X9 q D { L.XX#X~.D 5X5X5X5X5X  # V [ ~.#X(.o.q 5X5X5X5X5X5X5X5X5X5X5X5X5X5X5X",
"5X5X5X5X5X5X5X5X5X5X9 N D X.E..X(.J.w 5X5X5X5X5X. # N ] E..X#XJ.V 5X5X5X5X5X5X5X5X5X5X5X5X5X5X5X",
"5X5X5X5X5X5X5X5X5X@ 1 M C { E..X!.] 1 5X5X5X5X5X. # N Y +.~.(.o.w 5X5X5X5X5X5X5X5X5X5X5X5X5X5X5X",
"5X5X5X5X5X5X5X5XX @ # , 4 D H./.H.C 5X5X5X5X5X5X. # V F [ X.X.C < + 5X5X5X5X5X5X5X5X5X5X5X5X5X5X",
"5X5X5X5X5X5X5X, 1 4 q w C D [ o.Z 1 5X5X5X5X5X5X. # w C D D D Y ] C w 5X5X5X5X5X5X5X5X5X5X5X5X5X",
"5X5X5X5X5X5X, q D D ] o.H.X.D N 1 + 5X5X5X5X5X5X@ < q w w N Y L.~.E.] w 5X5X5X5X5X5X5X5X5X5X5X5X",
"5X5X5X5X5X1 w D ] o.E.^.(.~.{ 4 # 5X5X5X5X5X5X5X4 9 4 1 1 V @.~.#X#XW.{ q 5X5X5X5X5X5X5X5X5X5X5X",
"5X5X5X5X+ , 0 N C [ H.R.W.J.] < 5X5X5X5X5X5X5X5X< 1 1 1 1 w F @.R.E.L.[ q 5X5X5X5X5X5X5X5X5X5X5X",
"5X5X5X  X , 1 9 q C Y { X.[ D 1 5X5X5X5X5X5X5X5X# , 1 9 1 1 q C ] [ [ F 9 5X5X5X5X5X5X5X5X5X5X5X",
"5X5X5X5X5X5X5X5X5X5X5X5X5X5X5X5X5X5X5X5X5X5X5X5X5X5X5X5X5X5X5X5X5X5X5X5X5X5X5X5X5X5X5X5X5X5X5X5X",
"5X5X5X5X5X5X5X5X5X5X5X5X5X5X5X5X5X5X5X5X5X5X5X5X5X5X5X5X5X5X5X5X5X5X5X5X5X5X5X5X5X5X5X5X5X5X5X5X",
"5X5X5X5X5X5X5X5X5X5X5X5X5X5X5X5X5X5X5X5X5X5X5X5X5X5X5X5X5X5X5X5X5X5X5X5X5X5X5X5X5X5X5X5X5X5X5X5X"
};
