/* XPM */
static char *_8spaceship[] = {
/* columns rows colors chars-per-pixel */
"48 48 108 2 ",
"   c black",
".  c #151411",
"X  c #1B1B1B",
"o  c #303030",
"O  c #3C3C3C",
"+  c #3A3D47",
"@  c #414141",
"#  c #5A5A5A",
"$  c #757575",
"%  c #797774",
"&  c #7C7B77",
"*  c #7F7F7F",
"=  c #98001F",
"-  c #9A0323",
";  c #9C0827",
":  c #DA3D5E",
">  c #B94E65",
",  c #BA5167",
"<  c #8F6870",
"1  c #C04B64",
"2  c #6A9974",
"3  c #51DF6F",
"4  c #44FF6C",
"5  c #83827F",
"6  c #5D6A8F",
"7  c #5F6B90",
"8  c #606C91",
"9  c #727C98",
"0  c #1346DF",
"q  c #2951C7",
"w  c #2C53C8",
"e  c #3961D6",
"r  c #0F44E4",
"t  c #1246E3",
"y  c #1548E3",
"u  c #194DE7",
"i  c #2155EE",
"p  c #2558F2",
"a  c #2C5FF7",
"s  c #3862E0",
"d  c #2D61FD",
"f  c #3364F6",
"g  c #3064FF",
"h  c #3B6BFC",
"j  c #4C69C1",
"k  c #577DEC",
"l  c #456FF0",
"z  c #4E78F6",
"x  c #557DF6",
"c  c #CC7588",
"v  c #E46F88",
"b  c #7AE390",
"n  c #74FF92",
"m  c #758BCE",
"M  c #7794EB",
"N  c #678BF8",
"B  c #7C99F1",
"V  c #858485",
"C  c #8D8D8D",
"Z  c #9D8086",
"A  c #959594",
"S  c #9A9997",
"D  c #999999",
"F  c #82A489",
"G  c #8E9ABD",
"H  c #929BB7",
"J  c #9EA0A9",
"K  c #A2A2A2",
"L  c #ACACAC",
"P  c #B9AFB1",
"I  c #B4B4B3",
"U  c #B0BBB2",
"Y  c #BCBCBC",
"T  c #C3C1BE",
"R  c #A3ADCB",
"E  c #ACB4CF",
"W  c #AAB7DD",
"Q  c #B5BED8",
"!  c #8CA3E4",
"~  c #C5C5C5",
"^  c #CCCCCC",
"/  c #D0CFCF",
"(  c #C9CBD2",
")  c #CFD0D0",
"_  c #D4D4D3",
"`  c #D8D7D5",
"'  c #D9D8D5",
"]  c #DCDCDC",
"[  c #E3C6CC",
"{  c #EDD0D6",
"}  c #F7D0D8",
"|  c #C7EACF",
" . c #D2FFDC",
".. c #E3E1DB",
"X. c #C0C9E4",
"o. c #D8DBE3",
"O. c #D5DEFA",
"+. c #E3E3E3",
"@. c #E8E6E7",
"#. c #E7E8E8",
"$. c #ECECEC",
"%. c #EAEDF6",
"&. c #F1EFF1",
"*. c #F9EEF0",
"=. c #EFF1F1",
"-. c #F4F4F4",
";. c #FEFEFE",
":. c None",
/* pixels */
":.:.:.:.:.:.:.:.:.:.:.:.:.:.:.:.:.:.:.:.:.:.% % $ $ :.:.:.:.:.:.:.:.:.:.:.:.:.:.:.:.:.:.:.:.:.:.",
":.:.:.:.:.:.:.:.:.:.:.:.:.:.:.:.:.:.:.:.:.:.A C C A :.:.:.:.:.:.:.:.:.:.:.:.:.:.:.:.:.:.:.:.:.:.",
":.:.:.:.:.:.:.:.:.:.:.:.:.:.:.:.:.:.:.:.;.$.~ Y Y ^ #.;.:.:.:.:.:.:.:.:.:.:.:.:.:.:.:.:.:.:.:.:.",
":.:.:.:.:.:.:.:.:.:.:.:.:.:.:.:.:.:.:.:.-.$.] _ _ ] $.-.:.:.:.:.:.:.:.:.:.:.:.:.:.:.:.:.:.:.:.:.",
":.:.:.:.:.:.:.:.:.:.:.:.:.:.:.:.:.:.;.-.@.] ` _ ' _ ] @.-.;.:.:.:.:.:.:.:.:.:.:.:.:.:.:.:.:.:.:.",
":.:.:.:.:.:.:.:.:.:.:.:.:.:.:.:.:.:.;.-...( Q W W Q ( ..-.;.:.:.:.:.:.:.:.:.:.:.:.:.:.:.:.:.:.:.",
":.:.:.:.:.:.:.:.:.:.:.:.:.:.:.:.:.:.;.-...Q M x x M Q ..-.;.:.:.:.:.:.:.:.:.:.:.:.:.:.:.:.:.:.:.",
":.:.:.:.:.:.:.:.:.:.:.:.:.:.:.:.:.:.#.%.X.! z d d z ! X.%.$.:.:.:.:.:.:.:.:.:.:.:.:.:.:.:.:.:.:.",
":.:.:.:.:.:.:.:.:.:.:.:.:.:.      . :.:.N z h d d h z N :.:..       :.:.:.:.:.:.:.:.:.:.:.:.:.:.",
":.:.:.:.:.:.:.:.:.:.:.:.:.:.@ O O + :.:.d d d f a d d d :.:.+ O O @ :.:.:.:.:.:.:.:.:.:.:.:.:.:.",
":.:.:.:.:.:.:.:.:.:.:.:.$ V I T T R k d d d i u u i f d d k R ~ T L V $ :.:.:.:.:.:.:.:.:.:.:.:.",
":.:.:.:.:.:.:.:.:.:.:.:.A I +.;.;.O.B l f p u 0 0 u p f l B O.;.;.+.I A :.:.:.:.:.:.:.:.:.:.:.:.",
":.:.:.:.:.:.:.:.:.:.:.:.] +.#.=.$.o.E m s u y t t y u s m E o.$.$.#.+.] :.:.:.:.:.:.:.:.:.:.:.:.",
":.:.:.:.:.:.:.:.:.:.:.:.;.-.#.{ +.' T G e r r y y r r e G T ' +.] @.;.;.:.:.:.:.:.:.:.:.:.:.:.:.",
":.:.:.:.:.:.:.:.:.:.:.:.;.-.#.+.+.' T G e r t y t r r e G T ' ..+.@.;.;.:.:.:.:.:.:.:.:.:.:.:.:.",
":.:.:.:.:.:.:.:.:.:.:.:.;.;.#.+.+.' T H j q q w w w q j H T ` +.+.#.-.;.:.:.:.:.:.:.:.:.:.:.:.:.",
":.:.:.:.:.:.:.:.:.:.:.:.;.-.#.] ..` Y J 9 6 6 8 8 7 6 9 J T ` +.+.@.-.;.:.:.:.:.:.:.:.:.:.:.:.:.",
":.:.:.:.:.:.:.:.:.:.:.:.;.;.$.@.+.] ~ I A 5 & % % & 5 A I ~ ` +.#.$.;.;.:.:.:.:.:.:.:.:.:.:.:.:.",
":.:.:.:.:.:.:.:.:.:.:.:.:.:.;.&.#.] ] ^ I S 5 % % 5 S I ^ ] ] #.-.-.:.:.:.:.:.:.:.:.:.:.:.:.:.:.",
":.:.:.:.:.:.:.:.:.:.:.:.:.:.;.;.$.+.] _ ~ I A V V S I ~ ) ] @.$.;.;.:.:.:.:.:.:.:.:.:.:.:.:.:.:.",
":.:.:.:.:.:.:.:.:.:.:.:.:.:.:.:.;.$.^ ~ _ ^ Y L I I ^ ^ ~ ^ $.;.:.:.:.:.:.:.:.:.:.:.:.:.:.:.:.:.",
":.:.:.:.:.:.:.:.:.:.:.:.:.:.:.:.$.+.^ ~ ] ] / ^ ^ _ +.] ~ ~ +.$.:.:.:.:.:.:.:.:.:.:.:.:.:.:.:.:.",
":.:.:.:.:.:.; ; :.:.:.:.;.;.;.%.( ^ _ ' +.+.] ] ] ] +.+.] _ ^ ^ $.;.;.;.:.:.:.:.; ; :.:.:.:.:.:.",
":.:.:.:.:.:.; - :.:.:.:.$.$.$.+.~ ~ ] ] ^ ^ ] +.+.] ^ ^ ] ] ~ ~ o.-.$.$.:.:.:.:.- ; :.:.:.:.:.:.",
":.:.:.:.:.:.- = :.:.;.$._ ~ ~ ~ ) ] +.) K K ^ +.+.^ K K ( +.] ) ^ ~ ~ _ $.;.:.:.= - :.:.:.:.:.:.",
":.:.:.:.:.:., > :.:.-.+.~ Y Y ~ ] ..) I S K ^ +.+.^ K D Y ^ ] ] ~ Y Y ~ +.-.:.:.> , :.:.:.:.:.:.",
":.:.:.:.;.*.{ { *.=._ ~ _ _ ` ] +.^ K D I ) ] +.+.] ^ I D K ) +.] _ ` ) ~ _ %.*.{ { *.;.:.:.:.:.",
":.:.:.:.;.-.-.=.$.+.~ ~ ` +.+.] _ I D K / @.+.+.+.+.@.^ K D I / ] +.+.] ~ ~ ..$.=.-.-.;.:.:.:.:.",
":.:.;.;.$.+.^ ~ ~ ^ ) ] ] +.+.^ K S I ) ] +.+.+.+.+.+.] ) Y S K ^ +.+.] ` ) ^ ~ ~ / +.$.;.;.:.:.",
":.:.$.-.] _ ~ Y Y ~ ] +.+.@.+.^ J K ) +.+.] / ~ ~ / ] +.@.^ K K ^ +.+.+.#.] ~ Y Y ~ ) ] &.%.:.:.",
"% D _ ..^ T ^ ` ` ] +.+.@.+...] ^ ^ ] +.+.) K C C K ( @.+.] ^ ^ ] +.+.+.+.+.] ` ` ( ~ ~ +.) D $ ",
"% C ~ ' T E ` ] / ~ ~ ~ ~ ^ ] +.+.+.+.] ^ Y K A A K Y ^ ] +.+...+.] ( ~ ~ ~ ~ ) ] ` Y T ` ^ C % ",
"$ A ~ ] T Y ` ) J C C C C K ^ #.+.+.+.^ J K ^ ] ..^ K K ^ +.+.+.+.^ K C C C C K _ ] T E ' ~ A $ ",
"$ C T ) ~ ~ o.) K C C C C K / ..+.+.+.~ C A ] ;.;.] A C ~ +.+.+.+.^ K C C C C K ) ] ~ ~ ' T C $ ",
"% V L ~ ) o.{ ] ^ T ~ ~ ~ ^ ] +.+.+.+.~ C A ] ;.;.] A C ~ +.+.+.+.] ^ ~ ~ ~ ~ ^ ` ] ] _ ~ L C $ ",
"% 5 K Q _ +.#.+.#.#.#.#.#.+.+.+.+.+.+.~ C A ] ;.;.] A C ~ +.+.+.+.+.+.@.+.@.@.+.+.+.+.` Y K V % ",
"% V K Y ` +.+.@.+.#.+.@.+.#.+.+.+.+.+.~ C A ] ;.;.] A C ~ +.+.+.+.+.+.#.+.#.@.@.+.+.+.` T K V $ ",
"2 F I / ] ] ^ ~ ~ ~ ~ ^ ~ ~ ~ ^ ] +.+.^ K L @.;.;.@.L K ^ +.+.] ^ ~ ~ ~ ~ ~ ~ ~ ~ ^ ] ] / I Z < ",
"3 b | $.@.^ K C C C C C C C C K ^ +.@.] ^ _ -.;.;.-._ ^ ] @.+.^ J C C C A C C C C K ^ #.$.[ c > ",
"4 n  .;.&._ L A A D A D S A A L ` +.^ ^ ] +.+.] ] +.+.] ^ ( ..` L A A S A S S A A K ^ $.;.} v : ",
":.:.:.:.;.-.@.] ] ] ] +.] ] ] #.-.] K K _ _ L A A L ` _ K K ] -.@.] +.] ] ] +.] +.] :.:.:.:.:.:.",
":.:.:.:.;.;.;.;.;.;.;.;.;.;.;.;.;.+.L K Y Y D C C D Y Y K L +.;.;.;.;.;.;.;.;.;.;.;.:.:.:.:.:.:.",
":.:.:.:.:.:.:.:.:.:.:.:.:.:.:.:.:.:.+.^ D D Y ^ ^ I D D ^ +.:.:.:.:.:.:.:.:.:.:.:.:.:.:.:.:.:.:.",
":.:.:.:.:.:.:.:.:.:.:.:.:.:.:.:.:.:.;.+.L K Y ^ ( Y K L +.;.:.:.:.:.:.:.:.:.:.:.:.:.:.:.:.:.:.:.",
":.:.:.:.:.:.:.:.:.:.:.:.:.:.:.:.:.:.:.:.+.^ K A A K ^ @.:.:.:.:.:.:.:.:.:.:.:.:.:.:.:.:.:.:.:.:.",
":.:.:.:.:.:.:.:.:.:.:.:.:.:.:.:.:.:.:.:.;.^ V # # 5 _ ;.:.:.:.:.:.:.:.:.:.:.:.:.:.:.:.:.:.:.:.:.",
":.:.:.:.:.:.:.:.:.:.:.:.:.:.:.:.:.:.:.:.:.:.@ o o @ :.:.:.:.:.:.:.:.:.:.:.:.:.:.:.:.:.:.:.:.:.:.",
":.:.:.:.:.:.:.:.:.:.:.:.:.:.:.:.:.:.:.:.:.:.X X X X :.:.:.:.:.:.:.:.:.:.:.:.:.:.:.:.:.:.:.:.:.:."
};
