/* XPM */
static char *_8shuttle2[] = {
/* columns rows colors chars-per-pixel */
"48 48 109 2 ",
"   c #010101",
".  c #0B0B0B",
"X  c #131313",
"o  c #1C1C1C",
"O  c #232323",
"+  c gray18",
"@  c #333333",
"#  c #3D3D3D",
"$  c #444444",
"%  c #4B4B4B",
"&  c #4D5558",
"*  c #535353",
"=  c #5E5E5E",
"-  c #636363",
";  c #6C6C6C",
":  c #6F767A",
">  c #747473",
",  c #797674",
"<  c #71777A",
"1  c #737B7E",
"2  c #7B7B7B",
"3  c #DD0000",
"4  c #DD1818",
"5  c #E20000",
"6  c #E91818",
"7  c #D92020",
"8  c #CE3D3D",
"9  c #D03434",
"0  c #E92020",
"q  c #EA3535",
"w  c #807E7D",
"e  c #A57B7B",
"r  c #CD4747",
"t  c #D64747",
"y  c #CA5252",
"u  c #C85D5D",
"i  c #D15D5D",
"p  c #C66161",
"a  c #CE7676",
"s  c #C07D7D",
"d  c #777D80",
"f  c #7E878E",
"g  c #638392",
"h  c #5D8EAE",
"j  c #559ABC",
"k  c #6192AF",
"l  c #6291B0",
"z  c #699CBC",
"x  c #79A2B9",
"c  c #3EACDF",
"v  c #3CACE0",
"b  c #509FC5",
"n  c #50AFDF",
"m  c #66A2C1",
"M  c #6BA2C1",
"N  c #68A5C9",
"B  c #6EA9CC",
"V  c #71B2D8",
"C  c #42AFE3",
"Z  c #46B1E3",
"A  c #4BB3E6",
"S  c #52B1E0",
"D  c #55B8EB",
"F  c #5ABBEE",
"G  c #5CBEF1",
"H  c #6EBFED",
"J  c #5DC1F6",
"K  c #65C1F3",
"L  c #6AC3F5",
"P  c #71C6F8",
"I  c #7FD1FF",
"U  c #848484",
"Y  c #8C8C8C",
"T  c #939393",
"R  c #9C9191",
"E  c #9B9897",
"W  c #979D9D",
"Q  c #9B9B9B",
"!  c #BF8484",
"~  c #BB9696",
"^  c #A4A4A4",
"/  c #AAA7A6",
"(  c #ADADAD",
")  c #B7A7A7",
"_  c #BAA7A7",
"`  c #B6ABAB",
"'  c #B4B4B4",
"]  c #B2BBBB",
"[  c #BBBBBB",
"{  c #C88484",
"}  c #C78989",
"|  c #94C6DD",
" . c #AFC5D2",
".. c #9FCEE5",
"X. c #83D2FF",
"o. c #C4C4C4",
"O. c #C8C4C3",
"+. c #CBC8C6",
"@. c #CACACA",
"#. c #D3D3D3",
"$. c #DCDCDC",
"%. c #E3E0DF",
"&. c #C8ECFF",
"*. c #E3E3E3",
"=. c #EAE9E9",
"-. c #F0EFEE",
";. c #F4F4F4",
":. c #FDFDFD",
">. c None",
/* pixels */
">.>.>.>.>.>.>.>.>.>.>.>.>.>.>.>.>.>.>.>.>.>.>.o . >.>.>.>.>.>.>.>.>.>.>.>.>.>.>.>.>.>.>.>.>.>.>.",
">.>.>.>.>.>.>.>.>.>.>.>.>.>.>.>.>.>.>.>.>.>.@ #.; o >.>.>.>.>.>.>.>.>.>.>.>.>.>.>.>.>.>.>.>.>.>.",
">.>.>.>.>.>.>.>.>.>.>.>.>.>.>.>.>.>.>.>.>.  #.#.( *   >.>.>.>.>.>.>.>.>.>.>.>.>.>.>.>.>.>.>.>.>.",
">.>.>.>.>.>.>.>.>.>.>.>.>.>.>.>.>.>.>.>.>.% #.[ ' > o >.>.>.>.>.>.>.>.>.>.>.>.>.>.>.>.>.>.>.>.>.",
">.>.>.>.>.>.>.>.>.>.>.>.>.>.>.>.>.>.>.>.  [ *.o.' / *   >.>.>.>.>.>.>.>.>.>.>.>.>.>.>.>.>.>.>.>.",
">.>.>.>.>.>.>.>.>.>.>.>.>.>.>.>.>.>.>.>.- #.%.@.' ( ; O >.>.>.>.>.>.>.>.>.>.>.>.>.>.>.>.>.>.>.>.",
">.>.>.>.>.>.>.>.>.>.>.>.>.>.>.>.>.>.>.  ( *.@.@.' ^ Q %   >.>.>.>.>.>.>.>.>.>.>.>.>.>.>.>.>.>.>.",
">.>.>.>.>.>.>.>.>.>.>.>.>.>.>.>.>.>.>.; #.*.@.o.' ^ Q ; + >.>.>.>.>.>.>.>.>.>.>.>.>.>.>.>.>.>.>.",
">.>.>.>.>.>.>.>.>.>.>.>.>.>.>.>.>.>.  W =.$.o.' ' Q ^ Y #   >.>.>.>.>.>.>.>.>.>.>.>.>.>.>.>.>.>.",
">.>.>.>.>.>.>.>.>.>.>.>.>.>.>.>.>.>.; $.*.o.@.' ' ( Q U - + >.>.>.>.>.>.>.>.>.>.>.>.>.>.>.>.>.>.",
">.>.>.>.>.>.>.>.>.>.>.>.>.>.>.>.>.>.Y -.o.@.[ ' ( Q ^ T f # >.>.>.>.>.>.>.>.>.>.>.>.>.>.>.>.>.>.",
">.>.>.>.>.>.>.>.>.>.>.>.>.>.>.>.>.; =.%.[ ; & > : : d U , , + >.>.>.>.>.>.>.>.>.>.>.>.>.>.>.>.>.",
">.>.>.>.>.>.>.>.>.>.>.>.>.>.>.>.>.> :.%.< N n H S H b 1 w > + >.>.>.>.>.>.>.>.>.>.>.>.>.>.>.>.>.",
">.>.>.>.>.>.>.>.>.>.>.>.>.>.>.>.>.> :.2 z F L D L D L j , w + >.>.>.>.>.>.>.>.>.>.>.>.>.>.>.>.>.",
">.>.>.>.>.>.>.>.>.>.>.>.>.>.>.>.>.> ;.f B X.A K A L F V : ; + >.>.>.>.>.>.>.>.>.>.>.>.>.>.>.>.>.",
">.>.>.>.>.>.>.>.>.>.>.>.>.>.>.>.>., Q l X.P Z c C Z G G M ; @ >.>.>.>.>.>.>.>.>.>.>.>.>.>.>.>.>.",
">.>.>.>.>.>.>.>.>.>.>.>.>.>.>.>.>.2 Q l X.A v v v Z F K m , + >.>.>.>.>.>.>.>.>.>.>.>.>.>.>.>.>.",
">.>.>.>.>.>.>.>.>.>.>.>.>.>.>.>.>., Q h I A v v v C F G B , + >.>.>.>.>.>.>.>.>.>.>.>.>.>.>.>.>.",
">.>.>.>.>.>.>.>.>.>.>.>.>.>.>.>.>.> @. .&...| | | | | x g 2 + >.>.>.>.>.>.>.>.>.>.>.>.>.>.>.>.>.",
">.>.>.>.>.>.>.>.>.>.>.>.>.>.>.>.>.> :.-.=.%.+.O.o.O./ Y w > + >.>.>.>.>.>.>.>.>.>.>.>.>.>.>.>.>.",
">.>.>.>.>.>.>.>.>.>.>.>.          > :.$.$.o.@.' ' Q ^ U 2 2 +           >.>.>.>.>.>.>.>.>.>.>.>.",
">.>.>.>.>.>.>.>.>.>.>.X ` / ^ ^ U Q :.*.$.#.o.' ' / Q T U > # $ ^ ( ^ Q X >.>.>.>.>.>.>.>.>.>.>.",
">.>.>.>.>.>.>.>.>.>.. [ *. .] ^ Y ( ;.$.$.o.@.[ ( Q ^ U , 2 # - #.%.o.' *   >.>.>.>.>.>.>.>.>.>.",
">.>.>.>.>.>.>.>.>.>.. *.%.@.' ^ , ( :.=.$.#.o.' ' ( Q Y U > # - @.o.' E = . >.>.>.>.>.>.>.>.>.>.",
">.>.>.>.>.>.>.>.>.>.. $.$.[ ( T f ( ;.$.$.o.#.[ ' Q ( U 2 w # - @.#.[ / -   >.>.>.>.>.>.>.>.>.>.",
">.>.>.>.>.>.>.>.>.>.+ *.%.@.' ^ 2 ( :.*.$.@./ ^ ^ ^ Y Y f ; # - o.+.' W - . >.>.>.>.>.>.>.>.>.>.",
">.>.>.>.>.>.>.>.>.@ ' ;.$.o.( E 2 ` ;.%.#.W Y U U U ; 2 2 2 # - +.#.' ^ - O o >.>.>.>.>.>.>.>.>.",
">.>.>.>.>.>.>.# $ ( o.;.$.@.( ^ 2 ( :.*.^ %.:.#.#.' - * w ; # = @.@.' W - # d $ # >.>.>.>.>.>.>.",
">.>.>.>.>.# % ^ #.[ ' ;.$.o.( Q 2 ( :.*.^ $.#.' ( 2 - % ; ; # - @.#.' ^ - @ W #.Q * # >.>.>.>.>.",
">.>.>.@ - T #.[ ` ' [ ;.$.o.' Q w ( :.*./ o.@.' ( 2 = % ; ; # - @.@.' ^ - @ W ' [ #.T - + >.>.>.",
">.O U Q #. .' ' ' ' ' ;.$.o.' ^ 2 ( :.*.^ @.@.' ' , = % ; ; # - +.@.' ^ - @ E ' ] ' o.@.Y > o   ",
"o ^ $.@.` ] a } [ ' [ ;.$. .( Q w ( ;.*.^ +.#.] ( U = % ; ; # - +.#.' ^ ; @ E ] } a ] ' o.@.; . ",
"o $.' ' { q 6 7 9 ~ [ ;.$.@.' ^ 2 ( :.*./ @.o.' ( , - % ; ; # - +.@.' Q - @ e q 0 4 9 ! ' ' T X ",
"o @.' ' _ t 3 3 u ` [ ;.$.[ ( T 2 ' :.$.^ @.#.[ ( U - % ; ; # - o.#.[ ^ ; @ R i 5 3 r ) ' ' Y X ",
"o #.' ' ] p y 8 s ] ] ;.$.@.' ^ 2 ( :.=.^ @.o.' ( > = % ; ; # - @.@.' W - @ W s 8 y p ] ' ' T X ",
"o @.' ' ' ` ` ` ` ' ' ;.$.[ ( E d ( ;.$.^ @.#.' ( U - % ; ; # - +.#.[ ^ - @ Q ` ` ` ` ' ' ' T X ",
"o @.' ' ' ( ( ' ' ' ' ;.$.#.' ^ 2 ` :.=.^ +.O.' ( > - % ; ; # - +. .' E - @ W ( ' ( ' ' ( ' Y X ",
"o @.^ > , , 2 2 < , ( ;.$.[ ( E d ( ;.*.^ @.#.] ' U - % ; ; # - +.$.[ / ; + 2 , 2 2 > , 2 ^ T X ",
"o Q =               - #.@.[ ^ Q < ` :.=.^ @.@.' ( 2 = % ; ; # = ' ` ^ Y - o               = ; X ",
">.    >.>.>.>.>.>.>.  $ $ $ $ % $ ^ ;.%.] ^ / Y Y > * * ; ; # + $ $ $ % $   >.>.>.>.>.>.>.    >.",
">.>.>.>.>.>.>.>.>.>.>.  . # o     > :.=.*.Y * - * % * ; ; ; @     @ +     >.>.>.>.>.>.>.>.>.>.>.",
">.>.>.>.>.>.>.>.>.>.>.>.>.o.- >.>.= @.[ [ o.T o.; * ; ; ; ; @ >.>.#.2 >.>.>.>.>.>.>.>.>.>.>.>.>.",
">.>.>.>.>.>.>.>.>.>.>.>.( - * X >.+ # # # $ ^ ; - X + @ @ + o >.o.> ; o >.>.>.>.>.>.>.>.>.>.>.>.",
">.>.>.>.>.>.>.>.>.>.>.>.% > O X >.>.>.>.>.>.# 2 + X >.>.>.>.>.>.# > @ X >.>.>.>.>.>.>.>.>.>.>.>.",
">.>.>.>.>.>.>.>.>.>.>.>.> % @ . >.>.>.>.>.>.> % # . >.>.>.>.>.>., * $ X >.>.>.>.>.>.>.>.>.>.>.>.",
">.>.>.>.>.>.>.>.>.>.>.>.' Q = X >.>.>.>.>.>.[ ^ - o >.>.>.>.>.>.[ ^ > O >.>.>.>.>.>.>.>.>.>.>.>.",
">.>.>.>.>.>.>.>.>.>.>.>.>.>.>.>.>.>.>.>.>.>.>.>.>.>.>.>.>.>.>.>.>.>.>.>.>.>.>.>.>.>.>.>.>.>.>.>.",
">.>.>.>.>.>.>.>.>.>.>.>.>.>.>.>.>.>.>.>.>.>.>.>.>.>.>.>.>.>.>.>.>.>.>.>.>.>.>.>.>.>.>.>.>.>.>.>."
};
