/* XPM */
static char *lava_32[] = {
/* columns rows colors chars-per-pixel */
"32 32 49 1 ",
"  c #513300",
". c #5C3600",
"X c #543900",
"o c #5C3A00",
"O c #623600",
"+ c #6B3700",
"@ c #643C00",
"# c #6B3D00",
"$ c #733D00",
"% c #7B3E00",
"& c #654200",
"* c #6C4200",
"= c #6D4900",
"- c #744400",
"; c #7B4500",
": c #754900",
"> c #7C4B00",
", c #755500",
"< c #7D5300",
"1 c #7D5B00",
"2 c #813E00",
"3 c #824400",
"4 c #8B4500",
"5 c #834C00",
"6 c #8B4C00",
"7 c #914700",
"8 c #914D00",
"9 c #845200",
"0 c #8B5300",
"q c #865A00",
"w c #8C5A00",
"e c #935400",
"r c #9B5500",
"t c #945B00",
"y c #9B5D00",
"u c #846100",
"i c #8C6200",
"p c #8E6A00",
"a c #936400",
"s c #9C6200",
"d c #936B00",
"f c #9C6900",
"g c #A26400",
"h c #A36A00",
"j c #A96B00",
"k c #A27000",
"l c #A97100",
"z c #AD7800",
"x c #B17800",
/* pixels */
";e*+X*-r.+X-6>.@@-r.#X-56.+o-r#+",
"z933eyf;%e6l933eth>366ht;%e6l<;3",
";#3t-;*;5w*>*;e;;*-3t*>*309---3t",
"sdo95ga1+00sd&>9ssi.w5ga=-9tsdo0",
"-w;>@>;w-:*;9;>@-:w-:@>>9;*--w-9",
"-0#0-;-0#e-;<;55;*0+t->;5-5;-0#e",
"se$$@<t8O$@wr;+#:tr+$@0t6O$&tr#$",
"a*40ee9-7e0s=36teq*7e0t:;7tew*76",
"0>@t:9>;*t-w>*9><9>@a*0>-:9:99@a",
"0d:>-eqp-:50d:>-00d->;epq;:00d-5",
"-5*9$5-5*9-;5-9;5-9#0-5:;:>;;5#w",
"-e-;@--r+;@-93###*e+>@-;6#;@-e$>",
"x0%;5tf5$5>jt;%50h9%3>gs3$65l0%%",
":#4t:3*;6t-5@3e<3:#6t:5@3e9;:#6t",
"siow5st,@t5sa@<9taqow5sa=*0wyiXw",
";i;:@5<w;**>q5>@>;a-:+510>&-;i;5",
";9#0;5-5#e-;5-555-0+t-5>;;0;;0+t",
"0r$#@:0rO-o9e;+@*5r@$o>06O*o9r#$",
"h:44eyi-4eeg:36eea-40esq;4eef*44",
">--w->-;;w*9--w:>-;-t*5-;59->;-a",
"td*9>ytu#99yd*>;ytp+9>ya,->etd*9",
":9*9#>:9->*>5;9*;-0*9*5:5;:-;9*w",
"-0$5*;*e+0#-5;;--*e+5#-;6*5*#e#0",
"le$$-ws6+;-sy;#;<he+;-ay5+3-he$$",
"9@6e96:-6t50&6e06:*8e50&37w59@6e",
"twow>tw:@t;two95wt9.t:sw=:09tq.t",
">d;>*5<i;--5i>5@5>a-:*6q9>*>5p;5",
";9#0;5;5*t->>-9>5:5#t-5>;:6;-9+a",
">r-$.*>r@$o;63@**-y+$o-56O#@;y$$",
"z>33esf;286l933eth;260hw;3e0l:33",
";*;t-;*;5w*>*;e:;*-;t*>&309--$3t",
"gd 90js,.tejfX>0hgqXt8jf&*eyhd w"
};
