/* XPM */
static char *megaman_32[] = {
/* columns rows colors chars-per-pixel */
"32 31 157 2 ",
"   c #000303",
".  c #070807",
"X  c #010609",
"o  c #01090C",
"O  c #0A0603",
"+  c #1B1005",
"@  c #020D12",
"#  c #030F18",
"$  c #03131B",
"%  c #031918",
"&  c #181818",
"*  c #210500",
"=  c #220801",
"-  c #261203",
";  c #322012",
":  c #382916",
">  c #041721",
",  c #041924",
"<  c #051D2A",
"1  c #05222E",
"2  c #1A2A2B",
"3  c #04302C",
"4  c #062433",
"5  c #072A3C",
"6  c #062D37",
"7  c #073D3F",
"8  c #063337",
"9  c #11353E",
"0  c #1B323A",
"q  c #2B2B2B",
"w  c #242627",
"e  c #3B3B3B",
"r  c #48270C",
"t  c #482D0B",
"y  c #4D3E23",
"u  c #503F21",
"i  c #553A3D",
"p  c #683724",
"a  c #6F3A23",
"s  c #29403E",
"d  c #6C491E",
"f  c #585138",
"g  c #7B5524",
"h  c #072B40",
"j  c #082F44",
"k  c #073342",
"l  c #083146",
"z  c #063248",
"x  c #09354A",
"c  c #0B3A4E",
"v  c #1E3947",
"b  c #133242",
"n  c #093B53",
"m  c #0A3E59",
"M  c #2C3C41",
"N  c #084245",
"B  c #09404E",
"V  c #0B4B48",
"C  c #0A4956",
"Z  c #0B425D",
"A  c #095156",
"S  c #2E494E",
"D  c #21495D",
"F  c #2D4A58",
"G  c #2C5D5A",
"H  c #0B645B",
"J  c #0B4663",
"K  c #0C4965",
"L  c #0D4D6D",
"P  c #1C4760",
"I  c #0B5265",
"U  c #0A5C64",
"Y  c #0C5169",
"T  c #1C5168",
"R  c #0D4F70",
"E  c #0D5273",
"W  c #0E567B",
"Q  c #0F597E",
"!  c #0E5E74",
"~  c #105375",
"^  c #11567A",
"/  c #12597B",
"(  c #21526B",
")  c #205C79",
"_  c #345F76",
"`  c #0D676E",
"'  c #0C6F6B",
"]  c #0D756A",
"[  c #0D6274",
"{  c #0F697F",
"}  c #0F727D",
"|  c #0E7C78",
" . c #464646",
".. c #404C43",
"X. c #544A51",
"o. c #595958",
"O. c #674F52",
"+. c #405D6B",
"@. c #676767",
"#. c #6A6B6C",
"$. c #757575",
"%. c #89440E",
"&. c #A7523D",
"*. c #8C6027",
"=. c #9B6A2B",
"-. c #966F38",
";. c #B37C34",
":. c #917352",
">. c #C3634D",
",. c #D08A33",
"<. c #D6933E",
"1. c #B98442",
"2. c #C5A376",
"3. c #0F5C83",
"4. c #155D82",
"5. c #0F6880",
"6. c #0F628C",
"7. c #11648D",
"8. c #106B8A",
"9. c #116792",
"0. c #126E9D",
"q. c #116996",
"w. c #1477A9",
"e. c #147BAF",
"r. c #1374A4",
"t. c #108287",
"y. c #108985",
"u. c #118E8D",
"i. c #0E9087",
"p. c #118F91",
"a. c #12849B",
"s. c #129E94",
"d. c #12A69D",
"f. c #1499A6",
"g. c #1581B7",
"h. c #1584BB",
"j. c #13A8A5",
"k. c #14B7A7",
"l. c #14BCAD",
"z. c #14B7AC",
"x. c #788389",
"c. c #15C3B2",
"v. c #178CC6",
"b. c #188FCA",
"n. c #818182",
"m. c #8A9295",
"M. c #909090",
"N. c #99999A",
"B. c #99A6AC",
"V. c #BCB3A7",
"C. c #BBBDBE",
"Z. c #C9C9C9",
"A. c #C3C1C1",
"S. c #D4D4D4",
"D. c #E0E0DF",
"F. c #E2E1E1",
"G. c None",
/* pixels */
"G.G.G.G.G.G.G.G.G.G.G.G.G.G.G.G.G.G.G.G.G.G.G.G.G.G.G.G.G.G.G.G.",
"G.G.G.G.G.G.G.G.G.G.G.G.G.G.G.G.G.% % G.G.G.G.G.G.G.G.G.G.G.G.G.",
"G.G.G.G.G.G.G.G.G.G.G.G.G.G.G.@ K t.y.8 , G.G.G.G.G.G.G.G.G.G.G.",
"G.G.G.G.G.G.G.G.G.G.G.G.G.G.1 n 3.Z { f.! $ G.G.G.G.G.G.G.G.G.G.",
"G.G.G.G.G.G.G.G.G.G.G.G.G.o n ~ 7.E l ` j.8 G.G.G.G.G.G.G.G.G.G.",
"G.G.G.G.G.G.G.G.G.G.G.G.G.4 Z J E 0.P p :.a = G.G.G.G.G.G.G.G.G.",
"G.G.G.G.G.G.G.G.G.G.G.G.X 4 $ c e.h.7.i >.&.= G.G.G.G.G.G.G.G.G.",
"G.G.G.G.G.G.G.G.G.G.G.G.  . ; q T S F 4.O.X.$ G.G.G.G.G.G.G.G.G.",
"G.G.G.G.G.G.G.G.G.G.G.G.G.- %.O t 1.V.b ^ ^ < G.G.G.G.G.G.G.G.G.",
"G.G.G.G.G.G.G.G.G.G.G.G.n 0 r $ u <.2.: ..5 G.G.G.G.G.G.G.G.G.G.",
"G.G.G.G.G.G.G.G.G.G.l n x 9.z $ y ,.<.;.=.G.G.G.G.G.G.G.G.G.G.G.",
"G.G.G.G.G.G.G.G.G.l a.d.N 3.3., 2 =.*.<.g G.G.G.G.G.G.G.G.G.G.G.",
"G.G.G.G.G.G.G.# 5 8.j.z.7 Z n x ^ f -.d + G.G.w & q G.G.G.G.G.G.",
"G.G.G.G.G.G.G.4 9.3.[ U # , 1 W h./ 9 V 3 G.w $.@.M.q G.G.G.G.G.",
"G.G.G.G.G.G.G.4 L 6._ x.#.2 U K / ~ ' c.H < v @.o.Z. .G.G.G.G.G.",
"G.G.G.G.G.G.G.$ l ( B.F.A.s i.u.N > } z.| 4./ m.$.$.e G.G.G.G.G.",
"G.G.G.G.G.G.G.G.$ F C.D.Z.M Y [ 1 G.4 I Y 3.~ +.n. .G.G.G.G.G.G.",
"G.G.G.G.G.G.G.G.G.q N.S.N.D 6.0.B G.G.o < j 5 # & G.G.G.G.G.G.G.",
"G.G.G.G.G.G.G.G.G.G.q @.G K Q 8.s.] G.G.G.    G.G.G.G.G.G.G.G.G.",
"G.G.G.G.G.G.G.G.G.G.$ A d.5.h } k.c.H o G.G.G.G.G.G.G.G.G.G.G.G.",
"G.G.G.G.G.G.G.G.G.# x C | 7 @ B p.d.V n < G.G.G.G.G.G.G.G.G.G.G.",
"G.G.G.G.G.G.G.G.$ l L Q 6 X G.G.c 8 x 0.K G.G.G.G.G.G.G.G.G.G.G.",
"G.G.G.G.G.G.G.$ l J r.v.l G.G.G.X 5 L v.q., G.G.G.G.G.G.G.G.G.G.",
"G.G.G.G.G.G.G.4 m Q v.g.5 G.G.G.  5 E v.g.5 G.G.G.G.G.G.G.G.G.G.",
"G.G.G.G.G.G.$ l m 7.v.Q $ G.G.G.X 5 K w.v.x G.G.G.G.G.G.G.G.G.G.",
"G.G.G.G.G.X # $ < W e.x G.G.G.G.  h m L J > @ G.G.G.G.G.G.G.G.G.",
"G.G.G.G.$ l x Z L x x @ G.G.G.G.@ 4 l 5 n 0.W < G.G.G.G.G.G.G.G.",
"G.G.G.> x Z 3.g.v.3.$ G.G.G.G.G.4 4 > 5 7.v.v.3.< G.G.G.G.G.G.G.",
"G.G.  $ 1 4 n L L Z > G.G.G.G.G.$ < 1 < 5 Z L J < G.G.G.G.G.G.G.",
"G.G.G.G.G.G.G.G.G.G.G.G.G.G.G.G.G.G.G.G.G.G.G.G.G.G.G.G.G.G.G.G.",
"G.G.G.G.G.G.G.G.G.G.G.G.G.G.G.G.G.G.G.G.G.G.G.G.G.G.G.G.G.G.G.G."
};
