/* XPM */
static char *megaman_50[] = {
/* columns rows colors chars-per-pixel */
"50 48 208 2 ",
"   c #000304",
".  c #010609",
"X  c #01090C",
"o  c #130A05",
"O  c #14110B",
"+  c #020E15",
"@  c #03141C",
"#  c #0F1A1C",
"$  c #061418",
"%  c #1A1816",
"&  c #200600",
"*  c #291C12",
"=  c #37190A",
"-  c #06241F",
";  c #3D240C",
":  c #28241E",
">  c #382411",
",  c #041721",
"<  c #041A25",
"1  c #081B24",
"2  c #051D2A",
"3  c #141F22",
"4  c #05212D",
"5  c #062729",
"6  c #172429",
"7  c #103029",
"8  c #062433",
"9  c #072836",
"0  c #062738",
"q  c #072A3B",
"w  c #082B3C",
"e  c #132D3B",
"r  c #06323C",
"t  c #063E3A",
"y  c #073338",
"u  c #16333A",
"i  c #27282C",
"p  c #292A28",
"a  c #393223",
"s  c #272E30",
"d  c #283538",
"f  c #343435",
"g  c #3C3C3C",
"h  c #333B3F",
"j  c #2F332A",
"k  c #5E310E",
"l  c #4A2918",
"z  c #502113",
"x  c #463318",
"c  c #71390D",
"v  c #413721",
"b  c #673F2C",
"n  c #633B35",
"m  c #274439",
"M  c #354039",
"N  c #6E491D",
"B  c #5A533A",
"V  c #604A26",
"C  c #79592C",
"Z  c #7D5F31",
"A  c #7B633A",
"S  c #072D41",
"D  c #082E42",
"F  c #073043",
"G  c #093244",
"H  c #09354C",
"J  c #093B4C",
"K  c #063747",
"L  c #143746",
"P  c #0A3B53",
"I  c #0B3E58",
"U  c #213944",
"Y  c #343F49",
"T  c #094B4D",
"R  c #094348",
"E  c #1D4A49",
"W  c #094353",
"Q  c #0B425C",
"!  c #0B4A5C",
"~  c #0A4A57",
"^  c #1C465A",
"/  c #154358",
"(  c #0A5759",
")  c #284448",
"_  c #2E4A5A",
"`  c #2E5459",
"'  c #394142",
"]  c #0B4662",
"[  c #0C4A65",
"{  c #0D4C6B",
"}  c #154B65",
"|  c #0C5465",
" . c #0B5E63",
".. c #0D536D",
"X. c #0C5C6A",
"o. c #195268",
"O. c #0D4F70",
"+. c #0E5374",
"@. c #0E567A",
"#. c #0F5A7D",
"$. c #0E5D74",
"%. c #135474",
"&. c #105679",
"*. c #185A76",
"=. c #275468",
"-. c #395A6C",
";. c #275A74",
":. c #244D67",
">. c #0D646C",
",. c #0C6968",
"<. c #0C736D",
"1. c #0E796F",
"2. c #0F6C7C",
"3. c #0D6774",
"4. c #0D747B",
"5. c #0E7B76",
"6. c #117279",
"7. c #286377",
"8. c #366D6E",
"9. c #434343",
"0. c #4C4B4B",
"q. c #444B40",
"w. c #595A5A",
"e. c #555858",
"r. c #514951",
"t. c #6D5052",
"y. c #7E6C4B",
"u. c #535460",
"i. c #5E6467",
"p. c #576C76",
"a. c #636363",
"s. c #6C6C6C",
"d. c #666F6F",
"f. c #62716F",
"g. c #646F73",
"h. c #797979",
"j. c #737373",
"k. c #825A26",
"l. c #984B33",
"z. c #8E642C",
"x. c #9E6C2D",
"c. c #93662B",
"v. c #A36F2D",
"b. c #B47C34",
"n. c #924F42",
"m. c #955648",
"M. c #AB5B4B",
"N. c #836549",
"B. c #8E785A",
"V. c #B46247",
"C. c #0F877B",
"Z. c #1B807C",
"A. c #38877C",
"S. c #C88938",
"D. c #D4913C",
"F. c #AF8145",
"G. c #838178",
"H. c #CD944C",
"J. c #CEA570",
"K. c #0F5D83",
"L. c #0F5F89",
"P. c #105F86",
"I. c #0F6589",
"U. c #11638C",
"Y. c #116489",
"T. c #0E7882",
"R. c #107889",
"E. c #116792",
"W. c #116995",
"Q. c #126C99",
"!. c #1A6C93",
"~. c #15709D",
"^. c #206283",
"/. c #1374A4",
"(. c #1379AD",
"). c #157EB2",
"_. c #4D7386",
"`. c #677C86",
"'. c #717E84",
"]. c #0E8383",
"[. c #0F8F86",
"{. c #108C89",
"}. c #10988B",
"|. c #118895",
" X c #119593",
".X c #129F9F",
"XX c #0E9198",
"oX c #12A69B",
"OX c #1581B7",
"+X c #1684BB",
"@X c #1399A3",
"#X c #13A9A3",
"$X c #14B6A9",
"%X c #7C8487",
"&X c #7D929E",
"*X c #1789C3",
"=X c #898989",
"-X c #9E9E9E",
";X c #ACACAC",
":X c #A5A5A5",
">X c #B4B9BB",
",X c #A9B2B6",
"<X c #C7AC8B",
"1X c #C0BFC0",
"2X c #C2C2C2",
"3X c #D6D6D6",
"4X c #E1DFDF",
"5X c None",
/* pixels */
"5X5X5X5X5X5X5X5X5X5X5X5X5X5X5X5X5X5X5X5X5X5X5X5X5X5X5X5X5X5X5X5X5X5X5X5X5X5X5X5X5X5X5X5X5X5X5X5X5X5X",
"5X5X5X5X5X5X5X5X5X5X5X5X5X5X5X5X5X5X5X5X5X5X5X5X5X5X5X5X5X5X5X5X5X5X5X5X5X5X5X5X5X5X5X5X5X5X5X5X5X5X",
"5X5X5X5X5X5X5X5X5X5X5X5X5X5X5X5X5X5X5X5X5X5X5X5X5X5X5 5 5 5 5X5X5X5X5X5X5X5X5X5X5X5X5X5X5X5X5X5X5X5X",
"5X5X5X5X5X5X5X5X5X5X5X5X5X5X5X5X5X5X5X5X5X5X5X5X@ I >.3.<.( y < < 5X5X5X5X5X5X5X5X5X5X5X5X5X5X5X5X5X",
"5X5X5X5X5X5X5X5X5X5X5X5X5X5X5X5X5X5X5X5X5X5X5X< 0 [ $.2.].4. .J q 5X5X5X5X5X5X5X5X5X5X5X5X5X5X5X5X5X",
"5X5X5X5X5X5X5X5X5X5X5X5X5X5X5X5X5X5X5X5X5X5X8 D Q @.+.[ $.R.|.R.! < 5X5X5X5X5X5X5X5X5X5X5X5X5X5X5X5X",
"5X5X5X5X5X5X5X5X5X5X5X5X5X5X5X5X5X5X5X5X5X@ F Q +.K.#.[ Q | T.XX5.t 5X5X5X5X5X5X5X5X5X5X5X5X5X5X5X5X",
"5X5X5X5X5X5X5X5X5X5X5X5X5X5X5X5X5X5X5X5X+ 2 P [ +.K.K.@.I E ` A.8.d p 5X5X5X5X5X5X5X5X5X5X5X5X5X5X5X",
"5X5X5X5X5X5X5X5X5X5X5X5X5X5X5X5X5X5X5X5X4 q I Q [ +.U.E.%.Y n N.N.b z & 5X5X5X5X5X5X5X5X5X5X5X5X5X5X",
"5X5X5X5X5X5X5X5X5X5X5X5X5X5X5X5X5X5X5XX 2 8 8 F [ U.(.).U._ n m.V.l.z & 5X5X5X5X5X5X5X5X5X5X5X5X5X5X",
"5X5X5X5X5X5X5X5X5X5X5X5X5X5X5X5X5X5X5X. @ < $ 6 I U./.!.U.:.r.m.M.n.l o 5X5X5X5X5X5X5X5X5X5X5X5X5X5X",
"5X5X5X5X5X5X5X5X5X5X5X5X5X5X5X5X5X5X5X  . O * : d :.=.` _ =.*.u.t.r.i @ 5X5X5X5X5X5X5X5X5X5X5X5X5X5X",
"5X5X5X5X5X5X5X5X5X5X5X5X5X5X5X5X5X5X5X5Xo = k ; % j B B.G.p.o.:.-.:.L , 5X5X5X5X5X5X5X5X5X5X5X5X5X5X",
"5X5X5X5X5X5X5X5X5X5X5X5X5X5X5X5X5X5X5X5X% ; c ; O ; k.F.<XG.U / %.{ D < 5X5X5X5X5X5X5X5X5X5X5X5X5X5X",
"5X5X5X5X5X5X5X5X5X5X5X5X5X5X5X5X5X5X5XP u s x * # a c.H.J.G.a g ) L 5X5X5X5X5X5X5X5X5X5X5X5X5X5X5X5X",
"5X5X5X5X5X5X5X5X5X5X5X5X5X5X5X5X5XH H J [ E p % - x c.D.D.V.C C B u 5X5X5X5X5X5X5X5X5X5X5X5X5X5X5X5X",
"5X5X5X5X5X5X5X5X5X5X5X5X5X5X5XJ I ~ W J +.K.Q 8 # a z.S.S.S.b.x.c.5X5X5X5X5X5X5X5X5X5X5X5X5X5X5X5X5X",
"5X5X5X5X5X5X5X5X5X5X5X5X5X5XG [ R.|.5.W +.K.@.F < 6 V v.x.b.S.x.k.5X5X5X5X5X5X5X5X5X5X5X5X5X5X5X5X5X",
"5X5X5X5X5X5X5X5X5X5X5X5X5XD Q 2.@X$X[.T ] +.O.J 9 L q.Z z.x.v.N x 5X5X5X5X5X5X5X5X5X5X5X5X5X5X5X5X5X",
"5X5X5X5X5X5X5X5X5X5X5X@ 2 P &.|.#X#XC.K K P P H W @.=.B A C V > O 5X5X5Xf p p j f 5X5X5X5X5X5X5X5X5X",
"5X5X5X5X5X5X5X5X5X5X5X2 P &.P.Y.4.4.( 2 2 8 9 I @./.!.=.) m m 7 - 5X5Xf w.w.w.s.w.j 5X5X5X5X5X5X5X5X",
"5X5X5X5X5X5X5X5X5X5X5X9 Q P.L.P.*.7._ U 6 2 r Q #.~.Q.+.!  .<.( t 5X6 h a.s.j.-Xh.g 5X5X5X5X5X5X5X5X",
"5X5X5X5X5X5X5X5X5X5X5X8 H O.P.P.8.`.%Xg.Y u ( | ..+.%...,.}.$XC.T 9 e ) a.a.s.;X=X0.5X5X5X5X5X5X5X5X",
"5X5X5X5X5X5X5X5X5X5X5X1 0 I o._.=X>X2X:Xw.E 5.].6.( K F X.}.$XC.3.} } ;.'.h.j.=Xj.9.5X5X5X5X5X5X5X5X",
"5X5X5X5X5X5X5X5X5X5X5X@ 2 w ^ _.>X3X4X2Xf.) 4.].4.R 5 4 ~ 4. X].2.Y.&.^.'.=Xh.a.e.g 5X5X5X5X5X5X5X5X",
"5X5X5X5X5X5X5X5X5X5X5X5X@ 1 U `.>X3X3X2Xg.U ..3.X.r 4 5X9 K | | ..#.&.%.-.g.j.e.9.5X5X5X5X5X5X5X5X5X",
"5X5X5X5X5X5X5X5X5X5X5X5X5X5Xd i.;X3X3X;Xp.^ &.I.K.J q 5X5X2 4 0 H I I H e f Y 9.5X5X5X5X5X5X5X5X5X5X",
"5X5X5X5X5X5X5X5X5X5X5X5X5X5Xp 0.%X;X;X%X-.o.K.W.E.X.( 5X5X5XX @ 2 8 8 2 + + % 5X5X5X5X5X5X5X5X5X5X5X",
"5X5X5X5X5X5X5X5X5X5X5X5X5X5X5X5Xg a.f.8.o.} @.U.R.}.C.1.5X5X5X5X5XX . X 5X5X5X5X5X5X5X5X5X5X5X5X5X5X",
"5X5X5X5X5X5X5X5X5X5X5X5X5X5X5X5X# ) 8.5.6...] X.R.oXoX}.5.t 5X5X5X5X5X5X5X5X5X5X5X5X5X5X5X5X5X5X5X5X",
"5X5X5X5X5X5X5X5X5X5X5X5X5X5X5X@ 2 K ,.}.T.[ w W T.oX$X$X1.t @ 5X5X5X5X5X5X5X5X5X5X5X5X5X5X5X5X5X5X5X",
"5X5X5X5X5X5X5X5X5X5X5X5X5X5X+ 2 G R >.5.,.r @ 9 | {.oXoX,.R G 9 2 5X5X5X5X5X5X5X5X5X5X5X5X5X5X5X5X5X",
"5X5X5X5X5X5X5X5X5X5X5X5X5X@ 2 w I [ | ( y $ + 5 ~ >.3.,.T Q +.I D 5X5X5X5X5X5X5X5X5X5X5X5X5X5X5X5X5X",
"5X5X5X5X5X5X5X5X5X5X5X5X@ 2 D Q @.P.+.q @   5X5X5XG r y H O.Q.#.[ 5X5X5X5X5X5X5X5X5X5X5X5X5X5X5X5X5X",
"5X5X5X5X5X5X5X5X5X5X5X@ 2 S P +.Q.).E.H 4 5X5X5X5X+ < D I U.)./.O.4 5X5X5X5X5X5X5X5X5X5X5X5X5X5X5X5X",
"5X5X5X5X5X5X5X5X5X5X5X< 0 P { U.).*XW.H 5X5X5X5X5X  @ D ] W.*X).K.0 5X5X5X5X5X5X5X5X5X5X5X5X5X5X5X5X",
"5X5X5X5X5X5X5X5X5X5X5X8 D Q @.Q.*X+XP.D 5X5X5X5X5X  @ D ] E.*X*XE.G 5X5X5X5X5X5X5X5X5X5X5X5X5X5X5X5X",
"5X5X5X5X5X5X5X5X5X5X< S H [ K./.*X/.{ 2 5X5X5X5X5X  @ D Q P.).*X~.P 5X5X5X5X5X5X5X5X5X5X5X5X5X5X5X5X",
"5X5X5X5X5X5X5X5X5X+ , 8 S H @./.).P.P < 5X5X5X5X5X  @ D I +.E./.K.D < 5X5X5X5X5X5X5X5X5X5X5X5X5X5X5X",
"5X5X5X5X5X5X5X5XX + @ , < 0 { E./.[ D 5X5X5X5X5X5X  , D P Q { { I 8 @ @ 5X5X5X5X5X5X5X5X5X5X5X5X5X5X",
"5X5X5X5X5X5X5X, 8 8 0 D H P P ] [ 0 @ 5X5X5X5X5X5XX @ 0 H H H H Q O.] H 8 5X5X5X5X5X5X5X5X5X5X5X5X5X",
"5X5X5X5X5X5X< 8 H I [ @.K.P.] H 9 @ 5X5X5X5X5X5X5X@ 2 8 0 q w I @././.K.H 0 5X5X5X5X5X5X5X5X5X5X5X5X",
"5X5X5X5X5X< 9 H I { U./.OX).E.P < 5X5X5X5X5X5X5X5X4 8 8 2 2 D { Q.+X*X(.P.H 2 5X5X5X5X5X5X5X5X5X5X5X",
"5X5X5X5X+ @ 8 w D I O.K.E.U.+.H , 5X5X5X5X5X5X5X5X< 2 2 2 2 8 H { K.E.U.@.H 2 5X5X5X5X5X5X5X5X5X5X5X",
"5X5X5X  X @ < 8 8 F I [ { { ] D < 5X5X5X5X5X5X5X5X@ , 2 4 4 2 8 D I ] { ] G 2 5X5X5X5X5X5X5X5X5X5X5X",
"5X5X5X5X5X5X5X5X5X5X5X5X5X5X5X5X5X5X5X5X5X5X5X5X5X5X5X5X5X5X5X5X5X5X5X5X5X5X5X5X5X5X5X5X5X5X5X5X5X5X",
"5X5X5X5X5X5X5X5X5X5X5X5X5X5X5X5X5X5X5X5X5X5X5X5X5X5X5X5X5X5X5X5X5X5X5X5X5X5X5X5X5X5X5X5X5X5X5X5X5X5X",
"5X5X5X5X5X5X5X5X5X5X5X5X5X5X5X5X5X5X5X5X5X5X5X5X5X5X5X5X5X5X5X5X5X5X5X5X5X5X5X5X5X5X5X5X5X5X5X5X5X5X"
};
