/* XPM */
static char *megaman_80[] = {
/* columns rows colors chars-per-pixel */
"80 78 240 2 ",
"   c #010304",
".  c #010708",
"X  c #02090D",
"o  c #0E0904",
"O  c #160B05",
"+  c #17120B",
"@  c #020E14",
"#  c #021116",
"$  c #03141C",
"%  c #071719",
"&  c #151C1C",
"*  c #181918",
"=  c #230902",
"-  c #22150A",
";  c #281C12",
":  c #361A0E",
">  c #36210C",
",  c #27231E",
"<  c #352716",
"1  c #35301F",
"2  c #041720",
"3  c #041A25",
"4  c #0A1B23",
"5  c #051E2B",
"6  c #0D1F2A",
"7  c #101B23",
"8  c #05212D",
"9  c #08252B",
"0  c #192529",
"q  c #062433",
"w  c #062A35",
"e  c #062738",
"r  c #072A3B",
"t  c #0B2835",
"y  c #162B35",
"u  c #063634",
"i  c #06333B",
"p  c #07363B",
"a  c #173539",
"s  c #09322D",
"d  c #2C2C2D",
"f  c #252726",
"g  c #303327",
"h  c #293639",
"j  c #3D3D3D",
"k  c #343535",
"l  c #302D26",
"z  c #1B2519",
"x  c #431B11",
"c  c #44260D",
"v  c #563A17",
"b  c #502C12",
"n  c #673410",
"m  c #593C35",
"M  c #443B2E",
"N  c #6F392C",
"B  c #35413B",
"V  c #26423D",
"C  c #1D473E",
"Z  c #5B4524",
"A  c #544D33",
"S  c #524E35",
"D  c #664A28",
"F  c #7D5928",
"G  c #675538",
"H  c #7B5233",
"J  c #73552B",
"K  c #072E41",
"L  c #082E41",
"P  c #083246",
"I  c #083944",
"U  c #09354B",
"Y  c #0A3A4D",
"T  c #073743",
"R  c #153747",
"E  c #0A3B53",
"W  c #0A3E59",
"Q  c #093750",
"!  c #123D53",
"~  c #263C46",
"^  c #3C3E44",
"/  c #09444B",
"(  c #084847",
")  c #1B4649",
"_  c #0A4453",
"`  c #0A4B53",
"'  c #0B425C",
"]  c #0B4B5C",
"[  c #074455",
"{  c #184758",
"}  c #0B5657",
"|  c #0A514E",
" . c #28444B",
".. c #36494A",
"X. c #26495A",
"o. c #3B4C54",
"O. c #355359",
"+. c #0B625E",
"@. c #0C4662",
"#. c #0C4A65",
"$. c #0D4C6B",
"%. c #164C65",
"&. c #0B5464",
"*. c #0B5A63",
"=. c #0D536B",
"-. c #0B5C6B",
";. c #165668",
":. c #0D4F70",
">. c #0E5374",
",. c #0E567A",
"<. c #0F597D",
"1. c #0E5C73",
"2. c #125373",
"3. c #1B5C7C",
"4. c #165878",
"5. c #114F70",
"6. c #254E65",
"7. c #26536B",
"8. c #385667",
"9. c #275A73",
"0. c #354D61",
"q. c #0C6464",
"w. c #0D626C",
"e. c #0C6B69",
"r. c #166868",
"t. c #0D756C",
"y. c #0E6475",
"u. c #0E6B7B",
"i. c #0E6877",
"p. c #146476",
"a. c #0D7373",
"s. c #0E737B",
"d. c #0E7B7B",
"f. c #0E7C73",
"g. c #1B7676",
"h. c #326673",
"j. c #3F655A",
"k. c #454545",
"l. c #4C4D4D",
"z. c #454849",
"x. c #4A5158",
"c. c #575858",
"v. c #4D524E",
"b. c #6C534E",
"n. c #796C52",
"m. c #595F62",
"M. c #48636A",
"N. c #55686B",
"B. c #4A6A76",
"V. c #546E7A",
"C. c #626364",
"Z. c #6A6A6A",
"A. c #686867",
"S. c #6A7477",
"D. c #737374",
"F. c #797B7B",
"G. c #726D62",
"H. c #416759",
"J. c #815B29",
"K. c #924F36",
"L. c #8E632A",
"P. c #94662B",
"I. c #996A2C",
"U. c #8E6732",
"Y. c #A26F2C",
"T. c #AA7837",
"R. c #BB7E32",
"E. c #B47D35",
"W. c #A9732E",
"Q. c #A0523F",
"!. c #995949",
"~. c #84524C",
"^. c #B35E48",
"/. c #A15A44",
"(. c #8F6E4A",
"). c #B46449",
"_. c #0E837A",
"`. c #108B7F",
"'. c #488474",
"]. c #BB8138",
"[. c #C68839",
"{. c #D28E39",
"}. c #B8966A",
"|. c #A68E6C",
" X c #D4994E",
".X c #D2A367",
"XX c #0F5D83",
"oX c #0F5F88",
"OX c #115E84",
"+X c #0F6283",
"@X c #0F6685",
"#X c #10628B",
"$X c #156387",
"%X c #0F7681",
"&X c #107989",
"*X c #126994",
"=X c #126D9A",
"-X c #146892",
";X c #12709F",
":X c #117A90",
">X c #0F6791",
",X c #326782",
"<X c #1373A3",
"1X c #1479AB",
"2X c #1376A8",
"3X c #157EB2",
"4X c #497184",
"5X c #5A7683",
"6X c #797E80",
"7X c #6D7B81",
"8X c #0F8D85",
"9X c #0E8789",
"0X c #118788",
"qX c #13958C",
"wX c #118994",
"eX c #139897",
"rX c #0E9194",
"tX c #12A499",
"yX c #1684BB",
"uX c #1580B6",
"iX c #13A7A5",
"pX c #14B5A8",
"aX c #788386",
"sX c #6C8794",
"dX c #1789C3",
"fX c #1687C0",
"gX c #888989",
"hX c #8A949A",
"jX c #979898",
"kX c #B8A489",
"lX c #8B9BA3",
"zX c #A6A7A8",
"xX c #B6B7B8",
"cX c #ABB4B8",
"vX c #A1A19E",
"bX c #C7B5A0",
"nX c #C9CACA",
"mX c #D7D7D6",
"MX c #E1DFDE",
"NX c None",
/* pixels */
"NXNXNXNXNXNXNXNXNXNXNXNXNXNXNXNXNXNXNXNXNXNXNXNXNXNXNXNXNXNXNXNXNXNXNXNXNXNXNXNXNXNXNXNXNXNXNXNXNXNXNXNXNXNXNXNXNXNXNXNXNXNXNXNXNXNXNXNXNXNXNXNXNXNXNXNXNXNXNXNX",
"NXNXNXNXNXNXNXNXNXNXNXNXNXNXNXNXNXNXNXNXNXNXNXNXNXNXNXNXNXNXNXNXNXNXNXNXNXNXNXNXNXNXNXNXNXNXNXNXNXNXNXNXNXNXNXNXNXNXNXNXNXNXNXNXNXNXNXNXNXNXNXNXNXNXNXNXNXNXNXNX",
"NXNXNXNXNXNXNXNXNXNXNXNXNXNXNXNXNXNXNXNXNXNXNXNXNXNXNXNXNXNXNXNXNXNXNXNXNXNXNXNXNXNXNXNXNXNXNXNXNXNXNXNXNXNXNXNXNXNXNXNXNXNXNXNXNXNXNXNXNXNXNXNXNXNXNXNXNXNXNXNX",
"NXNXNXNXNXNXNXNXNXNXNXNXNXNXNXNXNXNXNXNXNXNXNXNXNXNXNXNXNXNXNXNXNXNXNXNXNXNXNXNXNXNXNX% % % % NXNXNXNXNXNXNXNXNXNXNXNXNXNXNXNXNXNXNXNXNXNXNXNXNXNXNXNXNXNXNXNXNX",
"NXNXNXNXNXNXNXNXNXNXNXNXNXNXNXNXNXNXNXNXNXNXNXNXNXNXNXNXNXNXNXNXNXNXNXNXNXNXNXNXNXNXI p u u u u NXNXNXNXNXNXNXNXNXNXNXNXNXNXNXNXNXNXNXNXNXNXNXNXNXNXNXNXNXNXNXNX",
"NXNXNXNXNXNXNXNXNXNXNXNXNXNXNXNXNXNXNXNXNXNXNXNXNXNXNXNXNXNXNXNXNXNXNXNXNXNX@ 3 U #.*.q.q.q.+.| p 9 3 2 NXNXNXNXNXNXNXNXNXNXNXNXNXNXNXNXNXNXNXNXNXNXNXNXNXNXNXNX",
"NXNXNXNXNXNXNXNXNXNXNXNXNXNXNXNXNXNXNXNXNXNXNXNXNXNXNXNXNXNXNXNXNXNXNXNXNX@ $ 8 U =.y.s.0X0Xd.q.( i w 8 5 NXNXNXNXNXNXNXNXNXNXNXNXNXNXNXNXNXNXNXNXNXNXNXNXNXNXNX",
"NXNXNXNXNXNXNXNXNXNXNXNXNXNXNXNXNXNXNXNXNXNXNXNXNXNXNXNXNXNXNXNXNXNXNXNX8 5 q L @.2.1.y.u.%X&Xs.e.*._ P w 3 NXNXNXNXNXNXNXNXNXNXNXNXNXNXNXNXNXNXNXNXNXNXNXNXNXNX",
"NXNXNXNXNXNXNXNXNXNXNXNXNXNXNXNXNXNXNXNXNXNXNXNXNXNXNXNXNXNXNXNXNXNXNX8 q r P ' >.,.>.#.=.y.%XwXwXwXi.$.T 3 # NXNXNXNXNXNXNXNXNXNXNXNXNXNXNXNXNXNXNXNXNXNXNXNXNX",
"NXNXNXNXNXNXNXNXNXNXNXNXNXNXNXNXNXNXNXNXNXNXNXNXNXNXNXNXNXNXNXNXNXNXNXq r P ' $.,.XX>.#.@.$.1.%XwXwX:Xp.[ q $ NXNXNXNXNXNXNXNXNXNXNXNXNXNXNXNXNXNXNXNXNXNXNXNXNX",
"NXNXNXNXNXNXNXNXNXNXNXNXNXNXNXNXNXNXNXNXNXNXNXNXNXNXNXNXNXNXNXNXNXX $ e U ' #.,.XXoX,.$.@.' ' -.%X9XeX0X*.u 9 NXNXNXNXNXNXNXNXNXNXNXNXNXNXNXNXNXNXNXNXNXNXNXNXNX",
"NXNXNXNXNXNXNXNXNXNXNXNXNXNXNXNXNXNXNXNXNXNXNXNXNXNXNXNXNXNXNXNXNX@ 3 r W @.:.,.XX#XXX,.#.W E { ;.g.qXqXr.( t NXNXNXNXNXNXNXNXNXNXNXNXNXNXNXNXNXNXNXNXNXNXNXNXNX",
"NXNXNXNXNXNXNXNXNXNXNXNXNXNXNXNXNXNXNXNXNXNXNXNXNXNXNXNXNXNXNXNX$ $ q P ' #.$.>.,.<.oXXX>.@.! ~ ..j.B.'.H.B 1 : NXNXNXNXNXNXNXNXNXNXNXNXNXNXNXNXNXNXNXNXNXNXNXNX",
"NXNXNXNXNXNXNXNXNXNXNXNXNXNXNXNXNXNXNXNXNXNXNXNXNXNXNXNXNXNXNXNX5 8 e U ' @.@.$.>.,.#X>XOX5.! ^ A b.n.n.b.v b : = NXNXNXNXNXNXNXNXNXNXNXNXNXNXNXNXNXNXNXNXNXNXNX",
"NXNXNXNXNXNXNXNXNXNXNXNXNXNXNXNXNXNXNXNXNXNXNXNXNXNXNXNXNXNXNXNX5 q e P U E ' $.,.oX=X<X=XOX6.^ m H U.(.K.K.n : = NXNXNXNXNXNXNXNXNXNXNXNXNXNXNXNXNXNXNXNXNXNXNX",
"NXNXNXNXNXNXNXNXNXNXNXNXNXNXNXNXNXNXNXNXNXNXNXNXNXNXNXNXNXNXNXX 3 q q q e K E $.+X;X1X3X2X-X9.o.m K./.).^.Q.N x = NXNXNXNXNXNXNXNXNXNXNXNXNXNXNXNXNXNXNXNXNXNXNX",
"NXNXNXNXNXNXNXNXNXNXNXNXNXNXNXNXNXNXNXNXNXNXNXNXNXNXNXNXNXNX  X $ 6 5 2 4 9 I #.$X1X3X3X2X*Xp.6.^ b.!.^.^.Q.N x * NXNXNXNXNXNXNXNXNXNXNXNXNXNXNXNXNXNXNXNXNXNXNX",
"NXNXNXNXNXNXNXNXNXNXNXNXNXNXNXNXNXNXNXNXNXNXNXNXNXNXNXNXNXNX. . @ $ % % * 0 a { 9.-X-X%X$X3.9.7.0.c.~.!.!.~.m x * NXNXNXNXNXNXNXNXNXNXNXNXNXNXNXNXNXNXNXNXNXNXNX",
"NXNXNXNXNXNXNXNXNXNXNXNXNXNXNXNXNXNXNXNXNXNXNXNXNXNXNXNXNXNX    . X + ; ; l d ~ 6.4.7.7.X.0.6.7.,X0.c.~.b.b.m f $ NXNXNXNXNXNXNXNXNXNXNXNXNXNXNXNXNXNXNXNXNXNXNX",
"NXNXNXNXNXNXNXNXNXNXNXNXNXNXNXNXNXNXNXNXNXNXNXNXNXNXNXNXNXNX      O - : c < , f ~ ....v.v.N.M.9.5.OX0.x.x.x.~ 0 2 NXNXNXNXNXNXNXNXNXNXNXNXNXNXNXNXNXNXNXNXNXNXNX",
"NXNXNXNXNXNXNXNXNXNXNXNXNXNXNXNXNXNXNXNXNXNXNXNXNXNXNXNXNXNXNXNXO = : b n c - z , B D U.(.|.sXB.6.! 6.9.9.7.! L 6 NXNXNXNXNXNXNXNXNXNXNXNXNXNXNXNXNXNXNXNXNXNXNX",
"NXNXNXNXNXNXNXNXNXNXNXNXNXNXNXNXNXNXNXNXNXNXNXNXNXNXNXNXNXNXNXNX+ - c n n c - O > v F ]..XkXvXZ.~ ! %.4.XX5.@.L 5 NXNXNXNXNXNXNXNXNXNXNXNXNXNXNXNXNXNXNXNXNXNXNX",
"NXNXNXNXNXNXNXNXNXNXNXNXNXNXNXNXNXNXNXNXNXNXNXNXNXNXNXNXNXNXNXNX0 , > n n > + + < v L.]..XkXkXG.^ y ~ %.%.@.Q L 8 NXNXNXNXNXNXNXNXNXNXNXNXNXNXNXNXNXNXNXNXNXNXNX",
"NXNXNXNXNXNXNXNXNXNXNXNXNXNXNXNXNXNXNXNXNXNXNXNXNXNXNXNXNXNXW U R y 1 c c ; % & 1 Z U.]. X.X}.n.M d ^ ^ ~ P L NXNXNXNXNXNXNXNXNXNXNXNXNXNXNXNXNXNXNXNXNXNXNXNXNX",
"NXNXNXNXNXNXNXNXNXNXNXNXNXNXNXNXNXNXNXNXNXNXNXNXNXNXNXNXNXNXE E Y ) h l < * % & 1 Z P.[. X.X}.U.D A S S h a K NXNXNXNXNXNXNXNXNXNXNXNXNXNXNXNXNXNXNXNXNXNXNXNXNX",
"NXNXNXNXNXNXNXNXNXNXNXNXNXNXNXNXNXNXNXNXNXNXNXNXNXNXK U U U U E @.5.%.R y 4 2 z 1 Z P.[.{. X XW.L.J.F H G NXNXNXNXNXNXNXNXNXNXNXNXNXNXNXNXNXNXNXNXNXNXNXNXNXNXNX",
"NXNXNXNXNXNXNXNXNXNXNXNXNXNXNXNXNXNXNXNXNXNXNXNXNXY U E [ W U E $.oX<.@.P 5 4 & 1 Z L.].{.{.{.[.E.W.I.I.L.NXNXNXNXNXNXNXNXNXNXNXNXNXNXNXNXNXNXNXNXNXNXNXNXNXNXNX",
"NXNXNXNXNXNXNXNXNXNXNXNXNXNXNXNXNXNXNXNXNXNXNXNXE #.=.-.w.*._ [ =.oXoX>.W K 3 7 0 Z F W.[.].].].[.].Y.P.NXNXNXNXNXNXNXNXNXNXNXNXNXNXNXNXNXNXNXNXNXNXNXNXNXNXNXNX",
"NXNXNXNXNXNXNXNXNXNXNXNXNXNXNXNXNXNXNXNXNXNXNXP ] y.&XwXqXf.} ` @.XXXXXX:.Q 5 3 0 g D I.Y.Y.I.].[.].I.J.NXNXNXNXNXNXNXNXNXNXNXNXNXNXNXNXNXNXNXNXNXNXNXNXNXNXNXNX",
"NXNXNXNXNXNXNXNXNXNXNXNXNXNXNXNXNXNXNXNXNXNXU W =.&XuXiXiX8X} / ] :.XX<.:.E e 8 t h S F L.L.P.W.].W.J.Z NXNXNXNXNXNXNXNXNXNXNXNXNXNXNXNXNXNXNXNXNXNXNXNXNXNXNXNX",
"NXNXNXNXNXNXNXNXNXNXNXNXNXNXNXNXNXNX@ $ 5 L W >.@XwXiXpXpXqXq.( [ #.:.$.@.Q K L E { ..G F U.P.I.L.F v c NXNXNXNXNXNXf & * * , f NXNXNXNXNXNXNXNXNXNXNXNXNXNXNXNX",
"NXNXNXNXNXNXNXNXNXNXNXNXNXNXNXNXNXNX$ 3 q U #.y.:XrXiXiXiX8X} ( I W W E E Q U W =.4.j.S J n.L.L.D v > - NXNXNXNXNXd d f * f f d k NXNXNXNXNXNXNXNXNXNXNXNXNXNXNX",
"NXNXNXNXNXNXNXNXNXNXNXNXNXNXNXNXNX$ 2 q U @.,.+X>XwXrXrXrXa./ q q K P L P Y ' >.#X-X9.O.v.v.G S A g z % NXNXNXNXNXj k.k.j j k.l.l.M NXNXNXNXNXNXNXNXNXNXNXNXNXNX",
"NXNXNXNXNXNXNXNXNXNXNXNXNXNXNXNXNX5 q P #.OXOXoX@Xu.s.s.e.} w 2 3 8 8 8 e E $.oX<X2X=X9.X. .V V C u s s NXNXNXf d z.c.C.c.m.Z.D.Z.k.d NXNXNXNXNXNXNXNXNXNXNXNXNX",
"NXNXNXNXNXNXNXNXNXNXNXNXNXNXNXNXNX8 q U :.oXoXoX<.p.i.r.;.X.R 6 4 4 5 q i [ :.oX<X1X=X<.*.{ / | +.| ( s u NXNXf h l.Z.D.Z.Z.gXjX6Xx.k NXNXNXNXNXNXNXNXNXNXNXNXNX",
"NXNXNXNXNXNXNXNXNXNXNXNXNXNXNXNXNXq e U #.OXoXoX+X3.9.h.B.M.x.^ h 0 t p _ ' $.<.#X-X#XOX1.} q.a.`._.+.( p 8 6 0 h x.A.A.C.Z.jXzXjXC.M NXNXNXNXNXNXNXNXNXNXNXNXNX",
"NXNXNXNXNXNXNXNXNXNXNXNXNXNXNXNXNX8 q L W :.<.oX$X9.4X5X7X6X7XC.z.a a | *.*.$.=.,.,.2.2.=.w.a.qXpXtX_.} p u t R ~ x.C.C.c.Z.jXxXvXZ.k.NXNXNXNXNXNXNXNXNXNXNXNXNX",
"NXNXNXNXNXNXNXNXNXNXNXNXNXNXNXNXNX3 5 e U @.:.4.,X4X5XhXvXzXjXgXc.B ) q.a.u.y.1.;.#._ E ] w.d.tXpXpX`.e.} Y Y ! 6.M.S.D.Z.Z.gXvXgXC.k.NXNXNXNXNXNXNXNXNXNXNXNXNX",
"NXNXNXNXNXNXNXNXNXNXNXNXNXNXNXNXNX$ 2 5 K Q { 2.,XsXlXcXnXnXxXvXD...) t.`.9X9Xa.*./ i w I *.%XtXpXpX`.a.w.2.5.5.9.4XsXgXD.D.F.(.D.v.M NXNXNXNXNXNXNXNXNXNXNXNXNX",
"NXNXNXNXNXNXNXNXNXNXNXNXNXNXNXNXNXNX$ 3 q L ! 6.4XsXcXmXMXMXmXxX'.o.) r.9XwX0Xe.} p 9 3 r ` i.0XtXqX`.f.i.OXOX<.OX4X7XgX6X6XS.7Xm.l.^ NXNXNXNXNXNXNXNXNXNXNXNXNX",
"NXNXNXNXNXNXNXNXNXNXNXNXNXNXNXNXNXNXNX2 3 q R X.V.hXxXmXMXMXmXxXgXz.) ;.i.s.s.-./ w 8 NXw I ` -.d.%Xa.y.<.OXOXXXOXB.4X7X6X6XZ.m.v.z.NXNXNXNXNXNXNXNXNXNXNXNXNXNX",
"NXNXNXNXNXNXNXNXNXNXNXNXNXNXNXNXNXNXNXNX$ 3 y  .V.hXxXmXmXmXmXxXgXz. .] =.y.y.*.P w NXNXNXw i E #.&.#.=.>.<.<.>.2.7.M.V.D.D.C.l.z.NXNXNXNXNXNXNXNXNXNXNXNXNXNXNX",
"NXNXNXNXNXNXNXNXNXNXNXNXNXNXNXNXNXNXNXNXNX2 0 ~ m.hXxXnXmXmXnXcXF.O.{ %.1.XX@X=.Y e NXNXNXNXq r i T U E ] $.$.@.' ! ~ ^ l.c.l.l.NXNXNXNXNXNXNXNXNXNXNXNXNXNXNXNX",
"NXNXNXNXNXNXNXNXNXNXNXNXNXNXNXNXNXNXNXNXNXNXf h l.6XzXnXmXnXxXjXS.0.%.2.+X>X-X<.] I NXNXNXNXNX$ $ 3 q e P U Q U P t 6 0 d d k NXNXNXNXNXNXNXNXNXNXNXNXNXNXNXNXNX",
"NXNXNXNXNXNXNXNXNXNXNXNXNXNXNXNXNXNXNXNXNXNXNXd z.Z.gXzXxXxXvXaXB.6.%.<.#X*X*X#X-.] } NXNXNXNXNXX @ $ 5 q q q q 8 3 $ # * * NXNXNXNXNXNXNXNXNXNXNXNXNXNXNXNXNXNX",
"NXNXNXNXNXNXNXNXNXNXNXNXNXNXNXNXNXNXNXNXNXNXNXNXS v.m.F.gXjX'.B.8.%.5.,.#X>X>X&X%Xd.t.e.NXNXNXNXNXNXNXNX$ $ $ $ # # NXNXNXNXNXNXNXNXNXNXNXNXNXNXNXNXNXNXNXNXNXNX",
"NXNXNXNXNXNXNXNXNXNXNXNXNXNXNXNXNXNXNXNXNXNXNXNXNXd k v.A.A.H.j.;.%.$.>.,.+X@X:XwXqX`._.t.NXNXNXNXNXNXNX. . .   . . NXNXNXNXNXNXNXNXNXNXNXNXNXNXNXNXNXNXNXNXNXNX",
"NXNXNXNXNXNXNXNXNXNXNXNXNXNXNXNXNXNXNXNXNXNXNXNXNX& 0 j O.8.h.g.r.1.>.$.$.1.@XwXeXtXtXqX`._.NXNXNXNXNXNXNX        NXNXNXNXNXNXNXNXNXNXNXNXNXNXNXNXNXNXNXNXNXNXNX",
"NXNXNXNXNXNXNXNXNXNXNXNXNXNXNXNXNXNXNXNXNXNXNXNXNX# 7 a { r.`.qX0Xu.=.' E &.u.0XtXpXpXpXqX_.} s # . NXNXNXNXNXNXNXNXNXNXNXNXNXNXNXNXNXNXNXNXNXNXNXNXNXNXNXNXNXNX",
"NXNXNXNXNXNXNXNXNXNXNXNXNXNXNXNXNXNXNXNXNXNXNXNXNX2 5 i ` e.8XeX9Xi.#.P i _ w.&XtXpXpXpXtX_.| u $ $ NXNXNXNXNXNXNXNXNXNXNXNXNXNXNXNXNXNXNXNXNXNXNXNXNXNXNXNXNXNX",
"NXNXNXNXNXNXNXNXNXNXNXNXNXNXNXNXNXNXNXNXNXNXNX@ 2 8 w P [ q.9X8Xs.*.Y 9 5 i ] a.qXtXpXpXtXt.| p w 5 5 3 NXNXNXNXNXNXNXNXNXNXNXNXNXNXNXNXNXNXNXNXNXNXNXNXNXNXNXNX",
"NXNXNXNXNXNXNXNXNXNXNXNXNXNXNXNXNXNXNXNXNXNXNX$ 5 e P [ ` *.e.a.} / w 4 $ q / -.%XqXtXtX`.+.| Y E P e 8 NXNXNXNXNXNXNXNXNXNXNXNXNXNXNXNXNXNXNXNXNXNXNXNXNXNXNXNX",
"NXNXNXNXNXNXNXNXNXNXNXNXNXNXNXNXNXNXNXNXNXNX2 5 q P W @.#.&.*.} ( u $ # # 8 I ] y.s.d.f.e.} / ] $.@.U r NXNXNXNXNXNXNXNXNXNXNXNXNXNXNXNXNXNXNXNXNXNXNXNXNXNXNXNX",
"NXNXNXNXNXNXNXNXNXNXNXNXNXNXNXNXNXNXNXNX$ $ 5 e L W #.:.=.#.` p 9 % # NXNXNXNXNX] ] ` ` ( Y Y =.XX<.#.W NXNXNXNXNXNXNXNXNXNXNXNXNXNXNXNXNXNXNXNXNXNXNXNXNXNXNXNX",
"NXNXNXNXNXNXNXNXNXNXNXNXNXNXNXNXNXNXNXNX2 3 e P W $.>.OX#X>.E w 3 X . NXNXNXNXNXP L p i i P W <.=X*XXX$.@.NXNXNXNXNXNXNXNXNXNXNXNXNXNXNXNXNXNXNXNXNXNXNXNXNXNXNX",
"NXNXNXNXNXNXNXNXNXNXNXNXNXNXNXNXNXNX$ 3 5 q L Q $.<.>X=X<X#X' r 3 NXNXNXNXNXNXNX4 5 8 w L E @.#X2X2X>X<.' q NXNXNXNXNXNXNXNXNXNXNXNXNXNXNXNXNXNXNXNXNXNXNXNXNXNX",
"NXNXNXNXNXNXNXNXNXNXNXNXNXNXNXNXNXNX$ 5 q P Q @.>.>X<XyXyX=X@.U w NXNXNXNXNXNXNXX @ 2 e U W >.=X3XyX<XoX' q 2 NXNXNXNXNXNXNXNXNXNXNXNXNXNXNXNXNXNXNXNXNXNXNXNXNX",
"NXNXNXNXNXNXNXNXNXNXNXNXNXNXNXNXNX2 3 8 L Q W $.OX;X3XdXdX=X$.L NXNXNXNXNXNXNXNX  . $ e U @.,.<XdXdX3X*X@.e 3 NXNXNXNXNXNXNXNXNXNXNXNXNXNXNXNXNXNXNXNXNXNXNXNXNX",
"NXNXNXNXNXNXNXNXNXNXNXNXNXNXNXNXNX5 5 e U W #.:.#X2XyXdXyX=X@.L NXNXNXNXNXNXNXNX  . $ q U @.<.;XyXdXyX<X:.L q NXNXNXNXNXNXNXNXNXNXNXNXNXNXNXNXNXNXNXNXNXNXNXNXNX",
"NXNXNXNXNXNXNXNXNXNXNXNXNXNXNXNXNXq e K U W $.XX=X3XdXdX3XoXW e NXNXNXNXNXNXNXNX  X $ e U ' ,.=XyXdXdX1X<.U e NXNXNXNXNXNXNXNXNXNXNXNXNXNXNXNXNXNXNXNXNXNXNXNXNX",
"NXNXNXNXNXNXNXNXNXNXNXNXNXNXNXNX3 q K P Q @.:.OX=X3XdXyX=X>.U 5 NXNXNXNXNXNXNXNX  X 2 e U ' >.*X3XdXdX3XXXE L NXNXNXNXNXNXNXNXNXNXNXNXNXNXNXNXNXNXNXNXNXNXNXNXNX",
"NXNXNXNXNXNXNXNXNXNXNXNXNXNXNX$ 2 5 r P Q W :.OX;XyXyX2XoX@.r 2 NXNXNXNXNXNXNXNX  X 2 q U W $.oX<X3XdX3XOXW L NXNXNXNXNXNXNXNXNXNXNXNXNXNXNXNXNXNXNXNXNXNXNXNXNX",
"NXNXNXNXNXNXNXNXNXNXNXNXNXNXX @ $ 5 q e L Q #.OX=X3XuX=X>.W w $ NXNXNXNXNXNXNXNX  X 2 e U E @.<.>X=X2X=X:.P q 2 NXNXNXNXNXNXNXNXNXNXNXNXNXNXNXNXNXNXNXNXNXNXNXNX",
"NXNXNXNXNXNXNXNXNXNXNXNXNX. X @ @ 2 3 5 5 K W ,.=X1X2X#X#.U NXNXNXNXNXNXNXNXNXNX  X $ e U E @.:.>.XXXX>.E q $ # X NXNXNXNXNXNXNXNXNXNXNXNXNXNXNXNXNXNXNXNXNXNXNX",
"NXNXNXNXNXNXNXNXNXNXNXNX@ @ # $ 2 2 3 5 5 r Q 5.XX=X*X:.U L NXNXNXNXNXNXNXNXNXNX  X $ e P Q W @.@.#.@.W U e 5 3 2 2 NXNXNXNXNXNXNXNXNXNXNXNXNXNXNXNXNXNXNXNXNXNX",
"NXNXNXNXNXNXNXNXNXNXNX$ 2 3 5 5 8 e e r P U E ' $.>.5.Q q 3 NXNXNXNXNXNXNXNXNXNX. X 2 q L U Q Q Q Q E W ' @.W Q L e 5 NXNXNXNXNXNXNXNXNXNXNXNXNXNXNXNXNXNXNXNXNX",
"NXNXNXNXNXNXNXNXNXNX$ 2 8 r L P U Q W W #.#.@.Q Q Q Q e 2 @ NXNXNXNXNXNXNXNXNXNX@ @ 3 q r L U L L P Q W >.oXoXXX$.Q q 5 NXNXNXNXNXNXNXNXNXNXNXNXNXNXNXNXNXNXNXNX",
"NXNXNXNXNXNXNXNXNX3 3 8 r U W W @.$.<.OXoXoX>.@.Q L e 3 # NXNXNXNXNXNXNXNXNXNXNX$ 2 3 8 q q e e r P W :.>X2X1X<X>X$.Q K e NXNXNXNXNXNXNXNXNXNXNXNXNXNXNXNXNXNXNX",
"NXNXNXNXNXNXNXNX3 5 q P U W @.$.<.#X;X2X3X1X*X,.' r 3 $ NXNXNXNXNXNXNXNXNXNXNXNX5 5 5 q q 5 8 q r U $.oX<X3XdXfX3X>X:.W L 5 NXNXNXNXNXNXNXNXNXNXNXNXNXNXNXNXNXNX",
"NXNXNXNXNXNXNX$ $ 5 r P Q E @.$.OX*X2X3X3X3X;XoX' e $ # NXNXNXNXNXNXNXNXNXNXNXNX8 q q q 5 3 3 5 e U 5.oX;X3XyXyX3X;XOX@.L 5 NXNXNXNXNXNXNXNXNXNXNXNXNXNXNXNXNXNX",
"NXNXNXNXNXNX. @ $ 3 q r L P E @.$.XX>X*X=X*XoX:.E q $ NXNXNXNXNXNXNXNXNXNXNXNXNX5 5 5 5 5 5 5 5 8 L Q $.XXoX*X*X*XoX,.W r 5 NXNXNXNXNXNXNXNXNXNXNXNXNXNXNXNXNXNX",
"NXNXNXNXNX  . X $ 3 8 q q e K Y W #.:.>.,.>.5.@.U e 2 NXNXNXNXNXNXNXNXNXNXNXNXNX$ $ 3 5 5 8 5 5 5 q r P W @.:.>.2.:.$.E r 5 NXNXNXNXNXNXNXNXNXNXNXNXNXNXNXNXNXNX",
"NXNXNXNXNX  . X $ 2 5 8 8 q e P E ' #.$.$.$.@.' U q 3 NXNXNXNXNXNXNXNXNXNXNXNXNXNX$ 2 5 5 8 q 5 5 5 e r U E ' #.$.$.@.Y r 5 NXNXNXNXNXNXNXNXNXNXNXNXNXNXNXNXNXNX",
"NXNXNXNXNXNXNXNXNXNXNXNXNXNXNXNXNXNXNXNXNXNXNXNXNXNXNXNXNXNXNXNXNXNXNXNXNXNXNXNXNXNXNXNXNXNXNXNXNXNXNXNXNXNXNXNXNXNXNXNXNXNXNXNXNXNXNXNXNXNXNXNXNXNXNXNXNXNXNXNX",
"NXNXNXNXNXNXNXNXNXNXNXNXNXNXNXNXNXNXNXNXNXNXNXNXNXNXNXNXNXNXNXNXNXNXNXNXNXNXNXNXNXNXNXNXNXNXNXNXNXNXNXNXNXNXNXNXNXNXNXNXNXNXNXNXNXNXNXNXNXNXNXNXNXNXNXNXNXNXNXNX",
"NXNXNXNXNXNXNXNXNXNXNXNXNXNXNXNXNXNXNXNXNXNXNXNXNXNXNXNXNXNXNXNXNXNXNXNXNXNXNXNXNXNXNXNXNXNXNXNXNXNXNXNXNXNXNXNXNXNXNXNXNXNXNXNXNXNXNXNXNXNXNXNXNXNXNXNXNXNXNXNX",
"NXNXNXNXNXNXNXNXNXNXNXNXNXNXNXNXNXNXNXNXNXNXNXNXNXNXNXNXNXNXNXNXNXNXNXNXNXNXNXNXNXNXNXNXNXNXNXNXNXNXNXNXNXNXNXNXNXNXNXNXNXNXNXNXNXNXNXNXNXNXNXNXNXNXNXNXNXNXNXNX",
"NXNXNXNXNXNXNXNXNXNXNXNXNXNXNXNXNXNXNXNXNXNXNXNXNXNXNXNXNXNXNXNXNXNXNXNXNXNXNXNXNXNXNXNXNXNXNXNXNXNXNXNXNXNXNXNXNXNXNXNXNXNXNXNXNXNXNXNXNXNXNXNXNXNXNXNXNXNXNXNX"
};
