/* XPM */
static char *_8star[] = {
/* columns rows colors chars-per-pixel */
"48 48 229 2 ",
"   c #1C408E",
".  c #1E428F",
"X  c #1F428F",
"o  c #1E4290",
"O  c #1F4290",
"+  c #1F4390",
"@  c #204491",
"#  c #214591",
"$  c #204592",
"%  c #214592",
"&  c #214692",
"*  c #214693",
"=  c #224693",
"-  c #224793",
";  c #234793",
":  c #234794",
">  c #234894",
",  c #234995",
"<  c #244894",
"1  c #244895",
"2  c #244995",
"3  c #254995",
"4  c #254A95",
"5  c #264A95",
"6  c #254996",
"7  c #244A96",
"8  c #254A96",
"9  c #254B96",
"0  c #254B97",
"q  c #264A96",
"w  c #274B96",
"e  c #264B97",
"r  c #274B97",
"t  c #264C97",
"y  c #284C97",
"u  c #274B98",
"i  c #264C98",
"p  c #274C98",
"a  c #274E99",
"s  c #284C99",
"d  c #284D99",
"f  c #284E99",
"g  c #2A4E99",
"h  c #2B4F99",
"j  c #294E9A",
"k  c #284F9A",
"l  c #294F9A",
"z  c #2A4E9A",
"x  c #2B4F9A",
"c  c #2A4F9B",
"v  c #2C4F9A",
"b  c #29509B",
"n  c #2A519B",
"m  c #2C509A",
"M  c #2D509B",
"N  c #2D519B",
"B  c #2B509C",
"V  c #2A519C",
"C  c #2A529C",
"Z  c #2B529C",
"A  c #2B529D",
"S  c #2B539D",
"D  c #2C509C",
"F  c #2C519C",
"G  c #2D529D",
"H  c #2C539D",
"J  c #2E529C",
"K  c #2E539D",
"L  c #2F539D",
"P  c #2C539E",
"I  c #2D539E",
"U  c #2E539F",
"Y  c #2D549C",
"T  c #2C549E",
"R  c #2E549F",
"E  c #2F549F",
"W  c #2E569F",
"Q  c #30549E",
"!  c #31559F",
"~  c #32569F",
"^  c #2F54A0",
"/  c #2E56A0",
"(  c #2F56A0",
")  c #2E57A0",
"_  c #2F57A1",
"`  c #3055A0",
"'  c #3057A0",
"]  c #3157A0",
"[  c #3158A0",
"{  c #3058A2",
"}  c #3158A2",
"|  c #3059A2",
" . c #3159A2",
".. c #3158A3",
"X. c #3159A3",
"o. c #3259A2",
"O. c #3258A3",
"+. c #3358A3",
"@. c #3259A3",
"#. c #3359A3",
"$. c #315AA3",
"%. c #335AA3",
"&. c #3458A2",
"*. c #3559A3",
"=. c #345AA3",
"-. c #355AA3",
";. c #375BA3",
":. c #325BA4",
">. c #3459A4",
",. c #3459A5",
"<. c #345BA4",
"1. c #355AA5",
"2. c #365AA4",
"3. c #355BA6",
"4. c #365BA6",
"5. c #355CA4",
"6. c #345CA5",
"7. c #345DA6",
"8. c #355DA6",
"9. c #355DA7",
"0. c #365CA6",
"q. c #365CA7",
"w. c #375CA7",
"e. c #365DA7",
"r. c #355EA7",
"t. c #365EA7",
"y. c #375EA7",
"u. c #385CA4",
"i. c #395DA5",
"p. c #395DA6",
"a. c #395EA7",
"s. c #3A5EA6",
"d. c #375DA8",
"f. c #365EA8",
"g. c #375EA8",
"h. c #385DA8",
"j. c #385EA8",
"k. c #395FA8",
"l. c #385FA9",
"z. c #395FA9",
"x. c #3A5FA9",
"c. c #3C60A7",
"v. c #3A60A9",
"b. c #3860AA",
"n. c #3960AA",
"m. c #3A60AA",
"M. c #3A61AA",
"N. c #3A60AB",
"B. c #3A61AB",
"V. c #3A62AB",
"C. c #3B62AB",
"Z. c #3D61A8",
"A. c #3E62A9",
"S. c #3C61AB",
"D. c #3E63AA",
"F. c #3F63AA",
"G. c #3B61AC",
"H. c #3B62AC",
"J. c #3C62AC",
"K. c #3D63AC",
"L. c #3C63AD",
"P. c #3D63AD",
"I. c #3E63AE",
"U. c #3E64AC",
"Y. c #3D64AE",
"T. c #3E64AE",
"R. c #3E65AE",
"E. c #3F65AE",
"W. c #3F65AF",
"Q. c #3F65B0",
"!. c #4064AA",
"~. c #4064AB",
"^. c #4165AB",
"/. c #4065AD",
"(. c #4165AD",
"). c #4265AC",
"_. c #4166AD",
"`. c #4266AC",
"'. c #4366AC",
"]. c #4065AE",
"[. c #4065AF",
"{. c #4066AE",
"}. c #4066AF",
"|. c #4167AF",
" X c #4266AE",
".X c #4367AE",
"XX c #4468AF",
"oX c #4469AF",
"OX c #4569AF",
"+X c #4066B0",
"@X c #4166B0",
"#X c #4167B0",
"$X c #4167B1",
"%X c #4267B1",
"&X c #4369B0",
"*X c #4268B1",
"=X c #4369B2",
"-X c #446AB1",
";X c #456AB1",
":X c #466AB1",
">X c #446AB2",
",X c #456AB2",
"<X c #456BB2",
"1X c #456AB3",
"2X c #456BB3",
"3X c #466BB2",
"4X c #466BB3",
"5X c #466CB2",
"6X c #466CB3",
"7X c #496DB1",
"8X c #496DB2",
"9X c #496DB3",
"0X c #4A6EB3",
"qX c #496FB5",
"wX c #4A6EB4",
"eX c #4A6FB4",
"rX c #4B6FB4",
"tX c #4A6FB5",
"yX c #4B6FB5",
"uX c #4A6FB6",
"iX c #4B70B5",
"pX c #4D71B5",
"aX c #4E72B6",
"sX c #4F73B6",
"dX c #4E72B7",
"fX c #4E73B8",
"gX c #5175B8",
"hX c #5276B9",
"jX c None",
/* pixels */
"jXjXjXjXjXjXjXjXjXjXjXjXjXjXjXjXjXjXjXjXjXjXjXjXjXjXjXjXjXjXjXjXjXjXjXjXjXjXjXjXjXjXjXjXjXjXjXjX",
"jXjXjXjXjXjXjXjXjXjXjXjXjXjXjXjXjXjXjXjXjXjXjXjXjXjXjXjXjXjXjXjXjXjXjXjXjXjXjXjXjXjXjXjXjXjXjXjX",
"jXjXjXjXjXjXjXjXjXjXjXjXjXjXjXjXjXjXjXjXjXjXjXjXjXjXjXjXjXjXjXjXjXjXjXjXjXjXjXjXjXjXjXjXjXjXjXjX",
"jXjXjXjXjXjXjXjXjXjXjXjXjXjXjXjXjXjXjXjXjXjXjXjXjXjXjXjXjXjXjXjXjXjXjXjXjXjXjXjXjXjXjXjXjXjXjXjX",
"jXjXjXjXjXjXjXjXjXjXjXjXjXjXjXjXjXjXjXjXjXjXjXjXjXjXjXjXjXjXjXjXjXjXjXjXjXjXjXjXjXjXjXjXjXjXjXjX",
"jXjXjXjXjXjXjXjXjXjXjXjXjXjXjXjXjXjXjXjXjXjXjXjXjXjXjXjXjXjXjXjXjXjXjXjXjXjXjXjXjXjXjXjXjXjXjXjX",
"jXjXjXjXjXjXjXjXjXjXjXjXjXjXjXjXjXjXjXjXjXjXjXjXjXjXjXjXjXjXjXjXjXjXjXjXjXjXjXjXjXjXjXjXjXjXjXjX",
"jXjXjXjXjXjXjXjXjXjXjXjXjXjXjXjXjXjXjXjXjXjXjXjXjXjXjXjXjXjXjXjXjXjXjXjXjXjXjXjXjXjXjXjXjXjXjXjX",
"jXjXjXjXjXjXjXjXjXjXjXjXjXjXjXjXjXjXjXjXjXjXjXjXjXjXjXjXjXjXjXjXjXjXjXjXjXjXjXjXjXjXjXjXjXjXjXjX",
"jXjXjXjXjXjXjXjXjXjXjXjXjXjXjXjXjXjXjXjXjXjXjXjXjXO jXjXjXjXjXjXjXjXjXjXjXjXjXjXjXjXjXjXjXjXjXjX",
"jXjXjXjXjXjXjXjXjXjXjXjXjXjXjXjXjXjXjXjXjXjXjXjX= = = jXjXjXjXjXjXjXjXjXjXjXjXjXjXjXjXjXjXjXjXjX",
"jXjXjXjXjXjXjXjXjXjXjXjXjXjXjXjXjXjXjXjXjXjXjX8 d j s 6 jXjXjXjXjXjXjXjXjXjXjXjXjXjXjXjXjXjXjXjX",
"jXjXjXjXjXjXjXjXjXjXjXjXjXjXjXjXjXjXjXjXjXjX% d ` +.^ p @ jXjXjXjXjXjXjXjXjXjXjXjXjXjXjXjXjXjXjX",
"jXjXjXjXjXjXjXjXjXjXjXjXjXjXjXjXjXjXjXjXjX@ : B 1.N.4.F 3 % jXjXjXjXjXjXjXjXjXjXjXjXjXjXjXjXjXjX",
"jXjXjXjXjXjXjXjXjXjXjXjXjXjXjXjXjXjXjXjX* > i R h.Y.S.2.Q M w jXjXjXjXjXjXjXjXjXjXjXjXjXjXjXjXjX",
"jXjXjXjXjXjXjXjXjXjXjXjXjXjXjXjXjXjXjX@ , a H @.n.E.|. X!.u.m # jXjXjXjXjXjXjXjXjXjXjXjXjXjXjXjX",
"jXjXjXjXjXjXjXjXjXjXjXjXjXjXjXjXjXjX@ - t A  .e.B.W.,XtX0X~.! 4 # jXjXjXjXjXjXjXjXjXjXjXjXjXjXjX",
"jXjXjXjXjXjXjXjXjXjXjXjXjXjXjXjXjX* , t V } t.B.L.W.,XuXiXXXp.! m w jXjXjXjXjXjXjXjXjXjXjXjXjXjX",
"jXjXjXjXjXjXjXjXjXjX@ @ + + X . @ > a S { e.H.Y.R.W.%X,X4X:XXX~.u.m #     . o + @ jXjXjXjXjXjXjX",
"jXjXjXjXjXjXjXjXjX@ @ # $ % % % : p H  .8.n.K.T.E.W.E.E.[.-XeX0X^.! 4 & = ; = % @ @ jXjXjXjXjXjX",
"jXjXjXjXjXjXjXjXjX@ # = 2 e p d c R @.9.g.y.j.m.P.T.J.l.j.U.5XeXXXp.! L Q L x 3 % + jXjXjXjXjXjX",
"jXjXjXjXjXjXjXjXjX+ $ , f H ( O.1.d.n.M.y.o.] <.m.P.v.%.] 5.U.-X;X.X^.).'.~.;.h = o jXjXjXjXjXjX",
"jXjXjXjXjXjXjXjXjX+ % 8 n _ 6.l.J.T.E.P.y.' Y [ k.K.k.[ Y ] j.[.<XeXpXsXaX8XZ.J ; . jXjXjXjXjXjX",
"jXjXjXjXjXjXjXjXjXjX% 7 k T ..g.H.R.W.T.v.=.] =.m.P.m.=.' #.k.E.6XdXhXsX7X`.i.N ; jXjXjXjXjXjXjX",
"jXjXjXjXjXjXjXjXjXjXjX: 7 p Z } f.V.Y.E.K.v.j.v.K.T.K.v.j.z.G.W.6XfXgX7Xc.~ N y jXjXjXjXjXjXjXjX",
"jXjXjXjXjXjXjXjXjXjXjXjX@ - t A  .t.C.T.W.E.T.T.E.W.E.T.T.T.T.}.,XyXrX^.! 5 # jXjXjXjXjXjXjXjXjX",
"jXjXjXjXjXjXjXjXjXjXjXjXjX@ , a S ..l.T.+X+X+X+X+X+X+XQ.Q.W.W.W.]./.F.;.m # jXjXjXjXjXjXjXjXjXjX",
"jXjXjXjXjXjXjXjXjXjXjXjXjXjX& > t I q.Y.+X+X+X+X+X+X+XQ.W.Q.+XT.x.&.L x q jXjXjXjXjXjXjXjXjXjXjX",
"jXjXjXjXjXjXjXjXjXjXjXjXjXjXjX$ 1 B 3.I.+X+XW.E.T.I.T.W.}.@X@XY.0.G r < jXjXjXjXjXjXjXjXjXjXjXjX",
"jXjXjXjXjXjXjXjXjXjXjXjXjXjX* > i I w.T.#X#XW.J.h.4.x.{.,X,X*XE.x.&.L v w jXjXjXjXjXjXjXjXjXjXjX",
"jXjXjXjXjXjXjXjXjXjXjXjXjX@ , a H @.z.E.$X$XW.j.` G *._.eXqX>X}.].(.F.u.m # jXjXjXjXjXjXjXjXjXjX",
"jXjXjXjXjXjXjXjXjXjXjXjX@ - e Z { 8.B.Y.W.W.J.>.z q Q !.0XwX>X@X>XwX0X~.! 4 # jXjXjXjXjXjXjXjXjX",
"jXjXjXjXjXjXjXjXjXjXjX> 7 i b W :.r.b.B.n.d.,.U e ; m u.!._.{.@X1XuXiXoXs.~ N y jXjXjXjXjXjXjXjX",
"jXjXjXjXjXjXjXjXjXjX% 7 k H / | :.7.r.8.@.R c p 1 jXw M Q -.m.W.=X2X6X3XOX^.i.N ; jXjXjXjXjXjXjX",
"jXjXjXjXjXjXjXjXjX+ % 9 C ) | | | X.$.{ P p : % jXjXjX% 3 B 1.J.T.T.E.&X9X7XA.L ; . jXjXjXjXjXjX",
"jXjXjXjXjXjXjXjXjXjX% 8 l S P H S S S C f , @ jXjXjXjXjX@ u E >.1.,.1.a.D.~.p.J ; jXjXjXjXjXjXjX",
"jXjXjXjXjXjXjXjXjXjXjX> 8 e e e 0 0 0 9 2 - jXjXjXjXjXjXjX6 s j z j z D K Q J g jXjXjXjXjXjXjXjX",
"jXjXjXjXjXjXjXjXjXjXjXjX% % % % % % % % % jXjXjXjXjXjXjXjXjX= = = = = = ; ; ; jXjXjXjXjXjXjXjXjX",
"jXjXjXjXjXjXjXjXjXjXjXjXjX+ + + + + + + jXjXjXjXjXjXjXjXjXjXjXO O O o X . . jXjXjXjXjXjXjXjXjXjX",
"jXjXjXjXjXjXjXjXjXjXjXjXjXjXjXjXjXjXjXjXjXjXjXjXjXjXjXjXjXjXjXjXjXjXjXjXjXjXjXjXjXjXjXjXjXjXjXjX",
"jXjXjXjXjXjXjXjXjXjXjXjXjXjXjXjXjXjXjXjXjXjXjXjXjXjXjXjXjXjXjXjXjXjXjXjXjXjXjXjXjXjXjXjXjXjXjXjX",
"jXjXjXjXjXjXjXjXjXjXjXjXjXjXjXjXjXjXjXjXjXjXjXjXjXjXjXjXjXjXjXjXjXjXjXjXjXjXjXjXjXjXjXjXjXjXjXjX",
"jXjXjXjXjXjXjXjXjXjXjXjXjXjXjXjXjXjXjXjXjXjXjXjXjXjXjXjXjXjXjXjXjXjXjXjXjXjXjXjXjXjXjXjXjXjXjXjX",
"jXjXjXjXjXjXjXjXjXjXjXjXjXjXjXjXjXjXjXjXjXjXjXjXjXjXjXjXjXjXjXjXjXjXjXjXjXjXjXjXjXjXjXjXjXjXjXjX",
"jXjXjXjXjXjXjXjXjXjXjXjXjXjXjXjXjXjXjXjXjXjXjXjXjXjXjXjXjXjXjXjXjXjXjXjXjXjXjXjXjXjXjXjXjXjXjXjX",
"jXjXjXjXjXjXjXjXjXjXjXjXjXjXjXjXjXjXjXjXjXjXjXjXjXjXjXjXjXjXjXjXjXjXjXjXjXjXjXjXjXjXjXjXjXjXjXjX",
"jXjXjXjXjXjXjXjXjXjXjXjXjXjXjXjXjXjXjXjXjXjXjXjXjXjXjXjXjXjXjXjXjXjXjXjXjXjXjXjXjXjXjXjXjXjXjXjX",
"jXjXjXjXjXjXjXjXjXjXjXjXjXjXjXjXjXjXjXjXjXjXjXjXjXjXjXjXjXjXjXjXjXjXjXjXjXjXjXjXjXjXjXjXjXjXjXjX"
};
