/* XPM */
static char *sand_100[] = {
/* columns rows colors chars-per-pixel */
"100 100 35 1 ",
"  c #E7D327",
". c #E8D327",
"X c #E7D328",
"o c #E8D42C",
"O c #E9D633",
"+ c #EAD73A",
"@ c #EAD83E",
"# c #EBD943",
"$ c #ECDB4B",
"% c #EDDC54",
"& c #EDDE5C",
"* c #EEDF62",
"= c #EEE066",
"- c #EFE16B",
"; c #F0E26E",
": c #EFE271",
"> c #F0E374",
", c #F1E47C",
"< c #F2E683",
"1 c #F2E78A",
"2 c #F3E88D",
"3 c #F3E993",
"4 c #F4EB9B",
"5 c #F5ECA3",
"6 c #F6EEAB",
"7 c #F7EFB1",
"8 c #F7F0B5",
"9 c #F7F1B9",
"0 c #F8F1BD",
"q c #F8F3C3",
"w c #F9F4CB",
"e c #FAF6D3",
"r c #FBF7D9",
"t c #FBF8DC",
"y c #FCF9E2",
/* pixels */
"<,,,,::--=&&=&=&&%&&**::*****:**:::>>>,,<<24567790werrrreqq88898752<<,,<<234442<,>;;==*&&**=;;=;;;>>",
",<<,,::-==&&&==&&&&&***>:*;*:*:::::>,,,<<<2356779qwerrrrwwq08898652<,,,<<124431<,>>;-==&&&*=;=;;;;>>",
"<<<,,:>:-=&&&&&&&&%&&***;*******::>>,,,<<13346677qwerrtrewq00888642<,,,<<<2332<,>>;;===&&&*==;==;;;>",
"<<<,,,,:--=&&%&&&&&&&*********:::>,<<<<11223455670qerytrewqq0887632,<,,,,,<121,>;;;;-===&&*=====;;;>",
"<<<,<,,,>-=&&%&%&&&&&**********:>>,<11111223344569qertytrwqq977653<,,,,,>>,,<,>;-;;;-===&&*****==;>;",
"<<<<,<<<,;=&&%%&%&&&&***********>,<<12233122333457qwerreewq0776532<,>,>>>>>,,,;-=--;--=**&&&**&*=;;>",
"<,<<<<<<,>-=&%%%&&&&&&********>>>,,<1333311<<<12457qweeewq0875432<,>>>>>;;>>>>-==-----==*&&&%%&&*;;>",
",,,,<<11<,:=&&%%%&&&&*********>>,,,<<2333<<,,:,<1368qqwqq996543<,>>;;>;;;;-;;;=*===----=*&&&%&%%*;>>",
">>,,<<121,>=&%%%%%************:>>,>,,<21<,,-**::,146890q986542<>;=====--======**&=======&&%%%$%&&;>,",
";>>,<<121,>==%%%%%&*****;*:*>:::>;;;::,,:-=&%%&*:<33678876532<>**&&*&=**====*****&&*===&&&%$$$$%&;>>",
";;;>,<111,>==%%%%%***:*---*>>:>:;=**&====&%$#$$&*><345665532<>**%%%$%&&&&&&&&&*&&&&&&=&&%%$$#$$%&;;>",
"**;>,<<1,>;=&&%%%&&*:*-*-*:*;;**&&&&&%&&$$$##+#%*:,<34555531>**%$$$$%$%%%%%%%%%%%%%%%%%%%$$##$$%&=;;",
"&&=;>,,,>;=*&&%&&&**:**:->;*****&%$$$######+O+#$&*><2456654<>*&$$##$$$$$$$$$$#$$$#$$$$$$$$$###$$&&==",
"%&&=;;>>>=&%%%%&&****:*****;***&$$#@@+++OOOOOO#$&*:,1356654<:*%$#@@###$#$$$###@@@@@@@$$######$$$%&&&",
"%%&&=;;;=*%%%%&&&*******;****&&$##@+OOooOoOoOO+$%**><345554<:*%$#@@@@@@###@@@++O++++@########$##$&&&",
"$%%%%&*=*&%%%%%%&***********&%$##++ooooooooooO+#%**><2344431:=%$#++++++++++++OOOOOO++@@@@@@#@##$$$$$",
"$$$$%%%&&%%%$%%%%&&&&&&**&&&%$##+OOOooXXXooooO+@$%*>,<12222<,:&$#++OOOOOOOOOOOOOOOO++@@@++@@@####$$$",
"#$$#$$%%&%$$%$$$%%&&&&&&&&%$$###+OOooXXXXXoooOO+#%*:>,,<<1<<>*&$@+OOOOoOOOOOOOOOOOOOOO+++++@@#######",
"######$%%$$$$$%%%%&%%&&%%%$$$#++OOoooXXXXXXooOO+#%&*:::,>,>,>*%$@++oOoOooooOoOOOOoOOOOOO+O+++@@@####",
"#@#@###$$$$$$$$%%%%&%%%%%$$###+++OOOoXXXXXooOOO+@$&*=--->>>**&$#+OooXooooooooOooOOOoOOOOOO+OO+@@@@@#",
"@@@@+###$$$$$$%%%%%%%%$$$####+++++OoooXXXXoOOOO+@#%&***=*****%$@OOooXoooooooooOOOoOOOOoOOOOOOO+++@@@",
"+@+@+######$$$%%%%%%%%$$$###++++OOOOooXXooXOO+++@#$$&%&&*&*&%%#@+OooooXXoooooooOOOOOOoOOOOOOOOOOO+++",
"@@@@@###$$$$%%%%&%%%$$$$##+#+++OOOoooXXXXooOO+++@##$$$%%%%$$$##@+ooooXoXo.ooOoOOOOoOOOOoOOOoOooOOOO+",
"+++@@###$$$%%%&&%&%%$$$$###+++OoooooooXXooOOOO+++@@#$$$$$$$$##@++OoooooX.ooooOOOOOOOOOOOOOoOOOoOOOOO",
"++@++##$$$%%&&&&&%%%$$$$##+++OOOooooooXXooOOOO+O++@@@######@@+++OOooooXXoooooOOOOOOOOOOOOOOOoooooOOO",
"+++++#$$$%%******&&%%$$##@+++OOOOooooooXXoooOO+O++++@@++@@+++++OOOoooXoXooooOoOOOOOOOOOOOOOooooOoOOo",
"+++++#$$%&***;***&&%%$$###@+OOOOooooooXoXoXOOoO++++++++++O+OOOOOOoOoooXoXooOoOOO+OOOOO+OOOOOOooooOoO",
"O++++#$$%****;,*=***&%$##@@OOOOOOoooooXoXoooOOO++O+O+++OO+OOOOOOOOoooXoXoooooOO+++@+@+++OOOOOooooooo",
"OO+++#$$&**>>>;;;==&&%$#@@+OOOOoOoooooooXooooOOOO+O+O+O+O+OOOOOOOooooooXXoooOOOO+@@@@@@@O+OOOOoOoooo",
"OoOO+#$%&*;;,,,>>;=*&%$$#@@+O+OOOooOoooooooOOOOOOOOOO++O+O+++OO+OOOoooooooooooO++@#########OOOOooooo",
"oOOO++$%*;>,,,<,>;=*%%$##@OOOOOOoOoooooooooooOOOOOOOOOOOO++O+O+OOOoOoooooooOo+O++##$$$#####++OOoOooo",
"oooO+#$&**,,<<<,>;=*&%$$#++OOOOOOoOoooooooOOoOOOOOOOOO++O++++++OOOOoooooooOOOO++@##$$$$$$####+OOoooo",
"oooO+#%**>><<<<,>>**&%%$#++OOOoOOoooOoooOoOOoOOOOOOOOOOO++++@++OOOOoooooooOOO+####$$%%%%%$$##+++Oooo",
"ooO+#$%*:>,<<<<,>>**&%%$#++oOoOOoOOooOOooooOOOoOOooOOOO++++@@+++OOOoooooOOOO+++###$$%%&%%%$$##++OOo.",
"ooO+#%&*>,<<2<<,,>:;**&%$#+OoOOoOoOOOooOoOoOoOOOOoOOo+O+++++@@++OOOoooooOOO@++##$$$%&&&&&$$$###++OoO",
"oO+#$%*:>,<<<<<<,>>>>**%$++OOOoOOOOOOOOOOOOOOooOoOOoOOOO+++@@@++OOoOOoOOOOO++##$$%%*&*=&&%$$###++OOO",
"OO+$%**>,<<<<<<,,,>,>;*%$#+oOOOOOOOOOOOOO+OOOOOOOOOOOOO++@@@@@@++OooOooOO++@###$%%&*==-*&&$$$###+OOO",
"O+#$&*:>,<<<<<>,>>>>>;*%$#+OO++O+++O+++++++OOOOOOOOOO+O++@@@@@++O+OOOOOO++++@##$%&&*;::=**&$$$$$#+OO",
"O+#$&*:,<111<,,,>>>>:**%##++++++@@+@++++@@@+OOOOOO++++++@@@#@@@++O+OOOOO+O####$$%&*::>>-***%%%$$#+OO",
"++#%*:,<13431<>>>>>>;*&%$##++++#@@@@@@#@@@@@@@++++++++++@@@###@++O+OO+O+#####$$%&*>>>,,>,*****&$$++O",
"+#$%*,<3455541<,>::***&%$$###++##@##$#$##@#@@@@@++++@++@@#####@@+O++++###$$%%%%&**,<<<<,>>::****$#+O",
"O#%*,<356788541<>:***&%%%$$$####$$$$$$$$#$####@@#+@+++@@@$#$$##@#O++++##$%%%&&&*:,<1222<<,,<,,:*$#+O",
"##%*>2568qqq753<,:***&&&*&&%$$#$$$%%$$$$$$$##$####@@@@##$$$$$#$@+#++###$%%&&&*=;><133332<<111<,*&##+",
"+#%*<468qqqq7541<,,;;;;;;;;**&%%$$%$%%%$$$$$$$$#########$%%$$$$$#######$%&***;;;,14454321<1442<:&$++",
"#$&;2579qwwq8542<<<<<<<<<<<<;-*&%%$%$%%%$$$$$$$$$##$#$$%%%&%%$$$#####$$%%&**--;,<3555532<135541,=$$#",
"%&*<468qqwwq85422112223233311>;*%%%%%%%%%%%%%%$$$##$$%%%&&&&&$$$$$$$$$$%%***=;>,145665421146653<>*%$",
"*,<2678qqqqq754322233344444311>;*&%%%&&&&&%%%%%%%$$%%%&**=*&&%&$$%%%%$%%%&&*=->,14555543223565531,>;",
"2245789q9qq96544222344554443311;-*&&&&****&&&%%%%%%%&&==---=&&&&%&%&%&%%%%&&*-><12455443224556665433",
"6779qq9999987544313344455444431,--=&&*=-==**&&&&%&&&=-:-;:--*&&&&&&*&&&&%&%&*=,,<2334443323456888777",
"qqqwwwqqq9887544311133455444321,>-=***==--===*&&&**-*:>>>;-=*&&&&&*&&&&&&&&&*=;,<<11121122224689qqqq",
"rrrrewqq9888776431<<<133444421<,>--*=**===-====---::>>>>>--=*&****&&*&&***&**=;>>,<,<<<<<1123569qwww",
"yyyrrewqq88887741<<<<<1134431<,,::-=*****------:::,,,,,,>;-**&*&&*&&&&&*=-==*==--:::::><<<<12468qwwe",
"yyyyrrwwq99988741<,,,<<<2332<<>>:;--=*&**=-=----:,,<,,,>>>-=*&&*&&&&&&&*====***=--=-::>:,<<<24569qww",
"yyyyyreewqq99874<<,,>>,<<11<,:;;:;-=**&&*=====--:>,,<<,,,>:=&&&&%&&&&&&**===**&&&*===::,><<13456689q",
"rrrtyrrwwqq99764<,,,,>;>,<<<>;-;;;--=**&&==**=--:><<<,<,<,:-*&&%&&%&&&&&**=*&*&&&&&==::>:<<234455666",
"eerrrewwwqq97741<>:>;;;-;,,>;-=-;---==&&*&&&&*=->,<<<<,<<<,:=&&%&%&&&&&&&**&&&&&%&&*=---:,<133344444",
"wwwwewwq9977653<,-;-----;:::-==------=*&&&&&&&=->>,,,<<<<<<>-=&%%%&&&&&&&**&&&&%&&&**=---><<11223333",
"qqwqwqq9976653<<;-=*=**=-;*-=**==---===&&%%%%%*->,><,<<<1<<>-=&&%%%%%*&***&*%%%%%%&****=-;;<<1<<<<1<",
"779qq99866543<<>-***&&&&&****&*===--==*&%%%$%%*->>>>><<<111,:=&&%%%&&&&**&&%%%%%%&&&&**=--;<<<,<<<<<",
"566799865431<,>**&&&&&&%%&&&&&&&&*****&%%$$$%%&-:>:;:,<<111<:-*%%%%%**=**&&&%%%$%%%%&&*=--;>;;;;;;>>",
"3456886643<,>>**&&&&&%%$$$%%%&&%&&&&&&%%$$#$$%&----;:><<11<,:=*%%%%%**==&&%%%%$$$%%%&&*=-;;;--**==-;",
"1235866542<,****&&%%%%$$$$#$$$%%%%%%%%%$$##$$%&*--==->,<<<<,-=&&%%%&*==*&%%%$$$$$$%%%&*--;;;-*******",
"<<2566653<,*;**&&%%&%%$#######$##$$%$$$$####$$%&***&*;:,<<,-*&&%%&%&**=**%%$$$#$#$%%&**=--;;***%%***",
",<1456653<,>***&&%%%%%####+##+#+####$$##$###$$%%&&&&*=-::::=&&%&%&******%%$$$####$%%&&==-----*%%%%&*",
">,1355543<:--==&%%%%%$#@@@+++++O+++#########$#$%%%%%&&***:**&%%%&&&****&&$$$#$###$%%&***==--=&%%$%%&",
",,<234433<,-==&%$$$###@@++++O++OO++++##++#####$$$%$%%%&*****%%%%%%&&&&&&&$%$$###$$&&&*******&&%##$$$",
",,<<22222<,:-=&%$##@@++OOO++++OOO++++++#+######$$$$$$$%%%&&%%%$$$%%%%&&&%%$$##$$$%%&&*&***&&%%######",
">>,,<<12<<,:-=%%$#++OOOOOOOOOO+OOOO+++++++#+#####$#$$$$$%%&%%$$$$$%%%&%&&%$$$$$$%$%&&&&&&&%%%%###+##",
">>>>,,<,<,>:-&%$#@+OOOOoOOO+OOOOoOOOO+++++++############$$%$$$$$$$$%%&%%%%%$$##%$%%&&%&&%%%%$$##+#++",
"*:*:*,>,>>:-=%$$#+OOOooOoooOOOOOOooOoOoOO+O++++#@###+###$$$$$#$#$$%%&%%&%%$$$$#$$$$%%%%%%%%$###@++++",
"*******:;;-=&%$#@+OooOooooOooOOooOOooOOOoO++++++@@#@#++####$###$$$$%%%%%%%%$###$$$$$%%%%%%%$##@@#++O",
"&&&*****====%%$#+OOOooooooooOOOoOoooooooOooOOO++++++++#+#########$%%%%%&%%$$$##$#$$$$$$$%%$###@@+++O",
"$$$%%&%&&&&&%$#@+OOoOooOooooOOOOoooooooooOoOOOOOO+++++#########$$$$$%%%%%$$$####$####$$$#$####@O++O+",
"#$#$$$%$%%%%$$#@+OOOoooooooooooOoOooo.ooooooooOOO+++#++#+###+###$$$%$%%%%$$$#####$######$####@@@++++",
"########$$$$$#@++OOooooooooooOoooooo..oooooooooOO++++##++######$$$$%%%%%$$$###########$####@@#OO+++O",
"++++#+##@##@@+++OOOoOooooooooooooo...oo.oooooooOOO+++++####+###$$$$$$%%$$$$$###+###########+OOOOO+++",
"+++++++++++++O+oooOooooooooooooXoo..o.ooooooooooOOO+++++++#####$$%%$%$$%$$####+#+++#######+OOOOOO+++",
"O+O+O++++++O+OOOoooOOoOoooooXoXo.o.o....o..oooooooOOO++++#+###$$$%$%%%%%$$###+++++++###+++OOOooOOO++",
"+O+++O+++O+++OOooooOoOoooooXXXoXo......oXoo..ooooOOOOO+++++#$$%%%%%%%%$$$###+++++++++##++OOoOoOOO++O",
"O+OOO+O++++OOOoOOoooOoOoooXoXoXXo.oo.....XXoooooooooOOO+++##$$%%%%&%%$$$$###++++++++#++++OOoooOoOOOO",
"O+O+O+@O+++O+OOooooOOoOooXoX   oXXXXXXXXXoooooo.oooooOOOOO##%%%%&%%%%%%$$##@++++++++++++OoOoooOOoOOO",
"OOOOOOO@+++++O+ooooooooooXXX    X XXXXXXXXo..oXooooooooO@@#$%%&&&&&&%%%$$##@++++++O++++OOoooOooOOOOO",
"OOOOO+@O+++++O+OooooXooooXXX       XXXXXXoXoooXooooooooOO##%%&&&&&&%%%%%$###@++++++++OOOOooooOOOOOoO",
"OOOOOOO@#++#+OOOOooooXoXXXXX     X   XXXXXXo.ooooooooooOO@#%%&*&&&&&&&%%%$###@+++++OOOOOoOOOOoOooOOO",
"oOoOO@OO@@@+O+OOooooooooo  o    XXXXXXXXXooo.oooooooooOO@@#%%&&**&*&**&&%%$##@++++++OOOOOoOoooOOOoOO",
"OOOOOO@@@+#@@@+OOOXOoooooooo o  XXXXXXXXXXXoooooooooooOO@##$%&&&&&&*****%%$$###+++++OOOOOOOOOOOoOooO",
"OOOOO@@O@+++@O+OOOoXooooooooooooXXXXXXXoooXX.oooOoooOOOO##$%%&*******=**&%%$###@+++++OOOO+OOOOOOoOOo",
"O+OOOO@@#@##@O+OOOOOOoOOoOoOooooOoooooXXoXXooooooooOOOO@##%%%&**==**==-**%%$##@@+#+++O+OO+++++OOOOOO",
"++O@O+@###+++++OOOOOOOOOOOOOOOOOOOOoOooooooooooooooO+O###%%%***;======-=&&%$##@@@@#@+++++@@@+++++OOO",
"++@O@@+@#####+++++OOOO+@+@+@++++@++++OOOoOoooo.ooooOOO+#%%&*=-;;>;----==*&%$$##@#####@@@@###@@@+++++",
"++++++#######++++O++@@###############@++OOOoooooooooOO#$%**:>>,>>>;;;==*&&%%$###@#############@@++++",
"#+@@@###$$###+#++@+@##$$%$%$$$$%%%%$$##@+#+OOoo.o..oO##$**>,<<1<<<,>;===*&&&%$$####$$$$$$$$#########",
"@@@####$$$$$###@@+@##$%%%%&%%&&&****&%$######OOooooo+#%&*,<11311<<<,>;;===**&&%$$$$$$%%%%$$$$##$####",
"@#####$%$%%$$###@###$$%&*&*****::,-**&%%%&&%$##OoooO#$*;,<134343311<<,,>>>>>;=*&%%$$$%%$%$%#$$#$$###",
"###$$%%%%%%$$$#####$$$%&***::*><<<<,>*=*=-;=*&##OOO+$*:<123445433222111111<1<<>;*&%%%$%%%$%$$$$$$$$$",
"###%%%&***%%$$$#$$$$$%&%****::<1331<<,*->><,>-&$++#$%;<24445655433322333333321<>;*%%$%%%%%%%%%%%%$$$",
"%%%%***=**&%%%$%%$%%%%%&&**->,<244321<,,,<111<;&$#$%=<3455666665433333444434333<>;=&%%%&&&%&%%%%%%$$",
"&%&&**-*==*&&%%%&&&%%%%%%&*-;,12344431<<<12343<=&%&*,366766666643333334555543332<>=*&&%&=****&*%%%%%",
"&&&=::;;-***&%&&&*&&%%%%%&*=><<3344443211235552>***;<468777786553333344555543333<,;==&**====**&&%%%$",
"&&*=*>;;;***&&&&&**&&%%%%%*=><13344543332235663,=*=,<5897777866543333345555543331<;;*&&======&=&%%%%"
};
