/* XPM */
static char *sand_50[] = {
/* columns rows colors chars-per-pixel */
"50 50 35 1 ",
"  c #E7D327",
". c #E8D327",
"X c #E7D328",
"o c #E8D42C",
"O c #E9D633",
"+ c #EAD73A",
"@ c #EAD83E",
"# c #EBD943",
"$ c #ECDA4B",
"% c #EDDC54",
"& c #EDDE5B",
"* c #EEDF62",
"= c #EEE066",
"- c #EFE16B",
"; c #F0E26E",
": c #EFE271",
"> c #F0E374",
", c #F1E47C",
"< c #F2E683",
"1 c #F2E78A",
"2 c #F3E88E",
"3 c #F3E994",
"4 c #F4EB9C",
"5 c #F5ECA3",
"6 c #F6EEAA",
"7 c #F7EFB2",
"8 c #F7F0B5",
"9 c #F7F1B8",
"0 c #F8F1BC",
"q c #F8F3C4",
"w c #F9F4CC",
"e c #FAF6D2",
"r c #FBF7D9",
"t c #FBF8DC",
"y c #FCF9E3",
/* pixels */
"<,,-=&=&&&*-**-:::>,<3670wrrw07061,,1341>;=*&==;;>",
"<,,>-&&&&&&****->,<<13560wrtwq0751,,,22,>;;*&*==;>",
"<<,,>&&&&&&*****><1222346wrreq763,,,>,,;=;=*****=>",
",<<1,=&%&&&***-:,<132<,<30wwq753,>>>>;;==;;=*&%%=>",
">,<1<-&%%****-*>>>,<,-&*,479751:;**====***==&%%%=>",
"=>,1,-&%%*--;*>;*&&&&$#%-<4653>&$$%%&%&&&%&%%##%=;",
"&*>,;&&&&*--*-**%###++O#*>3662-%###$$$#####$$##$%=",
"$&*=*%$&******&$#OooXoO@&:1353-$@+@@@++OO+@#@###$%",
"$$$&&%$$%&&&&&$#+ooXXXo+$-,<11:%@OOOOOOOOO+++@##$$",
"####$$$%%&&%$$#+OOXXXoO+#*-:>:-$+ooooooOOOOOOO+@@#",
"@@@##$$%%%%$$#@++OoXooO+#%&&**%#OoooooooOoOOOOO+++",
"++##$$%&&%$$#@+OOXoXoOO+@#$%$$##Oo..ooOOOOoOOOoOOO",
"+@##%%&*&%$$#+OOooXXoOOO+@@##@@+OoooXoOOOOOOOOoooO",
"O+@$&*;**&%$@+OOooooooOO++O+OOOOOoooooOOO++OOOoooo",
"OO@$&>>>-*%$@+OOooooooOOOOO++OOOOooXoooO+##@@+Oooo",
"oO@%*,<,>*%$#OOOOOooXOoOOOOO+++OOOooXOO+##$$##+OOo",
"oO#&-<<<>*%%#OOOOOoooOOOOoO+++@OOoooOO+@#%%%%$@+Oo",
"o+$-><<<,>*%#OoOOoOOOOoOoOOO+@@+OOoOOO@#$%*&%$#@Oo",
"O#&:<<<,,>:&#+OO+OO+OOOOOOOO@@#+OOoO++#$%*==&%$#+O",
"+$*>13<,>:;%#++@@++@#++OO++@@@#++OOO+##$&-,>-&&%#O",
"@%>3663<:**%%####$$####@@+@@####+++#$%%*-<1<,,>=$O",
"@&26qq62,;****%$$$%$$$$##@##$$%#@##$&&==<342<22>$+",
"%*40qq73<12211>*%$%%%$%$##$%&&%#$#$$&*;>2653<55<*$",
"<370qq632335531,=&&&&&%%%%&***&%%%%%%&=,255324652<",
"00qq00632235443<>***:**&&**;>***&&&&&&*>1232135900",
"treq07751<12341,>******:;>,>;****&&*=**;>>,<<147qe",
"yyrwq005<,,<11,,;****:*;><,,,**&&&&*==**==:>,1369q",
"rrreqq74,>>>,<;*;;*&***:><<<<;*%%&&&**&&&&=:>13455",
"qwqq0751;***;;***>**%%&*,,,<1,*&%&&&*&&%&&*=;,1122",
"77q753<:****&*******%%%*;;,<1<**%%&*&&%%%&&==>,>>,",
"25763<**&%%%$%%%%&&%$#%**;><1<;*%%*=&%$$$%&*;;=*==",
"<3662>**%%%##@####%####%***;,;*%&&**&$$#$%&=;;=%&&",
">1541:-&%$$@+++OO##@###%%%&&=*%%%&*&%$##$%&===&%$%",
"><111:=%$@+OOO+OOO++@####$$$&&%$$%&&%%$$%&&*&&%###",
"-::,,:=$@OoOOOOOOOOOO+@#####$$$$$%&%%$#$$%%%%%##++",
"***--=%#+OooooOOooOOOOO++@@@#####$&%%$#$$$$%%$#@++",
"$$%%%&$#OOoooXOoOXoooOoOO@@#####$$%%$$###$##$#@@++",
"@@#####+OOoooooooXXXooooO++@#@##$%%%$$#######@+O++",
"+++++++OOooooooXXX oooooOO+@+@#$$$%$$##+@@##@OOOO+",
"OOO++OOOooOoooooX..  oooooO++#$%&%%$$@++++#@OOooOO",
"OOO+++OOoooOXXXXXXXo oo oooO@#%&&%%$$@++O+@OOoOoOO",
"OOO++@+OOooXXX  XXXX ooooooo@#&&&&&%$#@+++OOOooOoO",
"OOO@@@+OoXoooXX XXXXoooooooO@#&&&*&*%$#@++OOOOOOoO",
"OOO@@@++OOOoOoooooXX o ooOO+#%&***==&$#@@+OOOOOOOO",
"+++@##@O+OOOOOO+++OOoooooOO@%&**;===&%##@#@+@#@+O+",
"@+@####+++#$$$$#$%#++OOoXo+#*:,<,>==&%$###$#$###@#",
"@###%$##@#$%**&***%%$$#OXO#&>1321<,>;;=%$$%%$$#$##",
"#$%&%%$#$#%%***<21:*;>*$O@&<25542222221>=%$%%%%$$$",
"%&***&&%%%%%&*,1431<<22:%&,5666542444432,&&&&&&&%$",
"&**::*&&*&%%&*,23442146<**30777542345533<;&*==**%%"
};
