/* XPM */
static char *sand_32[] = {
/* columns rows colors chars-per-pixel */
"32 32 227 2 ",
"   c #E7D326",
".  c #E7D327",
"X  c #E8D327",
"o  c #E7D328",
"O  c #E7D428",
"+  c #E8D328",
"@  c #E8D329",
"#  c #E8D428",
"$  c #E8D429",
"%  c #E8D42A",
"&  c #E8D42B",
"*  c #E8D42C",
"=  c #E8D42D",
"-  c #E8D52D",
";  c #E8D52E",
":  c #E8D52F",
">  c #E9D52F",
",  c #E8D530",
"<  c #E9D530",
"1  c #E9D531",
"2  c #E9D631",
"3  c #E9D532",
"4  c #E9D533",
"5  c #E9D632",
"6  c #E9D633",
"7  c #E9D634",
"8  c #E9D635",
"9  c #E9D636",
"0  c #E9D736",
"q  c #E9D637",
"w  c #E9D737",
"e  c #EAD637",
"r  c #EAD737",
"t  c #E9D738",
"y  c #E9D739",
"u  c #EAD738",
"i  c #EAD739",
"p  c #EAD73A",
"a  c #EAD73B",
"s  c #EAD73C",
"d  c #EAD73D",
"f  c #EAD83C",
"g  c #EAD83D",
"h  c #EAD83E",
"j  c #EAD83F",
"k  c #EAD840",
"l  c #EBD840",
"z  c #EAD841",
"x  c #EBD841",
"c  c #EBD842",
"v  c #EBD942",
"b  c #EBD943",
"n  c #EBD944",
"m  c #EBD945",
"M  c #EBD946",
"N  c #EBD947",
"B  c #EBDA46",
"V  c #EBDA47",
"C  c #EBDA48",
"Z  c #EBDA49",
"A  c #EBDA4A",
"S  c #ECDA49",
"D  c #ECDA4A",
"F  c #ECDA4B",
"G  c #ECDB4B",
"H  c #ECDA4C",
"J  c #ECDB4C",
"K  c #ECDB4D",
"L  c #ECDB4E",
"P  c #ECDB4F",
"I  c #ECDB50",
"U  c #ECDB51",
"Y  c #ECDB52",
"T  c #ECDC50",
"R  c #ECDC51",
"E  c #ECDC52",
"W  c #EDDC52",
"Q  c #ECDC53",
"!  c #EDDC53",
"~  c #ECDC54",
"^  c #EDDC54",
"/  c #ECDD54",
"(  c #EDDC55",
")  c #ECDD55",
"_  c #EDDD55",
"`  c #EDDC56",
"'  c #EDDD56",
"]  c #EDDD57",
"[  c #EDDD58",
"{  c #EDDD59",
"}  c #EDDD5A",
"|  c #EDDE5A",
" . c #EDDE5B",
".. c #EDDE5C",
"X. c #EDDE5D",
"o. c #EEDE5D",
"O. c #EDDF5F",
"+. c #EEDE5E",
"@. c #EEDE5F",
"#. c #EEDF5F",
"$. c #EEDE60",
"%. c #EEDF60",
"&. c #EEDF61",
"*. c #EEDF62",
"=. c #EEDF63",
"-. c #EEDF64",
";. c #EEDF65",
":. c #EEE064",
">. c #EEE065",
",. c #EFE065",
"<. c #EEE066",
"1. c #EFE066",
"2. c #EEE067",
"3. c #EFE067",
"4. c #EEE068",
"5. c #EFE068",
"6. c #EFE069",
"7. c #EFE169",
"8. c #EFE06A",
"9. c #EFE16A",
"0. c #EFE16B",
"q. c #EFE16C",
"w. c #EFE16D",
"e. c #EFE16E",
"r. c #EFE26E",
"t. c #EFE26F",
"y. c #F0E26F",
"u. c #EFE270",
"i. c #F0E270",
"p. c #F0E271",
"a. c #F0E272",
"s. c #F0E373",
"d. c #F0E374",
"f. c #F0E375",
"g. c #F0E376",
"h. c #F0E377",
"j. c #F0E378",
"k. c #F0E478",
"l. c #F0E479",
"z. c #F0E47A",
"x. c #F1E47A",
"c. c #F1E47B",
"v. c #F1E47C",
"b. c #F1E47D",
"n. c #F1E57D",
"m. c #F1E57E",
"M. c #F1E57F",
"N. c #F1E580",
"B. c #F1E581",
"V. c #F1E582",
"C. c #F1E682",
"Z. c #F2E683",
"A. c #F2E684",
"S. c #F2E685",
"D. c #F2E686",
"F. c #F2E687",
"G. c #F2E787",
"H. c #F2E788",
"J. c #F2E789",
"K. c #F2E78A",
"L. c #F2E78B",
"P. c #F3E78C",
"I. c #F2E88C",
"U. c #F3E88C",
"Y. c #F3E88D",
"T. c #F3E88E",
"R. c #F3E88F",
"E. c #F3E890",
"W. c #F3E990",
"Q. c #F3E991",
"!. c #F3E992",
"~. c #F3E993",
"^. c #F3E994",
"/. c #F3E995",
"(. c #F3E996",
"). c #F4E994",
"_. c #F4E995",
"`. c #F4EA97",
"'. c #F4EA98",
"]. c #F4EA99",
"[. c #F4EA9A",
"{. c #F4EB9B",
"}. c #F4EB9C",
"|. c #F4EB9D",
" X c #F4EB9E",
".X c #F5EB9F",
"XX c #F5EC9F",
"oX c #F5ECA0",
"OX c #F5ECA4",
"+X c #F5EDA6",
"@X c #F5EDA7",
"#X c #F5EDA8",
"$X c #F6EEA9",
"%X c #F6EEAA",
"&X c #F6EEAB",
"*X c #F6EEAE",
"=X c #F6EFAF",
"-X c #F6EFB0",
";X c #F6EFB1",
":X c #F7EFB2",
">X c #F7F0B3",
",X c #F7F0B4",
"<X c #F7F0B5",
"1X c #F7F0B7",
"2X c #F7F0B8",
"3X c #F7F1B8",
"4X c #F7F1B9",
"5X c #F8F1BC",
"6X c #F8F2BF",
"7X c #F8F2C0",
"8X c #F8F2C1",
"9X c #F8F3C1",
"0X c #F8F3C4",
"qX c #F9F3C5",
"wX c #F9F3C7",
"eX c #F9F4C9",
"rX c #F9F4CA",
"tX c #F9F5CD",
"yX c #FAF5CF",
"uX c #FAF6D4",
"iX c #FAF6D5",
"pX c #FBF7D9",
"aX c #FBF8DA",
"sX c #FBF8DC",
"dX c #FCF9E0",
"fX c #FCF9E1",
"gX c #FCFAE7",
/* pixels */
"N.k.0...*.{ @.w.=.7.t.d.n.J.&X1XuXsX0X<X1XA.v.K.XXm.y.:. .0.9.s.",
"D.M.c.o._ ..{ *.&.+.a.H.Y.R.].&XuXfXtX3X#Xv.b.a.A.6.y.2. .=.*.i.",
"l.Z.Y.q.Q ] #.*.%.w.v.N.[.V.t.V.1XeX2XXXc.w.y.q.q.*.5.q.&.Q ~ g.",
"2.N.P.q.^ Q 0.3.w.y.1...%.P s *.L.$X}.f.L K ] } {  .[  .E b E p.",
"( 0.p.! [ *.:.<.4.@.C 0 , 1 1 ] g.#X#X1.v h b n g w i n b n C | ",
"Z Z { U J ( ..o.[ B 8 * X % > v d.N.K.h.b 7 2 2 3 6 6 p y k b B ",
"g g V Z L ] ^ P M g y ; + & 7 f @.>.8.X.t & & & - 3 5 1 6 6 p h ",
"s j B L [ ] L V g w ; * $ : t p b J Z n i = % $ : 4 5 4 5 : ; 7 ",
"u d I *.3.$.~ V a 7 ; * $ & 3 i t t 9 6 6 * % & < 9 9 8 7 : * , ",
", a ^ a.m.i...M p 7 , ; & = 1 7 8 9 r 0 7 > & * : r n n j q : & ",
"* a =.N.G.y.{ H 7 , 1 : - , 2 5 3 8 p s 0 ; & < e k J ~ Q n r * ",
"1 R d.Z.A.j.g.] w 5 5 4 4 4 < < 2 8 s j w : > q f A [ 4.' M v 2 ",
"p =.B.W.k.s.s./ i p k y j j t 0 p i l l i 9 7 g m P r.k.5.| T 8 ",
"h b.-XqX`.u.{ ) ~ b D U K N M z g g A D j p b [ @.9.U./.N.L.0.t ",
"H {.wXrX XH.R.!.^.f.Q I ~ P I D N W o.^ Z C H ..8.c.=XoXZ.:XA.A ",
"*X7X5X4X|.E.'.+X{._.w.o.9.>...( o.e.u.$.{ &.} ~ +.C.`.}.R.oX5X>X",
"gXaX8X,X<XS.v.Y..XM.p.,.@.0.8.a.n.x.w.X.*.| +.0.*.w.r.f.N.J.,XiX",
"pXdXyX9X;Xl.l.i.A.6.y.2. .=.*.p.A.M.c.X._ ..{ *.%.] O.t.k.(. X#X",
"6XwX<X%XU.<.&.*.9.&.5.q.&.Q ~ g.l.Z.Y.q.Q ] O.%.] ^ o.*.5.V.A.D.",
"W.,XOXz.*.} ] H F ] [  .E b E r.3.N.P.q.^ ! 9.[ R F W o.i.0.X.5.",
"x.$X Xr.;.W ] x a y t n b n C [ _ 0.p.! [ *.=.Q B k ^ =.6.q.P { ",
"z.D.I.l...m 8 6 9 e 4 p p k b V Z Z { R F E | Q C K { +...^ v j ",
":.4.p.w.I u : = : 4 ; ; 5 6 p h h g V m N ! ' ~ B S K W ~ C g i ",
"n J R _ B 9 ; * & , ; % & = ; 8 s j b x V P ~ I n m V b Z x p i ",
"i u p p 8 : : * * & & + % & * < u s j b K P R F c s f M l 2 3 i ",
"9 9 u q 6 * < , $ $ % # # $ & & : 8 p L ' ` P M i q p h 6 - 1 7 ",
"3 8 p s w = % & .   o X $ % & & & * k  .@.{ _ C g p u 7 : : 2 5 ",
"2 8 s j r < = = & $ O . @ % & ; = 6 n ] o.$.2.' m s i 6 4 6 < < ",
"p i l l i 9 6 9 q 7 q 4 , & & * 1 g ! =.e.3.7. .n j v i j j i 9 ",
"g g A D l p b ' ) ^ ..) m j 6 . * G h.T.F.v.>.%.[ n D U L N M v ",
"V W +.^ Z C J ..6.d.].C.>.M.0.e k H.}.#X].Q.^.^.).g.Q I ^ I I F ",
" .w.t.#.[ &.{ U o.Z.[.|.P.Q.=X+.u.2X=X,X{.E.{.@X`.~.0...5.-...Y "
};
