/* XPM */
static char *sand_80[] = {
/* columns rows colors chars-per-pixel */
"80 80 35 1 ",
"  c #E7D327",
". c #E8D327",
"X c #E7D328",
"o c #E8D42C",
"O c #E9D633",
"+ c #EAD73A",
"@ c #EAD83E",
"# c #EBD943",
"$ c #ECDB4C",
"% c #ECDC54",
"& c #EDDE5C",
"* c #EEDF62",
"= c #EEE066",
"- c #EFE16B",
"; c #F0E26E",
": c #EFE271",
"> c #F0E374",
", c #F1E47C",
"< c #F2E683",
"1 c #F2E78A",
"2 c #F3E88E",
"3 c #F3E993",
"4 c #F4EB9B",
"5 c #F5ECA4",
"6 c #F6EEAB",
"7 c #F7EFB2",
"8 c #F7F0B5",
"9 c #F7F1BA",
"0 c #F8F1BD",
"q c #F8F3C3",
"w c #F9F4CB",
"e c #FAF6D4",
"r c #FBF7D9",
"t c #FBF8DC",
"y c #FCF9E3",
/* pixels */
"<,,,>-==****&%&*==--====--->:,,,<1356880wertewq9999751<,<<13452<,:--=*&&==---::>",
",<,,>>-=*&**&&&&&==-====--:>:,,,<1356680wertrwq9977741,,,<12332<,::-=*&&==----:>",
"<<,,,>>=&&&&&&&&&====&==-->>,,<<12345680wettrww998863<<,,,,<22<,:::-=*&&&===--::",
"<<<<,,>-*%&%&&&%&&*=&=&==->,<2<212334568wetyrewq97753<,,,,:,<1,*-:--==*&&====--:",
"<<<,<<,>=&%&%&&%&**&=&*==-:<<233222233469eereeqq86541,,,,>:,,,:*==--===&&=&=&=::",
",,<,<<<,=*&%%&&*&&****==:>,<<23332<,,<257qwwwq086431,:::::;>:::*==---==&&%%&&=:>",
",,,<121,-=&$%&%*******--::,,,<231,:---,257qqq97543<::**:;-:*:***=======&&%$%&=:,",
"-:,<<21,:=&&$$&*======-:::::-:,,:-=&&=-<357777542,-*&***********&=====&&%$$$%=:>",
"*;>,<11,-=&%%%&==-==-----===&===*&$##%*;<3567542,;&%$%%%&&&&&&&&&&&&&&%%$##$%*:,",
"*=>>,1,>==&%%%&=-==-----==&%%%$$$##++$&;>1355541>=%$#$$%%%%%%%%$%$$%%%%$$#$$%***",
"&&=;>,>;*&%%&&*=====--===%%$#@@@++OO+#%=><356641;&$######$$#$##@#@###$$####$%%**",
"%%&*;;;=%%%&&&*=*======&%$#@OOOOOoOOO#%&=,245541;&%#@@@@##@#@@+O+++@###@####$%%%",
"$%%%***&%%%%%&*&***==*&%$#@OOooXXoooO@#&=,<34431>=$#++++O+++OO+OOOO+@@@@#####$%%",
"$$$$%&%%%%$$%%%&&*&&&%%$#@OOooXXXXooO+#%=>,<112<>=%@++OOOOOOOOOOOOO+++@++@@####$",
"#####$%%$$$$%%%&&&&%%$$#@+OOooXXXoooOO#$*>>,,<,<;*$@+ooOOooOOOOOOOOOO++++@@@####",
"#@###$$$$$$$%%&%%%%%$$##@@OOooXXXXoOOO@$&*;=-::*=&$++ooooooooooOOOOOOOOOOO+@++##",
"@@@@@##$$$$$%%%%%%%$###@@+OOoooXoooOO+@#%&*=====&%#+Oo.oooooooOOOOoOOOOOoOOO++++",
"+@@@####$$%%%&%%%$$###@++OOOooXXoooO+++@#%%&&&%%%#@+Ooo.o..ooOoOOOOOOOOOOOOOO+++",
"@@@@##$$$$%%&%%%$$$##@++OOOoooXXooOO++++##$$$$$###++Oooo.o..oooOOOOOOOOOOoooOOO+",
"++@@##$$%&&&&&%%$$$#@++OOOooooXooooO+O++@######@@+++Ooooo.ooooOOOOOOOOoOOoOoooOO",
"+@+@#$$%&&***&&%%$##@@++OooooXXXooooO++++++@++++++OOOoo..o.oOoOOOOOOOOOOOoooooOo",
"OO+@##%&*=-===&&%$$#@++OOooooooooooOOO+++++++++OOOOOOoooo.oOOOOOO+O++O+OOOOooOOo",
"OOO@#$%&=;::;-*&%%$#++OOOOOoooXXooooOOO+O++O+O+OOOOOOoo.ooooooO+++++++++OOOoooOo",
"OOO+#$&*;>,,>;=*&$##@++OOoOoOooooooOOOOOOO+OO+OOOO+OoOoo.ooooOOO+#####+#OOOOoooo",
"ooO+#$&*,,<<,;-*&%$#@+OOOOoOOooooooOOOOOOOOO+++++OOOOOooooooOOO++##$$#$##++OOooo",
"oOO+#%**,<<<,>=*%%$#@OOOoOOooooooOOooOOOOOOO+O++++++oOoooooOOO++##$$%$$###++OOoo",
"XoO+#&*:,<<<,>:*&%$#+OOooOOoOoooooOOoOOoOOOOO++++++OOoooooOO+++@#$$%%%%%$$#+OOoo",
"oO+#%*:,<<<<,,>*=&%$@OOOOoOOoOOOOOOoOOoOOOOO++++@++OOOoooOOO++@#$$%&&&&%$##++OOo",
"OO@$&*:<<<<<,,>:;=&$@+OOOOOOOOOOOOOOOOoOOOOOO+@@@@++OooooOO+++##$%&***&%$$###+Oo",
"O+#%**:<<<<,,>>,:=&$#OOOOOOOOOOO+O+OOoOOOOOO++@@@@++OOOOOO+++@#$$&**;**&%$$$#+OO",
"O+$&*:,111<,,>>>:=&$@O+++++++++++++OOOOOO++++@@@@@++OOOoO++@@##$&**;>;**&%$$$++O",
"+@$*,<1232<,>>>>;*%$#@++@@#@+@@#@@@+@O++++++@@@##+++O+++O+###$$%**::,,:;*&&&%#+O",
"+#%*,245553<,:;=*&%%$##@###$#$#$###@@@+@++++@#####@+++++@#$$$$&&*><<1<,>>>**&$+O",
"+$&>15680753<>-**%%%%$$###$$$$$$#$#####@@@@@##$$$##@+++@#$%%&**=;<1121<,<<<>*%+O",
"+$*<368qq063<,:-**==***%$$$%$%%$$$$$#$####@##$$%$$###@@#$$&&*==;,134431<232<*%#O",
"#$*158qww0642<<,<<,<<<>=*%$%$%%$%$$$$$#####$%%%%%$$####$$$&*=-;>136543113541>&$#",
"%&,370qwq06431122233331,-*%%$%%%%%$%%$$$$$$%&&**%%$$$$$$%%%*=-;,1566541146531-&%",
",<3570qqq864332344454331,-*&&&&*&&&&%%$%%%&&*-**&%%%%%%%%%&&&=>,14555332466642<,",
"5579000007543333355554331>=*&&**==&&&%%%%&**;;***&&&&&&&%%%%&*;<1235333235678665",
"qqqqqq0087653223334544331>;***--====**&==-::::;-*&&&&&*&&*&&&=;><12223223356qqq0",
"rrrewqq9887642<<<2344421<>;-****==-=*:*:::,>>>-***&**&&&&*=***->>,,<<<<<12460qwe",
"yyyreqq9888741,,,<12441<,>:-****==--*:,:,,,,,>;*&&*&&&&&**===*=--;;;>>><<2357qww",
"yyyyeeqq08874<,,,,,<21<,::::-*&&*===*:::,,<,,>;=*&&&&&&&&**=******=-;>,<<235690q",
"ttttreeqq0853<,,,>>,<<,;-;;*-**&**==*-:,<<<<,,>;&&&%&&&%&*****&&&&*--:>,<3445567",
"weeeewwq08752>>;>;->>,;-:;;;***&&&&**=::,<<,<<,>=&%%&&&&&&&=&*%&%***=;;><2333444",
"wwwwwq998653<:--===->;--**-->***&&%%&*:,,,,<<<1,;*&%%&&&&&=*&%%%%&**==-;<<112223",
"99qqq976542<>-*******-*****;*;*&&%$%&*:,>>,<121,;=&%%%%&=*&&&%%%%%&***=;;<<<<<<<",
"5679985531<>-*&*&%%%&%&&*******&%$$%%*::>>,<<21,:*&%%%&*=*&&%%%%%%&&**-;;>>;;>>>",
"34577753<,>***&&%%$$$$$%&&&&*&%%$$$$%*;;-->,<11<;=&%%%&==*&%%%$$$%%&&*-;;;-**---",
"12467542,;***&&%&$$$$$$$$$$%%$$$###$%&****;,,<<>-&&%%%&==*%%%$$$$$%&&*-;;-*&&&**",
",<457531:;**&&%%&$##+######$$#$###$#$&**&&=;>,>-&&%&&&***&%%$$###%%&**-;;--&&%&&",
",<255531>***&%$%$$#@++++O+++########$$%%%%&=---*&%%%&****&%%$####%%&***---*%$%%%",
",,<3443<>;*&%$$$##@++++OOOO+#+#######$$$%%%%***&%$$%%&&*&&%$###$#%%&*****&&$$$$$",
",><1112<,>*&$$#++OOOOO++O+OO++++@#@###$$$$#%%%&%%%$$$%%&&&%%$$#$%%&*&*&*&%%$#@##",
">>,<<<<<,**&$#++OoOOOOOOOOOOOO+++++##########%%%$$$$$%%%%%%$$$$$$%%&&&&%%%$##@@+",
"---;>>>>>;&$$++OOoooOOOOOOoOOOOOOO++++#######$#$$#$$$%%&%&%$$#$$$%%%%%%%%$##@+++",
"******:***%$#+OOoooOoOOOOoOoooOOOOOO+++#@@@@@#####$#$%%%%%%$$#$#$$$%%%%%%###++++",
"%%%&******%$#+OOOoooXooOOOoooooooOOOO++++@@@#######$$%%%&%%%$##$$$$#$#$%####++O+",
"$#$$%%%&&%$##OOoooooooooooooooooooOooOO++@@@@######$$$$%%%$$$#########$$###O++++",
"####$$$$$$##+OOOoOoooooOOoooo.oooooooOOO++@#@##@##$$$$%%%%$$###############O++O+",
"+@@@+#+###++OOOoooooXooooooXo.o..ooooOOO++++@#@####$$%$$%$$$###@@@######+OOOO+++",
"+OO++++++++OOoooooooooooXooX...ooooooooOO+++@+@####%$%%%$$$$##@@@++#####OOOOOO++",
"+++O++++OOOOoooOoOooooo.XoXXo..o.o.oooooOOO+++@##$$%%%%$$$###@+++@@@#@++OoOoOOOO",
"OOO+O+O+O+OOOooOOoOoo.oooXoX......o.oooooOOOO+##$%%%%%%%%$$#+++O+O+@@+OOOOOoOOOO",
"OOO+OO+++OOOOoooOoooo.....X...XXXXXXooooooOOO+@#$%%&&&%%$$##@++O++++++OOOXOoOOOO",
"OOOO+++++++OOoooooooo.....XX..XXoXoooXXoooooO+#$%&&&&%%%%$$#@+++++++OOOOOooOOOOO",
"OOOOO++@@++OOooooooo.....XXX.XXXoXXooXooooooO+#%&&**&&&&&%$##@+++O+OOOoOoOoOoOOO",
"OOOOO++@@+++Oooo.ooo.....XXX.XXXXXoXooooooooO+#$%&&&&&&&&%%$##@+++O+OOOooOOOOoOo",
"OOOO++@@@@++OoOooo.ooo.o.....XXoXXoooooooooO+@#$%&&**&****&%$##++++OOOOOOOOOOoOo",
"OOO+++@@@@+OOOOoOoOoooo.ooo.XXo.oXXooooOoOOO+#$%&&********&%###+@@++OO+OOOOOOOOO",
"O++O++@@@@++OOOOOOOOOOOOOOOooOoooXoXXoooOOO+@#%%&***-**:**&%$#+#@@@++O++++++OOOO",
"++++@+###@++++OOOO++@+O++++++OOOOooooooooOO@#%&&=-;:;;*;**&%$######@@@@#+##++++O",
"@@++@######++++++######$##$###++OOOOoXXooo+#%***>,,,,:--***&$$$#@###$##$#####+++",
"@+@@###$$##@@++@#$%%%%%%%&%&%$###@+OooXXoO+#%*,<11<<,,>-***&&%$##$$$$$$$$#######",
"@#@#$$$%$$###@@##%%&&&****:***%%%%$##+oooO#&*,1233111<,,::;;;**&%$$%%$%$$$$$#$##",
"###$$%&%%$$#####$%&*****:<1<,**&*:*&%#OOO#&*<23445432211<<<<<<>*&%%$%$%%$$$$$$$$",
"$$%%&&**%%$$$$%$$%&&**::<3331,:*:,,,*&###$*13455554333333333331,;*%%%%%&%%%%%$$$",
"%%******&&%%%%%%%%%&**:,<34331<<<1231:$$$*<455567654333435444322,-&&&%&&*&&%%%%$",
"%&**;*:*&&&%&&&&&%%%&&:,1344432112355<***:3677668654333355554333<>-*&&*=***&&%%$",
"&&**::>**&&&&&*&&%%%&*:<13444332235651***,37077786533333455553331>-*&**--***&%%%"
};
