/* XPM */
static char *b7873e8f6baf4784c549c13bdab131d34HSJbcWpQzHRckRK[] = {
/* columns rows colors chars-per-pixel */
"24 24 14 1 ",
"  c None",
". c black",
"X c #1E1E1E",
"o c gray47",
"O c #9C0827",
"+ c #D84463",
"@ c #4BFF71",
"# c #1548E1",
"$ c #3366FF",
"% c #B4B4B4",
"& c #C3C3C3",
"* c #D2D2D2",
"= c #E1E1E1",
"- c white",
/* pixels */
"           oo           ",
"          -**-          ",
"         -****-         ",
"         -*$$*-         ",
"       .. $$$$ ..       ",
"      o--$$##$$--o      ",
"      -==%####%==-      ",
"      -==%####%==-      ",
"      -==%oooo%==-      ",
"       -==%oo%==-       ",
"        -%=&&=%-        ",
"   O  --%======%--  O   ",
"   O -%%==o==o==%%- O   ",
"  ---%===o====o===%---  ",
" -=%%===o======o===%%=- ",
"o=%========oo========%=o",
"o=%=ooo===o--o===ooo=%=o",
"o%========o--o========%o",
"o%========o--o========%o",
"@-=ooooo===--===ooooo=-+",
"  -------o=oo=o------   ",
"         -o==o-         ",
"          -oo-          ",
"           XX           "
};
