/* XPM */
static char *_8tree[] = {
/* columns rows colors chars-per-pixel */
"48 48 110 2 ",
"   c #352E1D",
".  c #382F1D",
"X  c #3B311D",
"o  c #333222",
"O  c #383220",
"+  c #323E2C",
"@  c #42351D",
"#  c #48371D",
"$  c #4C391D",
"%  c #533D1D",
"&  c #473B20",
"*  c #30402F",
"=  c #2E4232",
"-  c #2D4D3C",
";  c #304030",
":  c #36563F",
">  c #56401D",
",  c #5D451E",
"<  c #62491E",
"1  c #684F1F",
"2  c #6B521F",
"3  c #71541F",
"4  c #76591F",
"5  c #7C5D1F",
"6  c #464A2B",
"7  c #565E33",
"8  c #695523",
"9  c #7C5D20",
"0  c #54693E",
"q  c #7F6B28",
"w  c #2A5445",
"e  c #275D4E",
"r  c #285E4D",
"t  c #3B5F43",
"y  c #27604D",
"u  c #29644D",
"i  c #2B6C4C",
"p  c #34614A",
"a  c #2D734B",
"s  c #2F7A4A",
"d  c #31744D",
"f  c #317E4A",
"g  c #397951",
"h  c #856520",
"j  c #8C6B21",
"k  c #906F22",
"l  c #3EBD3F",
"z  c #3FC13F",
"x  c #338D47",
"c  c #318449",
"v  c #338A48",
"b  c #359346",
"n  c #379B45",
"m  c #389D45",
"M  c #3B914B",
"N  c #3E9A4A",
"B  c #37A343",
"V  c #39A444",
"C  c #3BAB43",
"Z  c #3FA148",
"A  c #3DB342",
"S  c #3FBD40",
"D  c #40954D",
"F  c #439C4D",
"G  c #418553",
"H  c #488955",
"J  c #459351",
"K  c #4B9454",
"L  c #499F50",
"P  c #529259",
"I  c #41AD47",
"U  c #49A44E",
"Y  c #47AC4B",
"T  c #4AAF4B",
"R  c #43B445",
"E  c #43BC43",
"W  c #46B148",
"Q  c #4DBE49",
"!  c #52BE4C",
"~  c #49A050",
"^  c #5BA55A",
"/  c #5DA959",
"(  c #55B351",
")  c #5EB357",
"_  c #5CBD53",
"`  c #61B458",
"'  c #64BF58",
"]  c #43C142",
"[  c #4BC446",
"{  c #4EC448",
"}  c #52C649",
"|  c #5BC74F",
" . c #56C84B",
".. c #5BCB4E",
"X. c #5FCC50",
"o. c #64C455",
"O. c #63CE52",
"+. c #67D054",
"@. c #6BD256",
"#. c #6FD358",
"$. c #73D55A",
"%. c #79D75D",
"&. c #7BD95E",
"*. c #7EDA60",
"=. c #84DD63",
"-. c #89DF65",
";. c #8CE067",
":. c #8EE168",
">. c #91E26A",
",. c None",
/* pixels */
",.,.,.,.,.,.,.,.,.,.,.,.,.,.,.,.,.,.,.,.,.,.,.,.=.$.X.,.,.,.,.,.,.,.,.,.,.,.,.,.,.,.,.,.,.,.,.,.",
",.,.,.,.,.,.,.,.,.,.,.,.,.,.,.,.,.,.,.P ,.,.,. .#.+...,.,.,.,.,.,.,.,.,.,.,.,.,.,.,.,.,.,.,.,.,.",
",.,.,.,.,.,.,.,.,.,.,.,.i s ,.,.,.,.g P ` Q {  .X... .,.,.,.,.:.;.,.,.,.,.,.,.,.,.,.,.,.,.,.,.,.",
",.,.,.,.,.,.,.,.,.e e y s m ] z S C f K _ ..#.%.X.{  .*.>.>.>.=.%.%.,.,.,.,.,.,.,.,.,.,.,.,.,.,.",
",.,.,.,.,.,.,.,.,.e e y a b E } } R n U Q } @.$...[ } %.=.=.-.=.#.+.@.,.,.,.,.,.,.,.,.,.,.,.,.,.",
",.,.,.,.,.,.,.,.,.e u i a x W O...Q A A E [ }  .} [  .$.O.O.=.=.$. .+.*.,.,.,.,.,.,.,.,.,.,.,.,.",
",.,.,.,.,.,.,.,.,.e a b n m Y O...] ] } } ] ] ] ] [ ..$.O...*.=.#.O.+.$.;.,.,.,.,.,.,.,.,.,.,.,.",
",.,.,.,.,.,.,.,.,.r a x m C E  .....X.X.....} E C E ..@.X.} O.@.@.$.%.*.;.,.,.,.,.,.,.,.,.,.,.,.",
",.,.,.,.,.,.,.,.,.e i v Z A ] [ O.$.$.$.#.%.+.Q Z C } |  .[ ]  .+.;.:.:.>.>.,.,.,.,.,.,.,.,.,.,.",
",.,.,.,.,.,.,.,.,.e d F _ } ] [ O.&.-.;.=.;.$.} Z m Y } { E z } +.;.;.;.>.>.>.,.,.,.,.,.,.,.,.,.",
",.,.,.,.,.,.,.,.e r d F o. .]  .#.=.:.:.;.>.&.o.R B C { .. .} ..#.&.%.#.&.;.;.;.,.,.,.,.,.,.,.,.",
",.,.,.,.,.,.,.i u y d D _  .] ..$.=.-.-.=.-.=.#.Q A E [ X.$.@.#.#.%.@.X.@.&.;.;.,.,.,.,.,.,.,.,.",
",.,.,.,.,.i v x c a f N R ] ] } @.%.#.$.%.@.$.$.[ ] ] E ..#.$.&.;.;.*.*.*.;.;.:.,.,.,.,.,.,.,.,.",
",.,.,.,.,.i c v c i f U ! [ l ] }  .....O...@.$...] z z [  .+.#.%.*.;.;.:.:.;.*.=.:.,.,.,.,.,.,.",
",.,.,.,.,.,.s c s i G / ' ! A l z ] }  . . .O.#.+.[ l l S E } ..X.#.;.>.:.:.;.#.%.;.>.,.,.,.,.,.",
",.,.,.,.,.,.y a x x U ) ^ U B C E [ @.+. .[ {  .X.{ C V C ]  ...+.$.=.:.;.;.=.@.$.;.>.,.,.,.,.,.",
",.,.,.,.,.y u c V V N J J M x x C { O.O. .] ] E Y N v s v m E } ..$.*.*.$.=.;.&.=.;.>.,.,.,.,.,.",
",.,.,.,.e y a x V n c i c c c s b E } ..} ] z A v a u e i c C l [ @.@.+.O.&.:.;.:.>.,.,.,.,.,.,.",
",.,.,.,.e y a f c i y y i a s s x B E ] ] z S A c i e e i f x I  .......@.=.;.&.=.;.>.,.,.,.,.,.",
",.,.,.,.,.y u i i u i u u i a a s x A l C C C m s u e e y i f L ( T R { O.%.&.$.$.*.;.,.,.,.,.,.",
",.,.,.,.,.,.e e y a s a i i a a a s m n v c v c a y u i i i g H K M B E } O.+.@.+.@.=.,.,.,.,.,.",
",.,.,.,.,.,.e e y s x n x a y y y y i i u u i u i a v m n c i u d x m C E ] [  .....,.,.,.,.,.,.",
",.,.,.,.,.e e e u a c x c a e e e e y i u e e e u f x C C x i r u v B A C C V E [ [ ,.,.,.,.,.,.",
",.,.,.,.,.e e e e u a s a u e e e u i a a u e e u a v b n v d y u s n C n v c m R ] ,.,.,.,.,.,.",
",.,.,.,.,.,.e e e u u e u e e e u a s c s u e e y y u s f s u e y u a s a a a a s ,.,.,.,.,.,.,.",
",.,.,.,.,.,.,.e e e e e e e e e i s x n n s u e r r r u u u e e e e i a s s s u ,.,.,.,.,.,.,.,.",
",.,.,.,.,.,.,.e e y e e e e e e u s n C C x a e r e r e e e e e e e a c b b x i ,.,.,.,.,.,.,.,.",
",.,.,.,.,.,.,.e e e e e e e e e y i x M x c a e r e e e e e e e r r i v b b c u ,.,.,.,.,.,.,.,.",
",.,.,.,.,.,.,.e e e e e e e e e e u a a i a u e e e e e e e e e r r u a s a i y ,.,.,.,.,.,.,.,.",
",.,.,.,.,.,.e e e e e e e e e e e e e e r r r e e e e e r e e e r r r e e e y ,.,.,.,.,.,.,.,.,.",
",.,.,.,.,.,.,.,.,.e e e e e e e e e e e r r e ,.,.,.,.w w w r e e y r e ,.,.,.,.,.,.,.,.,.,.,.,.",
",.,.,.,.,.,.,.,.,.,.e ,.,.,.w w w - t p p r ,.,.,.,.,.+ = + w w e r e e ,.,.,.,.,.,.,.,.,.,.,.,.",
",.,.,.,.,.,.,.,.,.,.,.,.,.,.,.w = + 6 7 0 u ,.,.,.,.,..   o + ,.,.e e e ,.,.,.,.,.,.,.,.,.,.,.,.",
",.,.,.,.,.,.,.,.,.,.,.,.,.,.,.,.o . & 8 h ,.,.,.,.,.  .   . ,.,.,.,.,.,.,.,.,.,.,.,.,.,.,.,.,.,.",
",.,.,.,.,.,.,.,.,.,.,.,.,.,.,.,.  . X < q ,.,.,.,.      . ,.,.,.,.,.,.,.,.,.,.,.,.,.,.,.,.,.,.,.",
",.,.,.,.,.,.,.,.,.,.,.,.,.,.,.,.,.. X $ , ,.,.,..       ,.,.,.,.,.,.,.,.,.,.,.,.,.,.,.,.,.,.,.,.",
",.,.,.,.,.,.,.,.,.,.,.,.,.,.,.,.,.,.. . X @ @ @ .   . ,.,.,.,.,.,.,.,.,.,.,.,.,.,.,.,.,.,.,.,.,.",
",.,.,.,.,.,.,.,.,.,.,.,.,.,.,.,.,.,..   . X X X . . @ ,.,.,.,.,.,.,.,.,.,.,.,.,.,.,.,.,.,.,.,.,.",
",.,.,.,.,.,.,.,.,.,.,.,.,.,.,.,.,.,.    . . X @ . $ , ,.,.,.,.,.,.,.,.,.,.,.,.,.,.,.,.,.,.,.,.,.",
",.,.,.,.,.,.,.,.,.,.,.,.,.,.,.,.,.,.  . . X $ % # < 9 ,.,.,.,.,.,.,.,.,.,.,.,.,.,.,.,.,.,.,.,.,.",
",.,.,.,.,.,.,.,.,.,.,.,.,.,.,.,.,.,.,.  . X $ % % 1 h ,.,.,.,.,.,.,.,.,.,.,.,.,.,.,.,.,.,.,.,.,.",
",.,.,.,.,.,.,.,.,.,.,.,.,.,.,.,.,.,.,..     @ % $ 1 h ,.,.,.,.,.,.,.,.,.,.,.,.,.,.,.,.,.,.,.,.,.",
",.,.,.,.,.,.,.,.,.,.,.,.,.,.,.,.,.,.,.      X $ @ 8 j ,.,.,.,.,.,.,.,.,.,.,.,.,.,.,.,.,.,.,.,.,.",
",.,.,.,.,.,.,.,.,.,.,.,.,.,.,.,.,.,.,.      X X @ 2 k j ,.,.,.,.,.,.,.,.,.,.,.,.,.,.,.,.,.,.,.,.",
",.,.,.,.,.,.,.,.,.,.,.,.,.,.,.,.,.,..         . # 3 j j ,.,.,.,.,.,.,.,.,.,.,.,.,.,.,.,.,.,.,.,.",
",.,.,.,.,.,.,.,.,.,.,.,.,.,.,.,.,.            X $ < 3 ,.,.,.,.,.,.,.,.,.,.,.,.,.,.,.,.,.,.,.,.,.",
",.,.,.,.,.,.,.,.,.,.,.,.,.,.,.,.,.. ,.      . . $ > , 4 ,.,.,.,.,.,.,.,.,.,.,.,.,.,.,.,.,.,.,.,.",
",.,.,.,.,.,.,.,.,.,.,.,.,.,.,.,.,.,.,.      . X ,.,.% 5 ,.,.,.,.,.,.,.,.,.,.,.,.,.,.,.,.,.,.,.,."
};
