/* XPM */
static char *tree_32[] = {
/* columns rows colors chars-per-pixel */
"32 32 73 1 ",
"  c #352E1D",
". c #3A301D",
"X c #2F3D2E",
"o c #43351D",
"O c #4B391D",
"+ c #533D1D",
"@ c #2F4232",
"# c #2D4A3A",
"$ c #5B401D",
"% c #694D1E",
"& c #4A522F",
"* c #2A5343",
"= c #275D4E",
"- c #285E4D",
"; c #27604D",
": c #29634D",
"> c #2B6B4C",
", c #2D744B",
"< c #2F7A4A",
"1 c #30764C",
"2 c #307F49",
"3 c #3D7954",
"4 c #526B40",
"5 c #836320",
"6 c #8B6B21",
"7 c #927022",
"8 c #3EBF3F",
"9 c #3FC03F",
"0 c #41C23F",
"q c #338E47",
"w c #318349",
"e c #338A48",
"r c #3A884D",
"t c #359247",
"y c #369A45",
"u c #389F45",
"i c #3E994A",
"p c #3F8252",
"a c #39A244",
"s c #3AAB42",
"d c #3DB342",
"f c #3EBA40",
"g c #559F57",
"h c #57995B",
"j c #599E5A",
"k c #40AA46",
"l c #41B544",
"z c #41BD42",
"x c #49BF46",
"c c #5EBA55",
"v c #67AF5E",
"b c #42C141",
"n c #4CC446",
"m c #4FC448",
"M c #51C649",
"N c #56C94B",
"B c #5ACA4D",
"V c #5FCC50",
"C c #63CE52",
"Z c #68CC56",
"A c #67D054",
"S c #6BD256",
"D c #6FD458",
"F c #74D65B",
"G c #78D75D",
"H c #7AD85E",
"J c #7FDA61",
"K c #84DD63",
"L c #89DF66",
"P c #8BE067",
"I c #8EE168",
"U c #92E26A",
"Y c None",
/* pixels */
"YYYYYYYYYYYYYYYYKVYYYYYYYYYYYYYY",
"YYYYYYYY>YYY3vbnVNYYYUYYYYYYYYYY",
"YYYYYY==2b9d1cVPNnPUUFFYYYYYYYYY",
"YYYYYY=;>sDmsfnBMnFVIGmKYYYYYYYY",
"YYYYYY=yakAbnBbz9BGMKFVAIYYYYYYY",
"YYYYYY=<u9nFDAFMyMCnnCIUUYYYYYYY",
"YYYYYY=iZbMGULUByaB88ALLUUYYYYYY",
"YYYYY--rZbCLILIGldmFASFNAKUYYYYY",
"YYY;tq,tz9MFAFCGbbzSFLILLPUYYYYY",
"YYYY22;jZf98mNBGC90zBBFUUPDPUYYY",
"YYYY=qychysnFBbnVsyfNSGUKPCKUYYY",
"YYY=,da>qw<zBBbfw>=<fbFSCIUUYYYY",
"YYY=,<==>,<y999f<==<eMBNFIFLUYYY",
"YYYY==,,;,,,dttt>=;=pjtfBDSSPYYY",
"YYYY==2ut===:===>wdt;:tazzNBYYYY",
"YYY===>2,===>,==>eay>=qfawdbYYYY",
"YYYY=======,ww====,,==;>>>:YYYYY",
"YYYYY======,ufe========wqy:YYYYY",
"YYYYY======:tww======--wyw=YYYYY",
"YYYY==================-===YYYYYY",
"YYYYYY=========YYY**==-=YYYYYYYY",
"YYYYYYYYYY#X&4=YYY  @Y==YYYYYYYY",
"YYYYYYYYYYY O6YYY   YYYYYYYYYYYY",
"YYYYYYYYYYY .%YY   YYYYYYYYYYYYY",
"YYYYYYYYYYYY  oo  YYYYYYYYYYYYYY",
"YYYYYYYYYYYY   . +YYYYYYYYYYYYYY",
"YYYYYYYYYYYY  o$O5YYYYYYYYYYYYYY",
"YYYYYYYYYYYYY  +O5YYYYYYYYYYYYYY",
"YYYYYYYYYYYYY  Oo6YYYYYYYYYYYYYY",
"YYYYYYYYYYYY    O76YYYYYYYYYYYYY",
"YYYYYYYYYYY     +%YYYYYYYYYYYYYY",
"YYYYYYYYYYYYY  .YO5YYYYYYYYYYYYY"
};
