/* XPM */
static char *tree_50[] = {
/* columns rows colors chars-per-pixel */
"50 50 112 2 ",
"   c #352E1D",
".  c #382F1D",
"X  c #3B311D",
"o  c #333323",
"O  c #3A3723",
"+  c #303E2E",
"@  c #43351D",
"#  c #48371D",
"$  c #4C391D",
"%  c #533E1D",
"&  c #2E4435",
"*  c #2D4837",
"=  c #2D4939",
"-  c #364530",
";  c #56401D",
":  c #5B441E",
">  c #60471E",
",  c #654D1E",
"<  c #694F1F",
"1  c #6C511F",
"2  c #70541F",
"3  c #75581F",
"4  c #4C4424",
"5  c #465232",
"6  c #695E29",
"7  c #4F623A",
"8  c #6D6C32",
"9  c #2A5444",
"0  c #295748",
"q  c #275D4E",
"w  c #285E4D",
"e  c #315A46",
"r  c #325F49",
"t  c #27604D",
"y  c #29644D",
"u  c #2B6B4C",
"i  c #316E4F",
"p  c #2D744B",
"a  c #2F7A4A",
"s  c #34734F",
"d  c #307E4A",
"f  c #3E7C53",
"g  c #466744",
"h  c #846420",
"j  c #886721",
"k  c #8C6C21",
"l  c #906E22",
"z  c #3EBE3F",
"x  c #3FC03F",
"c  c #41C33F",
"v  c #2F8248",
"b  c #338D47",
"n  c #318349",
"m  c #39864D",
"M  c #348C48",
"N  c #3B8D4C",
"B  c #359446",
"V  c #369B45",
"C  c #389D46",
"Z  c #3C904C",
"A  c #3D9D49",
"S  c #37A044",
"D  c #3AA344",
"F  c #3CAC43",
"G  c #3DB341",
"H  c #3EBA40",
"J  c #408053",
"K  c #4B8C56",
"L  c #449251",
"P  c #4B9355",
"I  c #509B56",
"U  c #579A5A",
"Y  c #42AE47",
"T  c #46A54C",
"R  c #43AA49",
"E  c #4CAA4E",
"W  c #43B545",
"Q  c #43BD43",
"!  c #49BF46",
"~  c #49B748",
"^  c #4DBD49",
"/  c #52BD4C",
"(  c #57A557",
")  c #54AD53",
"_  c #59A758",
"`  c #56B451",
"'  c #5DB656",
"]  c #5FBD55",
"[  c #64B45A",
"{  c #44C242",
"}  c #4CC446",
"|  c #4FC548",
" . c #51C649",
".. c #59C64E",
"X. c #55C84B",
"o. c #5BCA4E",
"O. c #5FCC50",
"+. c #63CE52",
"@. c #6ACF57",
"#. c #66D053",
"$. c #6BD256",
"%. c #6FD358",
"&. c #73D55A",
"*. c #78D75D",
"=. c #7AD95E",
"-. c #7EDA60",
";. c #84DD63",
":. c #8ADF66",
">. c #8CE067",
",. c #8EE168",
"<. c #91E26A",
"1. c None",
/* pixels */
"1.1.1.1.1.1.1.1.1.1.1.1.1.1.1.1.1.1.1.1.1.1.1.1.1.;.&.O.1.1.1.1.1.1.1.1.1.1.1.1.1.1.1.1.1.1.1.1.1.1.",
"1.1.1.1.1.1.1.1.1.1.1.1.1.1.1.1.1.1.1.1.1.1.1.1.X.&.$.o.1.1.1.1.1.1.1.1.1.1.1.1.1.1.1.1.1.1.1.1.1.1.",
"1.1.1.1.1.1.1.1.1.1.1.1.u u 1.1.1.1.1.f U ' } } X.O.o.X.1.1.1.1.1.,.:.1.1.1.1.1.1.1.1.1.1.1.1.1.1.1.",
"1.1.1.1.1.1.1.1.1.1.q q u n G { z G A d I ] o.$.*.o. .X.=.<.<.<.:.=.*.*.1.1.1.1.1.1.1.1.1.1.1.1.1.1.",
"1.1.1.1.1.1.1.1.1.w w q y n F } | } F M T  ...%.*.o.}  .*.;.;.:.:.&.$.$.1.1.1.1.1.1.1.1.1.1.1.1.1.1.",
"1.1.1.1.1.1.1.1.1.w q t y a V / @.X.~ F G ~ }  .o. .}  .$.%.+.-.:.*.O.o.=.>.1.1.1.1.1.1.1.1.1.1.1.1.",
"1.1.1.1.1.1.1.1.1.w y v b B D / @.| { { } } { { { { } o.&.$.o.*.;.=.+.o.$.=.,.1.1.1.1.1.1.1.1.1.1.1.",
"1.1.1.1.1.1.1.1.1.w y b V D F ^ o.X.| X.o.o.X.} Q G ! o.$.+.X.#.&.&.%.$.&.;.<.1.1.1.1.1.1.1.1.1.1.1.",
"1.1.1.1.1.1.1.1.1.q y p M D H { X.#.%.%.$.$.&.o.! D Y X.+.O.} } X.+.&.>.,.<.<.1.1.1.1.1.1.1.1.1.1.1.",
"1.1.1.1.1.1.1.1.1.q y m T / { { | $.=.;.=.-.;.%./ D D W  .X.Q Q } #.-.,.,.<.<.<.1.1.1.1.1.1.1.1.1.1.",
"1.1.1.1.1.1.1.1.1.q u N ` +.} { o.%.;.<.,.,.,.=...R V F  .X.} { } #.=.;.-.-.>.>.<.1.1.1.1.1.1.1.1.1.",
"1.1.1.1.1.1.1.1.w w y m ) +.} } #.=.>.,.>.>.,.;.@.~ F G ! o.$.+.#.$.&.%.#.#.%.;.>.<.1.1.1.1.1.1.1.1.",
"1.1.1.1.1.y n n p u p n R  .{ } o.&.-.=.-.-.=.=.%.} H H ~ o.&.&.&.-.;.=.%.&.&.;.,.<.1.1.1.1.1.1.1.1.",
"1.1.1.1.1.y n B b a s M R ! H { X.#.$.#.$.$.+.%.%.| { c z } +.$.&.-.:.>.>.>.,.>.>.,.1.1.1.1.1.1.1.1.",
"1.1.1.1.1.1.n n v u p P ` o.! z { } } X.o.o.o.%.*.+.} { x { } ..+.#.&.-.,.<.,.,.;.=.;.,.<.1.1.1.1.1.",
"1.1.1.1.1.1.u p n a m ( [ ' Y G z H } o.o.X. .o.#.+. .H G H H | o.O.$.=.,.<.>.>.=.$.-.,.<.1.1.1.1.1.",
"1.1.1.1.1.1.q u b B A ) _ I A S F Q ..$.#.X.{ { | X.~ D B D G } o.#.&.-.,.:.;.>.=.$.=.>.<.1.1.1.1.1.",
"1.1.1.1.1.q u d D F A m m Z M v b F | O.O.X.{ c W A M a p a M F { | #.&.*.%.%.;.>.;.,.,.1.1.1.1.1.1.",
"1.1.1.1.1.q u n S B v u p v d a d S ! } | | { c G M p t q y d V G { o.$.#.+.%.:.,.,.,.<.1.1.1.1.1.1.",
"1.1.1.1.1.y u a a u y q y u p p a B F H c H c H F n u w q y a n A ^ o.X.X.+.&.>.;.&.;.>.<.1.1.1.1.1.",
"1.1.1.1.1.1.y y u u u u y y p p a a B H F D D D B a y q q w u s L ) E R Q ..$.&.&.&.&.-.,.1.1.1.1.1.",
"1.1.1.1.1.1.q q q u a a a u u p p u a V B v n n n u u y p u u s f K N A F { ..+.#.#.#.&.>.1.1.1.1.1.",
"1.1.1.1.1.1.q q q p v B B n u q w q y u y t y y y u p n V D M p y i n B D G Q { } o.o.o.1.1.1.1.1.1.",
"1.1.1.1.1.q q q q u a M M d y q q q q y u y q q q u a B D F B p t t a V F G F S F ! } } 1.1.1.1.1.1.",
"1.1.1.1.1.q q q q y u a p u y q q q u u p p q q q y p n B B B a y w p M D D B v M D H { 1.1.1.1.1.1.",
"1.1.1.1.1.1.q q q q q y q y q q y u p a v p y q q t t u p d a u q q y u a a p p u p 1.1.1.1.1.1.1.1.",
"1.1.1.1.1.1.1.q q q q q q q q q q u v B B B p y q q q q y u y t q q w y p p a a p y 1.1.1.1.1.1.1.1.",
"1.1.1.1.1.1.1.1.q q q q q q q q q u v B G F M p q q q q q q q q q q q y a M B B n y 1.1.1.1.1.1.1.1.",
"1.1.1.1.1.1.1.1.q q q q q q q q q y p B B B n i q q q q q q q q q w q y a B B B p t 1.1.1.1.1.1.1.1.",
"1.1.1.1.1.1.1.q q q q q q q q q q y u a a p p u q q q q q q q q q q w y p a v p u w 1.1.1.1.1.1.1.1.",
"1.1.1.1.1.1.q q q q q q q q q q q q q y q q t q q q q q q q q q q q q q t t y q w 1.1.1.1.1.1.1.1.1.",
"1.1.1.1.1.1.1.1.1.q q q q q q q q q q q q q q q 1.1.1.1.0 0 0 q q q w q q q 1.1.1.1.1.1.1.1.1.1.1.1.",
"1.1.1.1.1.1.1.1.1.1.q q q q q q 0 0 0 e r w w 1.1.1.1.1.* * = 9 0 q w w w 1.1.1.1.1.1.1.1.1.1.1.1.1.",
"1.1.1.1.1.1.1.1.1.1.1.1.1.1.1.1.= & - 5 7 g w 1.1.1.1.1.  o o + & 1.w q w 1.1.1.1.1.1.1.1.1.1.1.1.1.",
"1.1.1.1.1.1.1.1.1.1.1.1.1.1.1.1.1.o O 4 6 8 1.1.1.1.1.. .   . o 1.1.1.1.1.1.1.1.1.1.1.1.1.1.1.1.1.1.",
"1.1.1.1.1.1.1.1.1.1.1.1.1.1.1.1.1.  X # 2 j 1.1.1.1.. .       1.1.1.1.1.1.1.1.1.1.1.1.1.1.1.1.1.1.1.",
"1.1.1.1.1.1.1.1.1.1.1.1.1.1.1.1.1.. . X : 2 1.1.1..         1.1.1.1.1.1.1.1.1.1.1.1.1.1.1.1.1.1.1.1.",
"1.1.1.1.1.1.1.1.1.1.1.1.1.1.1.1.1.1.  . # $ @ 1.X .   . . 1.1.1.1.1.1.1.1.1.1.1.1.1.1.1.1.1.1.1.1.1.",
"1.1.1.1.1.1.1.1.1.1.1.1.1.1.1.1.1.1.1.    X @ @ @ . . . 1.1.1.1.1.1.1.1.1.1.1.1.1.1.1.1.1.1.1.1.1.1.",
"1.1.1.1.1.1.1.1.1.1.1.1.1.1.1.1.1.1.1.    . . . . . X $ 1.1.1.1.1.1.1.1.1.1.1.1.1.1.1.1.1.1.1.1.1.1.",
"1.1.1.1.1.1.1.1.1.1.1.1.1.1.1.1.1.1.1.. . . X @ @ @ $ , 1.1.1.1.1.1.1.1.1.1.1.1.1.1.1.1.1.1.1.1.1.1.",
"1.1.1.1.1.1.1.1.1.1.1.1.1.1.1.1.1.1.1..   . X % % $ , h 1.1.1.1.1.1.1.1.1.1.1.1.1.1.1.1.1.1.1.1.1.1.",
"1.1.1.1.1.1.1.1.1.1.1.1.1.1.1.1.1.1.1.1.    . @ % $ , h 1.1.1.1.1.1.1.1.1.1.1.1.1.1.1.1.1.1.1.1.1.1.",
"1.1.1.1.1.1.1.1.1.1.1.1.1.1.1.1.1.1.1.1.      @ % $ , j 1.1.1.1.1.1.1.1.1.1.1.1.1.1.1.1.1.1.1.1.1.1.",
"1.1.1.1.1.1.1.1.1.1.1.1.1.1.1.1.1.1.1.1.      @ # @ , k 1.1.1.1.1.1.1.1.1.1.1.1.1.1.1.1.1.1.1.1.1.1.",
"1.1.1.1.1.1.1.1.1.1.1.1.1.1.1.1.1.1.1..       . . # < l k 1.1.1.1.1.1.1.1.1.1.1.1.1.1.1.1.1.1.1.1.1.",
"1.1.1.1.1.1.1.1.1.1.1.1.1.1.1.1.1.1.            . # < j k 1.1.1.1.1.1.1.1.1.1.1.1.1.1.1.1.1.1.1.1.1.",
"1.1.1.1.1.1.1.1.1.1.1.1.1.1.1.1.1.              . $ > 6 1.1.1.1.1.1.1.1.1.1.1.1.1.1.1.1.1.1.1.1.1.1.",
"1.1.1.1.1.1.1.1.1.1.1.1.1.1.1.1.1.1.1.1.        . $ ; : 2 1.1.1.1.1.1.1.1.1.1.1.1.1.1.1.1.1.1.1.1.1.",
"1.1.1.1.1.1.1.1.1.1.1.1.1.1.1.1.1.1.1.1.      . O 1.1.% 3 j 1.1.1.1.1.1.1.1.1.1.1.1.1.1.1.1.1.1.1.1."
};
