/* XPM */
static char *tree_80[] = {
/* columns rows colors chars-per-pixel */
"80 80 150 2 ",
"   c #352E1D",
".  c #382F1D",
"X  c #3B311D",
"o  c #2E3F2F",
"O  c #333322",
"+  c #393521",
"@  c #323827",
"#  c #313A2A",
"$  c #383C28",
"%  c #43351D",
"&  c #48371D",
"*  c #4C3A1D",
"=  c #533E1D",
"-  c #433B21",
";  c #30402F",
":  c #2E4434",
">  c #2C4D3D",
",  c #314130",
"<  c #3F4D31",
"1  c #2F503E",
"2  c #34553F",
"3  c #56411D",
"4  c #5C451E",
"5  c #654B1E",
"6  c #684F1E",
"7  c #6C521F",
"8  c #71551F",
"9  c #77581E",
"0  c #795A1F",
"q  c #434428",
"w  c #4E4E2A",
"e  c #514523",
"r  c #5B5C2F",
"t  c #475534",
"y  c #4C5F39",
"u  c #665725",
"i  c #7D5E20",
"p  c #5A673A",
"a  c #576A3D",
"s  c #7F6120",
"d  c #766729",
"f  c #756C2E",
"g  c #616835",
"h  c #2A5445",
"j  c #275D4E",
"k  c #285D4D",
"l  c #3A5C42",
"z  c #27604D",
"x  c #29634D",
"c  c #2B6C4C",
"v  c #3C6347",
"b  c #33624A",
"n  c #2D734B",
"m  c #2F7A4A",
"M  c #31754D",
"N  c #317E4A",
"B  c #336D50",
"V  c #367351",
"C  c #3B7753",
"Z  c #367850",
"A  c #3B7C51",
"S  c #426645",
"D  c #4C6740",
"F  c #427F55",
"G  c #805F1F",
"H  c #836420",
"J  c #886720",
"K  c #8B6B21",
"L  c #927022",
"P  c #3EBD3F",
"I  c #3FC13F",
"U  c #40C13F",
"Y  c #338D47",
"T  c #318349",
"R  c #39864D",
"E  c #338A48",
"W  c #3A8D4C",
"Q  c #359446",
"!  c #369B45",
"~  c #389D45",
"^  c #3A904A",
"/  c #3C9B49",
"(  c #37A143",
")  c #3AA444",
"_  c #3BAB43",
"`  c #3EA248",
"'  c #3DB342",
"]  c #3EBB40",
"[  c #44964F",
"{  c #449C4D",
"}  c #489F4F",
"|  c #428453",
" . c #448C52",
".. c #498A56",
"X. c #449351",
"o. c #4B9455",
"O. c #4B9F51",
"+. c #4F9358",
"@. c #509756",
"#. c #529B57",
"$. c #53925A",
"%. c #41AE46",
"&. c #44A44B",
"*. c #4BA54F",
"=. c #46AE49",
"-. c #4BA84E",
";. c #41B544",
":. c #48B747",
">. c #43BC43",
",. c #49BC46",
"<. c #46B148",
"1. c #4AB44A",
"2. c #4CBB49",
"3. c #52B44F",
"4. c #52BD4C",
"5. c #54AE52",
"6. c #5AAD56",
"7. c #56A158",
"8. c #59A858",
"9. c #54B351",
"0. c #5DB656",
"q. c #5EBC54",
"w. c #60AB5B",
"e. c #61BD56",
"r. c #61B159",
"t. c #65B95A",
"y. c #44C242",
"u. c #4BC346",
"i. c #4FC448",
"p. c #52C64A",
"a. c #5AC64F",
"s. c #55C84B",
"d. c #5BCB4E",
"f. c #5DC551",
"g. c #5FCC50",
"h. c #63CE52",
"j. c #68CF56",
"k. c #66D054",
"l. c #6BD256",
"z. c #6FD358",
"x. c #73D55A",
"c. c #78D75D",
"v. c #7AD95E",
"b. c #7EDA60",
"n. c #83DC63",
"m. c #8ADF66",
"M. c #8CE067",
"N. c #8EE168",
"B. c #91E26A",
"V. c None",
/* pixels */
"V.V.V.V.V.V.V.V.V.V.V.V.V.V.V.V.V.V.V.V.V.V.V.V.V.V.V.V.V.V.V.V.V.V.V.V.V.V.V.V.M.n.x.k.d.V.V.V.V.V.V.V.V.V.V.V.V.V.V.V.V.V.V.V.V.V.V.V.V.V.V.V.V.V.V.V.V.V.V.V.",
"V.V.V.V.V.V.V.V.V.V.V.V.V.V.V.V.V.V.V.V.V.V.V.V.V.V.V.V.V.V.V.V.V.V.V.V.V.V.V.V.v.v.z.h.d.V.V.V.V.V.V.V.V.V.V.V.V.V.V.V.V.V.V.V.V.V.V.V.V.V.V.V.V.V.V.V.V.V.V.V.",
"V.V.V.V.V.V.V.V.V.V.V.V.V.V.V.V.V.V.V.V.V.V.V.V.V.V.V.V.V.V.V.V.$.V.V.V.V.V.V.g.z.z.k.d.d.V.V.V.V.V.V.V.V.V.V.V.V.V.V.V.V.V.V.V.V.V.V.V.V.V.V.V.V.V.V.V.V.V.V.V.",
"V.V.V.V.V.V.V.V.V.V.V.V.V.V.V.V.V.V.V.V.c c V.V.V.V.V.V.V.V.C | $.w.r.2.y.y.u.s.d.k.d.d.s.V.V.V.V.V.V.V.V.B.B.V.V.V.V.V.V.V.V.V.V.V.V.V.V.V.V.V.V.V.V.V.V.V.V.V.",
"V.V.V.V.V.V.V.V.V.V.V.V.V.V.V.V.V.V.V.c c n E V.V.V.V.V.V.V.Z A $.w.0.2.p.s.d.g.d.d.s.p.d.V.V.V.V.V.V.V.N.m.m.n.V.V.V.V.V.V.V.V.V.V.V.V.V.V.V.V.V.V.V.V.V.V.V.V.",
"V.V.V.V.V.V.V.V.V.V.V.V.V.V.V.j j j j x n N ! ;.U I P P ' ! T A o.6.f.f.d.k.x.x.k.s.p.p.d.x.N.B.B.B.B.N.m.v.v.v.x.V.V.V.V.V.V.V.V.V.V.V.V.V.V.V.V.V.V.V.V.V.V.V.",
"V.V.V.V.V.V.V.V.V.V.V.V.V.V.V.j j j j x n T ( ;.y.y.y.y.;.` E R [ 9.f.f.k.x.b.v.k.p.u.i.g.x.m.m.N.N.B.N.n.v.x.x.x.x.V.V.V.V.V.V.V.V.V.V.V.V.V.V.V.V.V.V.V.V.V.V.",
"V.V.V.V.V.V.V.V.V.V.V.V.V.V.V.j j j j z c m Q _ y.p.s.i.>.%.~ Q &.1.i.p.s.k.x.l.h.s.u.u.d.x.b.v.v.n.M.N.n.c.l.h.h.l.b.V.V.V.V.V.V.V.V.V.V.V.V.V.V.V.V.V.V.V.V.V.",
"V.V.V.V.V.V.V.V.V.V.V.V.V.V.V.j z j z z c n Y ) >.f.k.d.p.:.' ) ' ;.y.u.i.s.d.d.s.p.u.u.d.l.x.x.l.x.n.m.m.c.l.d.d.l.b.m.V.V.V.V.V.V.V.V.V.V.V.V.V.V.V.V.V.V.V.V.",
"V.V.V.V.V.V.V.V.V.V.V.V.V.V.V.j z x n n n T Q ( 2.h.l.g.i.y.;.;.' >.y.u.u.i.p.p.u.u.u.p.d.j.x.h.d.h.v.m.n.c.l.d.a.h.x.b.n.V.V.V.V.V.V.V.V.V.V.V.V.V.V.V.V.V.V.V.",
"V.V.V.V.V.V.V.V.V.V.V.V.V.V.V.j x n E Y Q Q ~ %.1.h.k.d.u.y.y.y.u.i.u.u.y.>.y.y.y.y.u.d.h.z.x.h.d.h.c.m.n.x.l.h.d.h.l.v.n.N.V.V.V.V.V.V.V.V.V.V.V.V.V.V.V.V.V.V.",
"V.V.V.V.V.V.V.V.V.V.V.V.V.V.V.j x n Y ! ! ( ) _ 1.f.g.s.u.u.u.p.s.d.s.u.u.y.y.>.P y.u.s.h.z.x.h.s.d.x.b.v.x.z.l.h.l.l.x.n.N.V.V.V.V.V.V.V.V.V.V.V.V.V.V.V.V.V.V.",
"V.V.V.V.V.V.V.V.V.V.V.V.V.V.V.j x n T Q ~ ( _ ' >.p.d.d.d.d.d.g.h.d.d.d.d.p.u.;.' ' >.s.h.j.l.d.p.s.h.h.l.l.z.x.x.c.v.n.M.N.V.V.V.V.V.V.V.V.V.V.V.V.V.V.V.V.V.V.",
"V.V.V.V.V.V.V.V.V.V.V.V.V.V.V.j x c M E Q ( ' ] >.u.p.g.l.z.l.l.l.l.l.l.l.h.p.,._ ) %.i.s.h.h.d.p.u.p.s.d.h.z.v.m.N.N.B.B.B.B.V.V.V.V.V.V.V.V.V.V.V.V.V.V.V.V.V.",
"V.V.V.V.V.V.V.V.V.V.V.V.V.V.V.j z n N ^ &.%.;.y.y.y.p.h.x.c.v.c.x.x.x.v.v.l.s.:.` ~ _ 1.p.f.d.s.u.y.y.u.p.h.l.n.B.B.B.B.B.B.B.V.V.V.V.V.V.V.V.V.V.V.V.V.V.V.V.V.",
"V.V.V.V.V.V.V.V.V.V.V.V.V.V.V.j z n W { 9.4.i.y.y.u.p.h.x.b.n.M.n.n.n.m.n.x.d.2.` ~ ~ %.1.p.d.u.y.P P y.p.h.x.n.N.N.B.B.B.B.B.B.V.V.V.V.V.V.V.V.V.V.V.V.V.V.V.V.",
"V.V.V.V.V.V.V.V.V.V.V.V.V.V.V.j z M W -.q.h.s.y.y.u.d.k.c.b.M.N.N.m.N.N.m.c.h.4.%.! ! ) <.4.s.i.y.y.y.y.p.k.x.b.M.n.M.M.M.M.N.N.N.V.V.V.V.V.V.V.V.V.V.V.V.V.V.V.",
"V.V.V.V.V.V.V.V.V.V.V.V.V.V.k j x M W *.q.h.d.y.y.p.g.z.b.M.N.N.N.N.N.B.N.n.l.f.<._ ) _ ;.2.s.s.d.s.p.s.d.k.z.c.v.x.z.z.z.v.M.M.N.N.V.V.V.V.V.V.V.V.V.V.V.V.V.V.",
"V.V.V.V.V.V.V.V.V.V.V.V.V.z j k x M R } 0.h.s.y.u.s.k.x.b.M.M.M.M.m.m.m.m.n.x.h.2.;._ ' ;.,.s.h.l.l.k.k.k.l.z.x.x.l.g.g.k.z.x.n.M.N.B.V.V.V.V.V.V.V.V.V.V.V.V.V.",
"V.V.V.V.V.V.V.V.V.V.V.V.n c c x c M R { 3.a.p.y.u.p.h.x.b.M.n.n.n.n.n.n.n.n.v.j.p.;.P >.;.>.u.h.z.x.z.l.z.x.c.v.c.z.k.k.l.z.x.M.M.B.B.V.V.V.V.V.V.V.V.V.V.V.V.V.",
"V.V.V.V.V.V.V.V.z n T Q Y m m n n N Y ~ :.u.y.>.y.i.d.l.x.v.x.x.x.v.x.x.z.x.x.l.p.>.P >.>.>.y.d.l.x.x.x.v.b.n.m.M.b.b.v.v.b.M.M.M.N.B.V.V.V.V.V.V.V.V.V.V.V.V.V.",
"V.V.V.V.V.V.V.V.z c T Y Y Y T m n T W ` ;.>.y.y.y.y.p.h.z.z.l.h.l.x.z.k.k.z.x.z.s.y.y.U U P y.s.k.l.z.x.c.n.n.m.M.M.M.M.M.M.M.M.M.M.N.N.V.V.V.V.V.V.V.V.V.V.V.V.",
"V.V.V.V.V.V.V.V.V.n T Y Y Y m n c A [ *.4.p.y.>.U y.u.p.s.d.d.d.d.k.h.d.k.z.x.z.h.p.u.U I I >.>.p.d.h.l.l.x.c.b.b.M.N.N.N.M.M.M.M.n.n.n.M.V.B.V.V.V.V.V.V.V.V.V.",
"V.V.V.V.V.V.V.V.V.V.m T T m m c c A +.6.e.f.p.>.] U U y.y.y.u.p.s.s.d.d.d.l.x.x.k.d.u.y.I >.>.P y.u.s.d.g.g.k.z.v.b.N.B.N.M.M.M.n.v.x.v.M.N.B.B.V.V.V.V.V.V.V.V.",
"V.V.V.V.V.V.V.V.V.V.n n m T m n M  .7.r.t.q.4.' ' P P P y.y.p.d.d.s.s.p.s.d.l.l.k.g.p.>.P P P P >.y.i.d.d.d.k.z.c.M.N.B.B.N.N.M.n.x.l.x.M.M.B.B.V.V.V.V.V.V.V.V.",
"V.V.V.V.V.V.V.V.V.V.x c m T E T ^ } 0.r.w.6.*.` _ _ ' ' y.p.h.k.h.d.s.u.u.p.d.d.g.d.p.;.P ) Q P ] y.i.d.g.k.l.x.c.b.N.N.N.M.M.M.b.z.l.x.b.M.N.B.V.V.V.V.V.V.V.V.",
"V.V.V.V.V.V.V.V.V.V.j c m Y Q ! ~ *.5.8.7.+.X./ ! ( _ ' u.s.k.z.l.d.s.u.y.y.u.i.p.q.:.` Q Q ! P ' ;.u.s.d.k.l.x.v.n.M.M.M.b.M.M.b.x.l.x.n.M.N.B.V.V.V.V.V.V.V.V.",
"V.V.V.V.V.V.V.V.V.z x c T ~ ) ) ( / [ X.X.X.W Y Y Q Q _ >.p.h.l.h.d.s.y.U U >.>.1.&./ Y T m m Y Q _ >.u.p.p.g.l.c.b.b.c.x.x.v.M.M.n.v.n.M.M.N.V.V.V.V.V.V.V.V.V.",
"V.V.V.V.V.V.V.V.j z c m Y ) _ ) ! E N M W Y Y E T m T ( ;.u.s.d.g.s.s.u.y.U ;.' ! E N M c x c n N Q _ ;.y.y.s.k.x.x.z.k.k.l.v.M.N.M.N.N.N.B.V.V.V.V.V.V.V.V.V.V.",
"V.V.V.V.V.V.V.j j x c m Y ( ( Q E n c c m T T m m m N Q _ >.u.p.s.s.u.y.U U P _ Q m c c z j j x n Y ! ' ] >.p.k.l.l.k.k.k.l.c.M.N.M.M.N.B.B.V.V.V.V.V.V.V.V.V.V.",
"V.V.V.V.V.V.V.j j x c m T Y E m c x z x c n n m m n T Y ( ' >.y.U u.y.U P >.] ) Y m c z j j z c m T Y ~ ;.u.s.d.k.d.g.k.k.x.b.M.M.b.v.M.M.N.B.B.V.V.V.V.V.V.V.V.",
"V.V.V.V.V.V.V.V.j x c n n M n x z z z x c c n n n m N E Q ( ' >.U >.P P P P P ) Y n c z j j j c n m R Y &.2.p.s.s.p.s.d.k.x.v.M.M.v.x.v.n.M.N.B.V.V.V.V.V.V.V.V.",
"V.V.V.V.V.V.V.V.V.x x x c c c x c x x x x x c n n m m T E Q ) ] P P P ( _ P ~ Q E c x j j j j z c n Z W } 9.9.1.=.1.u.p.g.l.c.b.v.x.x.x.v.M.M.M.V.V.V.V.V.V.V.V.",
"V.V.V.V.V.V.V.V.V.V.z j j z x c n n n c c z c n n n n n m E ) ' ) Q Q Q Q Q Q Y M c x z j j z j z c Z | +.#.O.{ ~ ) ' u.p.g.l.z.z.l.l.l.l.x.M.M.V.V.V.V.V.V.V.V.",
"V.V.V.V.V.V.V.V.V.V.j j j j x n m m T T n c c c c c c c c m Q Q Y T N N N T T m n c c c c n n n c c V A | .. .W Q ( ' ;.u.p.d.d.k.k.k.k.k.l.v.M.V.V.V.V.V.V.V.V.",
"V.V.V.V.V.V.V.V.V.V.j j j j c n T E Y Y E T n c x x x z z c n m n c c c c c c c c c c n E Y ! Q E m B c B V Z E Q ~ ) ' ;.u.u.i.p.d.d.f.g.k.x.V.V.V.V.V.V.V.V.V.",
"V.V.V.V.V.V.V.V.V.V.j j j j x n m Y ! ! Q E n z j j j j j z x x x z z j k j j j x c m T Q ) _ ) Q T n z z x n T Q ~ ) ) ] ;.>.] >.i.s.s.s.d.V.V.V.V.V.V.V.V.V.V.",
"V.V.V.V.V.V.V.V.V.j j j j j x B m T Y Y E T n j j j j j j j z x c x x j j j j z c c m T ! ) _ ) ! E n x j z c T Q ) _ ' ' _ ) ( ) :.u.u.u.u.V.V.V.V.V.V.V.V.V.V.",
"V.V.V.V.V.V.V.V.j z j j j j z c c m T T m n c z j j j j j z x c c n c z j j j z x c m E Y ~ ) ( ! E n x z z c T Q ) ' ' _ ( ! Y Q ) ;.>.y.y.V.V.V.V.V.V.V.V.V.V.",
"V.V.V.V.V.V.V.V.j j j j j j j x c c n n n c x j j j j j x c c n m n n x j j j j x c n N T Y Q Y Q T n c z j x n T Q ` ( Q Y T N T Q ( _ >.V.V.V.V.V.V.V.V.V.V.V.",
"V.V.V.V.V.V.V.V.V.j j j j j j z z z x c x z z j j j j x c n m m N m n x j j j j x z x c n N T T m m c z z j z x c m T T m m n n n m N Y V.V.V.V.V.V.V.V.V.V.V.V.",
"V.V.V.V.V.V.V.V.V.V.j j j j j j j j j j j j j j j j j x n m T T Y E N c z j j j j j j j x c n n n c x j j j z k z c c c c n n c c x x x V.V.V.V.V.V.V.V.V.V.V.V.",
"V.V.V.V.V.V.V.V.V.V.V.j j j j j j j j j j j j j j j j c n m Y Q ~ ( Q E n x j j j j j j j x x c c z z j j j j j z c n m m m m T n c z V.V.V.V.V.V.V.V.V.V.V.V.V.",
"V.V.V.V.V.V.V.V.V.V.V.V.j j z j j j j j j j j j j j x x n N Y ` _ _ ) Q T n z j j j j j j j x j z z j j j j j j z c m T T E Q Q E n x V.V.V.V.V.V.V.V.V.V.V.V.V.",
"V.V.V.V.V.V.V.V.V.V.V.V.j j j j j z j j j j j j j j j x c N Y ! ) _ ( Q E n z j j j j j j j j j j j j j j j j j x c T Y Q Q Q Q E c z V.V.V.V.V.V.V.V.V.V.V.V.V.",
"V.V.V.V.V.V.V.V.V.V.V.V.j j j j j j j j j j j z j j x x c n E / ! Q Q Y T c z j j j j j j j j j j j j j j z k j x c T Y Q Q Q Q m c z V.V.V.V.V.V.V.V.V.V.V.V.V.",
"V.V.V.V.V.V.V.V.V.V.V.V.z j j j j j j j j j j j j j j j z n T E T T m T m c z j j j j j j j j j j j j j j k j j x c m T Y Q Y T n c j V.V.V.V.V.V.V.V.V.V.V.V.V.",
"V.V.V.V.V.V.V.V.V.V.V.j j j j j j j j j j j j j j j j j x x n M n n n c c c z j j j j j j j j j j j j j j k j j z c c n m m n c c x V.V.V.V.V.V.V.V.V.V.V.V.V.V.",
"V.V.V.V.V.V.V.V.V.V.j j j j j j j j j j j j j j j j j j j z z z x x j x z z z j j j j j j k j j j k k k j z j z j z z z x z z x z V.V.V.V.V.V.V.V.V.V.V.V.V.V.V.",
"V.V.V.V.V.V.V.V.V.V.j j j j j j j j j j j j j j j j j z j j j j j j j j j j j j j j j j j k k k k k j j j j j j k j j j j k j j j V.V.V.V.V.V.V.V.V.V.V.V.V.V.V.",
"V.V.V.V.V.V.V.V.V.V.V.V.V.V.V.j j j j j j j j j k k j j k j k k j j j j j j V.V.V.V.V.V.V.h h k h h k j j j j j k k j j V.V.V.V.V.V.V.V.V.V.V.V.V.V.V.V.V.V.V.V.",
"V.V.V.V.V.V.V.V.V.V.V.V.V.V.V.j j j j j j j z j j k k j h k k k k j k j j j V.V.V.V.V.V.V.> > h h h h k j j j j j z j j V.V.V.V.V.V.V.V.V.V.V.V.V.V.V.V.V.V.V.V.",
"V.V.V.V.V.V.V.V.V.V.V.V.V.V.V.V.V.j j V.V.V.V.j h h h h > > h 2 l v b b j V.V.V.V.V.V.V.V.: # # o : > > h k j z k j j j V.V.V.V.V.V.V.V.V.V.V.V.V.V.V.V.V.V.V.V.",
"V.V.V.V.V.V.V.V.V.V.V.V.V.V.V.V.V.V.V.V.V.V.V.V.V.h > : , , t t y D S k j V.V.V.V.V.V.V.V.  O O O @ o : : V.V.j j k j j V.V.V.V.V.V.V.V.V.V.V.V.V.V.V.V.V.V.V.V.",
"V.V.V.V.V.V.V.V.V.V.V.V.V.V.V.V.V.V.V.V.V.V.V.V.V.V.: o # $ q w r g D S j V.V.V.V.V.V.V.          O @ : V.V.V.V.j j j j V.V.V.V.V.V.V.V.V.V.V.V.V.V.V.V.V.V.V.V.",
"V.V.V.V.V.V.V.V.V.V.V.V.V.V.V.V.V.V.V.V.V.V.V.V.V.V.V.@ O + - e u d f g V.V.V.V.V.V.V.              O V.V.V.V.V.V.V.V.V.V.V.V.V.V.V.V.V.V.V.V.V.V.V.V.V.V.V.V.V.",
"V.V.V.V.V.V.V.V.V.V.V.V.V.V.V.V.V.V.V.V.V.V.V.V.V.V.V.    . - = u G K V.V.V.V.V.V.V.            . . V.V.V.V.V.V.V.V.V.V.V.V.V.V.V.V.V.V.V.V.V.V.V.V.V.V.V.V.V.V.",
"V.V.V.V.V.V.V.V.V.V.V.V.V.V.V.V.V.V.V.V.V.V.V.V.V.V.V.    . . & 5 i G V.V.V.V.V.V.              . V.V.V.V.V.V.V.V.V.V.V.V.V.V.V.V.V.V.V.V.V.V.V.V.V.V.V.V.V.V.V.",
"V.V.V.V.V.V.V.V.V.V.V.V.V.V.V.V.V.V.V.V.V.V.V.V.V.V.V.V.    X % = 6 8 V.V.V.V.V.                V.V.V.V.V.V.V.V.V.V.V.V.V.V.V.V.V.V.V.V.V.V.V.V.V.V.V.V.V.V.V.V.",
"V.V.V.V.V.V.V.V.V.V.V.V.V.V.V.V.V.V.V.V.V.V.V.V.V.V.V.V.      X & = = V.V.V.V.V.              V.V.V.V.V.V.V.V.V.V.V.V.V.V.V.V.V.V.V.V.V.V.V.V.V.V.V.V.V.V.V.V.V.",
"V.V.V.V.V.V.V.V.V.V.V.V.V.V.V.V.V.V.V.V.V.V.V.V.V.V.V.V.V.    . X % & & & & % X .         . V.V.V.V.V.V.V.V.V.V.V.V.V.V.V.V.V.V.V.V.V.V.V.V.V.V.V.V.V.V.V.V.V.V.",
"V.V.V.V.V.V.V.V.V.V.V.V.V.V.V.V.V.V.V.V.V.V.V.V.V.V.V.V.V.V.        X X % % % X X     . . V.V.V.V.V.V.V.V.V.V.V.V.V.V.V.V.V.V.V.V.V.V.V.V.V.V.V.V.V.V.V.V.V.V.V.",
"V.V.V.V.V.V.V.V.V.V.V.V.V.V.V.V.V.V.V.V.V.V.V.V.V.V.V.V.V.V.          X X X X X     . % - V.V.V.V.V.V.V.V.V.V.V.V.V.V.V.V.V.V.V.V.V.V.V.V.V.V.V.V.V.V.V.V.V.V.V.",
"V.V.V.V.V.V.V.V.V.V.V.V.V.V.V.V.V.V.V.V.V.V.V.V.V.V.V.V.V.V.          . . . X X   . % * = V.V.V.V.V.V.V.V.V.V.V.V.V.V.V.V.V.V.V.V.V.V.V.V.V.V.V.V.V.V.V.V.V.V.V.",
"V.V.V.V.V.V.V.V.V.V.V.V.V.V.V.V.V.V.V.V.V.V.V.V.V.V.V.V.V.V.O         . X X % % . % = 4 5 V.V.V.V.V.V.V.V.V.V.V.V.V.V.V.V.V.V.V.V.V.V.V.V.V.V.V.V.V.V.V.V.V.V.V.",
"V.V.V.V.V.V.V.V.V.V.V.V.V.V.V.V.V.V.V.V.V.V.V.V.V.V.V.V.V.V.        . X % & = = & & 5 u 0 V.V.V.V.V.V.V.V.V.V.V.V.V.V.V.V.V.V.V.V.V.V.V.V.V.V.V.V.V.V.V.V.V.V.V.",
"V.V.V.V.V.V.V.V.V.V.V.V.V.V.V.V.V.V.V.V.V.V.V.V.V.V.V.V.V.V.        . X & * 3 = = = 5 0 J V.V.V.V.V.V.V.V.V.V.V.V.V.V.V.V.V.V.V.V.V.V.V.V.V.V.V.V.V.V.V.V.V.V.V.",
"V.V.V.V.V.V.V.V.V.V.V.V.V.V.V.V.V.V.V.V.V.V.V.V.V.V.V.V.V.V.V.          X * = = * = 5 G J V.V.V.V.V.V.V.V.V.V.V.V.V.V.V.V.V.V.V.V.V.V.V.V.V.V.V.V.V.V.V.V.V.V.V.",
"V.V.V.V.V.V.V.V.V.V.V.V.V.V.V.V.V.V.V.V.V.V.V.V.V.V.V.V.V.V.V.V.        X & = = & = 6 i J V.V.V.V.V.V.V.V.V.V.V.V.V.V.V.V.V.V.V.V.V.V.V.V.V.V.V.V.V.V.V.V.V.V.V.",
"V.V.V.V.V.V.V.V.V.V.V.V.V.V.V.V.V.V.V.V.V.V.V.V.V.V.V.V.V.V.V.V.          % * * & = 6 s J V.V.V.V.V.V.V.V.V.V.V.V.V.V.V.V.V.V.V.V.V.V.V.V.V.V.V.V.V.V.V.V.V.V.V.",
"V.V.V.V.V.V.V.V.V.V.V.V.V.V.V.V.V.V.V.V.V.V.V.V.V.V.V.V.V.V.V.V.        . % & & & * 6 s K V.V.V.V.V.V.V.V.V.V.V.V.V.V.V.V.V.V.V.V.V.V.V.V.V.V.V.V.V.V.V.V.V.V.V.",
"V.V.V.V.V.V.V.V.V.V.V.V.V.V.V.V.V.V.V.V.V.V.V.V.V.V.V.V.V.V.V.V.        X X & & % = 7 H K V.V.V.V.V.V.V.V.V.V.V.V.V.V.V.V.V.V.V.V.V.V.V.V.V.V.V.V.V.V.V.V.V.V.V.",
"V.V.V.V.V.V.V.V.V.V.V.V.V.V.V.V.V.V.V.V.V.V.V.V.V.V.V.V.V.V.V.            X X % % * u J L L V.V.V.V.V.V.V.V.V.V.V.V.V.V.V.V.V.V.V.V.V.V.V.V.V.V.V.V.V.V.V.V.V.V.",
"V.V.V.V.V.V.V.V.V.V.V.V.V.V.V.V.V.V.V.V.V.V.V.V.V.V.V.V.V.V.                  X % = 8 J L L K V.V.V.V.V.V.V.V.V.V.V.V.V.V.V.V.V.V.V.V.V.V.V.V.V.V.V.V.V.V.V.V.V.",
"V.V.V.V.V.V.V.V.V.V.V.V.V.V.V.V.V.V.V.V.V.V.V.V.V.V.V.V.V.                    X % = 7 H J K K V.V.V.V.V.V.V.V.V.V.V.V.V.V.V.V.V.V.V.V.V.V.V.V.V.V.V.V.V.V.V.V.V.",
"V.V.V.V.V.V.V.V.V.V.V.V.V.V.V.V.V.V.V.V.V.V.V.V.V.V.V.V.                      X * = 5 8 0 V.V.V.V.V.V.V.V.V.V.V.V.V.V.V.V.V.V.V.V.V.V.V.V.V.V.V.V.V.V.V.V.V.V.V.",
"V.V.V.V.V.V.V.V.V.V.V.V.V.V.V.V.V.V.V.V.V.V.V.V.V.V.V.V.                    . X * = 5 5 5 V.V.V.V.V.V.V.V.V.V.V.V.V.V.V.V.V.V.V.V.V.V.V.V.V.V.V.V.V.V.V.V.V.V.V.",
"V.V.V.V.V.V.V.V.V.V.V.V.V.V.V.V.V.V.V.V.V.V.V.V.V.V.V.V.V.  V.              . X % = = = 5 7 V.V.V.V.V.V.V.V.V.V.V.V.V.V.V.V.V.V.V.V.V.V.V.V.V.V.V.V.V.V.V.V.V.V.",
"V.V.V.V.V.V.V.V.V.V.V.V.V.V.V.V.V.V.V.V.V.V.V.V.V.V.V.V.V.V.V.V.          . . X V.V.= = 4 8 H V.V.V.V.V.V.V.V.V.V.V.V.V.V.V.V.V.V.V.V.V.V.V.V.V.V.V.V.V.V.V.V.V.",
"V.V.V.V.V.V.V.V.V.V.V.V.V.V.V.V.V.V.V.V.V.V.V.V.V.V.V.V.V.V.V.V.          . . X V.V.V.* 5 u H V.V.V.V.V.V.V.V.V.V.V.V.V.V.V.V.V.V.V.V.V.V.V.V.V.V.V.V.V.V.V.V.V."
};
